{
.appVersion = "3133";
.formatVersion = 3;
classes = (
{
automatic = 1;

glyphs = (
{
glyphname = A;
lastChange = "2022-11-10 14:35:10 +0000";
layers = (
{
anchors = (
{
name = bottom;
pos = (477,0);
},
{
name = ogonek;
pos = (859,10);
},
{
name = top;
pos = (477,1593);
}
);
background = {
anchors = (
{
name = bottom;
pos = (477,-170);
},
{
name = ogonek;
pos = (859,10);
},
{
name = top;
pos = (477,1593);
}
);
shapes = (
{
closed = 1;
nodes = (
(202,0,l),
(436,898,l),
(476,1118,l),
(518,898,l),
(752,0,l),
(949,0,l),
(494,1612,l),
(459,1612,l),
(5,0,l)
);
},
{
closed = 1;
nodes = (
(754,265,l),
(754,431,l),
(209,431,l),
(209,265,l)
);
}
);
};
layerId = master01;
shapes = (
{
closed = 1;
nodes = (
(202,0,l),
(436,898,l),
(476,1118,l),
(518,898,l),
(752,0,l),
(949,0,l),
(494,1612,l),
(459,1612,l),
(5,0,l)
);
},
{
closed = 1;
nodes = (
(754,265,l),
(754,431,l),
(209,431,l),
(209,265,l)
);
}
);
userData = {
com.typemytype.robofont.mark = (
0.967,
0.6,
1,
1
);
};
width = 954;
}
);
unicode = 65;
},
{
glyphname = Aacute;
lastChange = "2022-11-10 14:18:30 +0000";
layers = (
{
background = {
anchors = (
{
name = bottom;
pos = (500,-170);
},
{
name = ogonek;
pos = (882,10);
},
{
name = top;
pos = (446,2020);
}
);
shapes = (
{
closed = 1;
nodes = (
(225,0,l),
(459,898,l),
(499,1118,l),
(541,898,l),
(775,0,l),
(972,0,l),
(517,1612,l),
(482,1612,l),
(28,0,l)
);
},
{
closed = 1;
nodes = (
(777,265,l),
(777,431,l),
(232,431,l),
(232,265,l)
);
},
{
closed = 1;
nodes = (
(701,1867,l),
(634,2020,l),
(191,1825,l),
(259,1671,l)
);
}
);
};
layerId = master01;
shapes = (
{
alignment = -1;
pos = (23,0);
ref = A;
},
{
alignment = -1;
pos = (139,0);
ref = acutecomb.case;
}
);
width = 981;
}
);
unicode = 193;
},
{
glyphname = Abreve;
lastChange = "2022-11-10 14:18:30 +0000";
layers = (
{
background = {
anchors = (
{
name = bottom;
pos = (500,-170);
},
{
name = ogonek;
pos = (882,10);
},
{
name = top;
pos = (490,1989);
}
);
shapes = (
{
closed = 1;
nodes = (
(225,0,l),
(459,898,l),
(499,1118,l),
(541,898,l),
(775,0,l),
(972,0,l),
(517,1612,l),
(482,1612,l),
(28,0,l)
);
},
{
closed = 1;
nodes = (
(777,265,l),
(777,431,l),
(232,431,l),
(232,265,l)
);
},
{
closed = 1;
nodes = (
(709,1678,o),
(799,1838,o),
(786,1989,c),
(661,1989,l),
(629,1866,o),
(575,1833,o),
(490,1833,cs),
(405,1833,o),
(351,1866,o),
(319,1989,c),
(194,1989,l),
(181,1838,o),
(271,1678,o),
(490,1678,cs)
);
}
);
};
layerId = master01;
shapes = (
{
alignment = -1;
pos = (23,0);
ref = A;
},
{
alignment = -1;
pos = (103,0);
ref = brevecomb.case;
}
);
width = 981;
}
);
unicode = 258;
},
{
glyphname = Abreveacute;
lastChange = "2022-11-10 14:18:30 +0000";
layers = (
{
background = {
anchors = (
{
name = bottom;
pos = (477,-170);
},
{
name = ogonek;
pos = (859,10);
},
{
name = top;
pos = (477,2416);
}
);
shapes = (
{
closed = 1;
nodes = (
(202,0,l),
(436,898,l),
(476,1118,l),
(518,898,l),
(752,0,l),
(949,0,l),
(494,1612,l),
(459,1612,l),
(5,0,l)
);
},
{
closed = 1;
nodes = (
(754,265,l),
(754,431,l),
(209,431,l),
(209,265,l)
);
},
{
closed = 1;
nodes = (
(696,1678,o),
(786,1838,o),
(773,1989,c),
(648,1989,l),
(616,1866,o),
(562,1833,o),
(477,1833,cs),
(392,1833,o),
(338,1866,o),
(306,1989,c),
(181,1989,l),
(168,1838,o),
(258,1678,o),
(477,1678,cs)
);
},
{
closed = 1;
nodes = (
(732,2263,l),
(665,2416,l),
(222,2221,l),
(290,2067,l)
);
}
);
};
layerId = master01;
shapes = (
{
ref = A;
},
{
pos = (90,0);
ref = brevecomb.case;
},
{
pos = (170,396);
ref = acutecomb.case;
}
);
width = 954;
}
);
unicode = 7854;
},
{
glyphname = Abrevedotbelow;
lastChange = "2022-11-10 14:35:10 +0000";
layers = (
{
background = {
anchors = (
{
name = bottom;
pos = (477,-552);
},
{
name = ogonek;
pos = (859,10);
},
{
name = top;
pos = (477,1989);
}
);
shapes = (
{
closed = 1;
nodes = (
(202,0,l),
(436,898,l),
(476,1118,l),
(518,898,l),
(752,0,l),
(949,0,l),
(494,1612,l),
(459,1612,l),
(5,0,l)
);
},
{
closed = 1;
nodes = (
(754,265,l),
(754,431,l),
(209,431,l),
(209,265,l)
);
},
{
closed = 1;
nodes = (
(555,-552,o),
(606,-494,o),
(606,-428,cs),
(606,-362,o),
(555,-304,o),
(477,-304,cs),
(399,-304,o),
(348,-362,o),
(348,-428,cs),
(348,-494,o),
(399,-552,o),
(477,-552,cs)
);
},
{
closed = 1;
nodes = (
(696,1678,o),
(786,1838,o),
(773,1989,c),
(648,1989,l),
(616,1866,o),
(562,1833,o),
(477,1833,cs),
(392,1833,o),
(338,1866,o),
(306,1989,c),
(181,1989,l),
(168,1838,o),
(258,1678,o),
(477,1678,cs)
);
}
);
};
layerId = master01;
shapes = (
{
ref = A;
},
{
pos = (222,0);
ref = dotbelowcomb.case;
},
{
pos = (90,0);
ref = brevecomb.case;
}
);
width = 954;
}
);
unicode = 7862;
},
{
glyphname = Abrevegrave;
lastChange = "2022-11-10 14:18:30 +0000";
layers = (
{
background = {
anchors = (
{
name = bottom;
pos = (477,-170);
},
{
name = ogonek;
pos = (859,10);
},
{
name = top;
pos = (477,2416);
}
);
shapes = (
{
closed = 1;
nodes = (
(202,0,l),
(436,898,l),
(476,1118,l),
(518,898,l),
(752,0,l),
(949,0,l),
(494,1612,l),
(459,1612,l),
(5,0,l)
);
},
{
closed = 1;
nodes = (
(754,265,l),
(754,431,l),
(209,431,l),
(209,265,l)
);
},
{
closed = 1;
nodes = (
(696,1678,o),
(786,1838,o),
(773,1989,c),
(648,1989,l),
(616,1866,o),
(562,1833,o),
(477,1833,cs),
(392,1833,o),
(338,1866,o),
(306,1989,c),
(181,1989,l),
(168,1838,o),
(258,1678,o),
(477,1678,cs)
);
},
{
closed = 1;
nodes = (
(732,2221,l),
(289,2416,l),
(222,2263,l),
(664,2067,l)
);
}
);
};
layerId = master01;
shapes = (
{
ref = A;
},
{
pos = (90,0);
ref = brevecomb.case;
},
{
pos = (170,396);
ref = gravecomb.case;
}
);
width = 954;
}
);
unicode = 7856;
},
{
glyphname = Abrevehookabove;
lastChange = "2022-11-10 14:35:25 +0000";
layers = (
{
background = {
anchors = (
{
name = bottom;
pos = (477,-170);
},
{
name = ogonek;
pos = (859,10);
},
{
name = top;
pos = (477,2540);
}
);
shapes = (
{
closed = 1;
nodes = (
(202,0,l),
(436,898,l),
(476,1118,l),
(518,898,l),
(752,0,l),
(949,0,l),
(494,1612,l),
(459,1612,l),
(5,0,l)
);
},
{
closed = 1;
nodes = (
(754,265,l),
(754,431,l),
(209,431,l),
(209,265,l)
);
},
{
closed = 1;
nodes = (
(696,1678,o),
(786,1838,o),
(773,1989,c),
(648,1989,l),
(616,1866,o),
(562,1833,o),
(477,1833,cs),
(392,1833,o),
(338,1866,o),
(306,1989,c),
(181,1989,l),
(168,1838,o),
(258,1678,o),
(477,1678,cs)
);
},
{
closed = 1;
nodes = (
(385,2208,l),
(455,2208,o),
(493,2240,o),
(493,2283,cs),
(493,2346,o),
(416,2393,o),
(293,2404,c),
(329,2540,l),
(534,2519,o),
(661,2408,o),
(661,2278,cs),
(661,2170,o),
(574,2109,o),
(385,2092,c)
);
}
);
};
layerId = master01;
shapes = (
{
ref = A;
},
{
pos = (90,0);
ref = brevecomb.case;
},
{
pos = (143,927);
ref = hookabovecomb.case;
}
);
width = 954;
}
);
unicode = 7858;
},
{
glyphname = Abrevetilde;
lastChange = "2022-11-10 14:18:30 +0000";
layers = (
{
background = {
anchors = (
{
name = bottom;
pos = (477,-170);
},
{
name = ogonek;
pos = (859,10);
},
{
name = top;
pos = (477,2355);
}
);
shapes = (
{
closed = 1;
nodes = (
(202,0,l),
(436,898,l),
(476,1118,l),
(518,898,l),
(752,0,l),
(949,0,l),
(494,1612,l),
(459,1612,l),
(5,0,l)
);
},
{
closed = 1;
nodes = (
(754,265,l),
(754,431,l),
(209,431,l),
(209,265,l)
);
},
{
closed = 1;
nodes = (
(696,1678,o),
(786,1838,o),
(773,1989,c),
(648,1989,l),
(616,1866,o),
(562,1833,o),
(477,1833,cs),
(392,1833,o),
(338,1866,o),
(306,1989,c),
(181,1989,l),
(168,1838,o),
(258,1678,o),
(477,1678,cs)
);
},
{
closed = 1;
nodes = (
(272,2169,o),
(326,2189,o),
(364,2189,cs),
(438,2189,o),
(500,2113,o),
(603,2113,cs),
(679,2113,o),
(765,2188,o),
(805,2258,c),
(729,2355,l),
(682,2299,o),
(628,2279,o),
(590,2279,cs),
(516,2279,o),
(454,2355,o),
(351,2355,cs),
(275,2355,o),
(189,2280,o),
(149,2210,c),
(225,2113,l)
);
}
);
};
layerId = master01;
shapes = (
{
ref = A;
},
{
pos = (90,0);
ref = brevecomb.case;
},
{
pos = (49,396);
ref = tildecomb.case;
}
);
width = 954;
}
);
unicode = 7860;
},
{
glyphname = Acaron;
lastChange = "2022-11-10 14:18:30 +0000";
layers = (
{
background = {
anchors = (
{
name = bottom;
pos = (477,-170);
},
{
name = ogonek;
pos = (859,10);
},
{
name = top;
pos = (477,2020);
}
);
shapes = (
{
closed = 1;
nodes = (
(202,0,l),
(436,898,l),
(476,1118,l),
(518,898,l),
(752,0,l),
(949,0,l),
(494,1612,l),
(459,1612,l),
(5,0,l)
);
},
{
closed = 1;
nodes = (
(754,265,l),
(754,431,l),
(209,431,l),
(209,265,l)
);
},
{
closed = 1;
nodes = (
(793,1882,l),
(717,2020,l),
(477,1899,l),
(237,2020,l),
(161,1882,l),
(477,1719,l)
);
}
);
};
layerId = master01;
shapes = (
{
ref = A;
},
{
pos = (89,0);
ref = caroncomb.case;
}
);
width = 954;
}
);
unicode = 461;
},
{
glyphname = Acircumflex;
lastChange = "2022-11-10 14:18:30 +0000";
layers = (
{
background = {
anchors = (
{
name = bottom;
pos = (500,-170);
},
{
name = ogonek;
pos = (882,10);
},
{
name = top;
pos = (490,2020);
}
);
shapes = (
{
closed = 1;
nodes = (
(225,0,l),
(459,898,l),
(499,1118,l),
(541,898,l),
(775,0,l),
(972,0,l),
(517,1612,l),
(482,1612,l),
(28,0,l)
);
},
{
closed = 1;
nodes = (
(777,265,l),
(777,431,l),
(232,431,l),
(232,265,l)
);
},
{
closed = 1;
nodes = (
(490,1840,l),
(730,1719,l),
(806,1857,l),
(490,2020,l),
(174,1857,l),
(250,1719,l)
);
}
);
};
layerId = master01;
shapes = (
{
alignment = -1;
pos = (23,0);
ref = A;
},
{
alignment = -1;
pos = (102,0);
ref = circumflexcomb.case;
}
);
width = 981;
}
);
unicode = 194;
},
{
glyphname = Acircumflexacute;
lastChange = "2022-11-10 14:18:30 +0000";
layers = (
{
background = {
anchors = (
{
name = bottom;
pos = (477,-170);
},
{
name = ogonek;
pos = (859,10);
},
{
name = top;
pos = (477,2447);
}
);
shapes = (
{
closed = 1;
nodes = (
(202,0,l),
(436,898,l),
(476,1118,l),
(518,898,l),
(752,0,l),
(949,0,l),
(494,1612,l),
(459,1612,l),
(5,0,l)
);
},
{
closed = 1;
nodes = (
(754,265,l),
(754,431,l),
(209,431,l),
(209,265,l)
);
},
{
closed = 1;
nodes = (
(477,1840,l),
(717,1719,l),
(793,1857,l),
(477,2020,l),
(161,1857,l),
(237,1719,l)
);
},
{
closed = 1;
nodes = (
(732,2294,l),
(665,2447,l),
(222,2252,l),
(290,2098,l)
);
}
);
};
guides = (
{
pos = (237,1719);
},
{
pos = (290,2098);
}
);
layerId = master01;
shapes = (
{
ref = A;
},
{
pos = (89,0);
ref = circumflexcomb.case;
},
{
pos = (170,427);
ref = acutecomb.case;
}
);
width = 954;
}
);
unicode = 7844;
},
{
glyphname = Acircumflexdotbelow;
lastChange = "2022-11-10 14:35:10 +0000";
layers = (
{
background = {
anchors = (
{
name = bottom;
pos = (477,-552);
},
{
name = ogonek;
pos = (859,10);
},
{
name = top;
pos = (477,2020);
}
);
shapes = (
{
closed = 1;
nodes = (
(202,0,l),
(436,898,l),
(476,1118,l),
(518,898,l),
(752,0,l),
(949,0,l),
(494,1612,l),
(459,1612,l),
(5,0,l)
);
},
{
closed = 1;
nodes = (
(754,265,l),
(754,431,l),
(209,431,l),
(209,265,l)
);
},
{
closed = 1;
nodes = (
(555,-552,o),
(606,-494,o),
(606,-428,cs),
(606,-362,o),
(555,-304,o),
(477,-304,cs),
(399,-304,o),
(348,-362,o),
(348,-428,cs),
(348,-494,o),
(399,-552,o),
(477,-552,cs)
);
},
{
closed = 1;
nodes = (
(477,1840,l),
(717,1719,l),
(793,1857,l),
(477,2020,l),
(161,1857,l),
(237,1719,l)
);
}
);
};
layerId = master01;
shapes = (
{
ref = A;
},
{
pos = (222,0);
ref = dotbelowcomb.case;
},
{
pos = (89,0);
ref = circumflexcomb.case;
}
);
width = 954;
}
);
unicode = 7852;
},
{
glyphname = Acircumflexgrave;
lastChange = "2022-11-10 14:18:30 +0000";
layers = (
{
background = {
anchors = (
{
name = bottom;
pos = (477,-170);
},
{
name = ogonek;
pos = (859,10);
},
{
name = top;
pos = (477,2447);
}
);
shapes = (
{
closed = 1;
nodes = (
(202,0,l),
(436,898,l),
(476,1118,l),
(518,898,l),
(752,0,l),
(949,0,l),
(494,1612,l),
(459,1612,l),
(5,0,l)
);
},
{
closed = 1;
nodes = (
(754,265,l),
(754,431,l),
(209,431,l),
(209,265,l)
);
},
{
closed = 1;
nodes = (
(477,1840,l),
(717,1719,l),
(793,1857,l),
(477,2020,l),
(161,1857,l),
(237,1719,l)
);
},
{
closed = 1;
nodes = (
(732,2252,l),
(289,2447,l),
(222,2294,l),
(664,2098,l)
);
}
);
};
layerId = master01;
shapes = (
{
ref = A;
},
{
pos = (89,0);
ref = circumflexcomb.case;
},
{
pos = (170,427);
ref = gravecomb.case;
}
);
width = 954;
}
);
unicode = 7846;
},
{
glyphname = Acircumflexhookabove;
lastChange = "2022-11-10 14:18:30 +0000";
layers = (
{
background = {
anchors = (
{
name = bottom;
pos = (477,-170);
},
{
name = ogonek;
pos = (859,10);
},
{
name = top;
pos = (477,2571);
}
);
shapes = (
{
closed = 1;
nodes = (
(202,0,l),
(436,898,l),
(476,1118,l),
(518,898,l),
(752,0,l),
(949,0,l),
(494,1612,l),
(459,1612,l),
(5,0,l)
);
},
{
closed = 1;
nodes = (
(754,265,l),
(754,431,l),
(209,431,l),
(209,265,l)
);
},
{
closed = 1;
nodes = (
(477,1840,l),
(717,1719,l),
(793,1857,l),
(477,2020,l),
(161,1857,l),
(237,1719,l)
);
},
{
closed = 1;
nodes = (
(385,2239,l),
(455,2239,o),
(493,2271,o),
(493,2314,cs),
(493,2377,o),
(416,2424,o),
(293,2435,c),
(329,2571,l),
(534,2550,o),
(661,2439,o),
(661,2309,cs),
(661,2201,o),
(574,2140,o),
(385,2123,c)
);
}
);
};
layerId = master01;
shapes = (
{
ref = A;
},
{
pos = (89,0);
ref = circumflexcomb.case;
},
{
pos = (143,958);
ref = hookabovecomb.case;
}
);
width = 954;
}
);
unicode = 7848;
},
{
glyphname = Acircumflextilde;
lastChange = "2022-11-10 14:18:30 +0000";
layers = (
{
background = {
anchors = (
{
name = bottom;
pos = (477,-170);
},
{
name = ogonek;
pos = (859,10);
},
{
name = top;
pos = (477,2386);
}
);
shapes = (
{
closed = 1;
nodes = (
(202,0,l),
(436,898,l),
(476,1118,l),
(518,898,l),
(752,0,l),
(949,0,l),
(494,1612,l),
(459,1612,l),
(5,0,l)
);
},
{
closed = 1;
nodes = (
(754,265,l),
(754,431,l),
(209,431,l),
(209,265,l)
);
},
{
closed = 1;
nodes = (
(477,1840,l),
(717,1719,l),
(793,1857,l),
(477,2020,l),
(161,1857,l),
(237,1719,l)
);
},
{
closed = 1;
nodes = (
(272,2200,o),
(326,2220,o),
(364,2220,cs),
(438,2220,o),
(500,2144,o),
(603,2144,cs),
(679,2144,o),
(765,2219,o),
(805,2289,c),
(729,2386,l),
(682,2330,o),
(628,2310,o),
(590,2310,cs),
(516,2310,o),
(454,2386,o),
(351,2386,cs),
(275,2386,o),
(189,2311,o),
(149,2241,c),
(225,2144,l)
);
}
);
};
layerId = master01;
shapes = (
{
ref = A;
},
{
pos = (89,0);
ref = circumflexcomb.case;
},
{
pos = (49,427);
ref = tildecomb.case;
}
);
width = 954;
}
);
unicode = 7850;
},
{
glyphname = Adblgrave;
lastChange = "2022-11-10 14:18:30 +0000";
layers = (
{
background = {
anchors = (
{
name = bottom;
pos = (477,-170);
},
{
name = ogonek;
pos = (859,10);
},
{
name = top;
pos = (407,2132);
}
);
shapes = (
{
closed = 1;
nodes = (
(202,0,l),
(436,898,l),
(476,1118,l),
(518,898,l),
(752,0,l),
(949,0,l),
(494,1612,l),
(459,1612,l),
(5,0,l)
);
},
{
closed = 1;
nodes = (
(754,265,l),
(754,431,l),
(209,431,l),
(209,265,l)
);
},
{
closed = 1;
nodes = (
(412,1810,l),
(113,2132,l),
(14,2029,l),
(333,1727,l)
);
},
{
closed = 1;
nodes = (
(800,1810,l),
(521,2132,l),
(422,2029,l),
(721,1727,l)
);
}
);
};
layerId = master01;
shapes = (
{
ref = A;
},
{
pos = (-76,0);
ref = dblgravecomb.case;
}
);
width = 954;
}
);
unicode = 512;
},
{
glyphname = Adieresis;
lastChange = "2022-11-10 14:18:30 +0000";
layers = (
{
background = {
anchors = (
{
name = bottom;
pos = (500,-170);
},
{
name = ogonek;
pos = (882,10);
},
{
name = top;
pos = (500,1962);
}
);
shapes = (
{
closed = 1;
nodes = (
(225,0,l),
(459,898,l),
(499,1118,l),
(541,898,l),
(775,0,l),
(972,0,l),
(517,1612,l),
(482,1612,l),
(28,0,l)
);
},
{
closed = 1;
nodes = (
(777,265,l),
(777,431,l),
(232,431,l),
(232,265,l)
);
},
{
closed = 1;
nodes = (
(766,1714,o),
(817,1772,o),
(817,1838,cs),
(817,1904,o),
(766,1962,o),
(688,1962,cs),
(610,1962,o),
(559,1904,o),
(559,1838,cs),
(559,1772,o),
(610,1714,o),
(688,1714,cs)
);
},
{
closed = 1;
nodes = (
(390,1714,o),
(441,1772,o),
(441,1838,cs),
(441,1904,o),
(390,1962,o),
(312,1962,cs),
(234,1962,o),
(183,1904,o),
(183,1838,cs),
(183,1772,o),
(234,1714,o),
(312,1714,cs)
);
}
);
};
layerId = master01;
shapes = (
{
alignment = -1;
pos = (23,0);
ref = A;
},
{
pos = (89,0);
ref = dieresiscomb.case;
}
);
width = 981;
}
);
unicode = 196;
},
{
glyphname = Adotbelow;
lastChange = "2022-11-10 14:35:10 +0000";
layers = (
{
background = {
anchors = (
{
name = bottom;
pos = (477,-552);
},
{
name = ogonek;
pos = (859,10);
},
{
name = top;
pos = (477,1593);
}
);
shapes = (
{
closed = 1;
nodes = (
(202,0,l),
(436,898,l),
(476,1118,l),
(518,898,l),
(752,0,l),
(949,0,l),
(494,1612,l),
(459,1612,l),
(5,0,l)
);
},
{
closed = 1;
nodes = (
(754,265,l),
(754,431,l),
(209,431,l),
(209,265,l)
);
},
{
closed = 1;
nodes = (
(555,-552,o),
(606,-494,o),
(606,-428,cs),
(606,-362,o),
(555,-304,o),
(477,-304,cs),
(399,-304,o),
(348,-362,o),
(348,-428,cs),
(348,-494,o),
(399,-552,o),
(477,-552,cs)
);
}
);
};
layerId = master01;
shapes = (
{
ref = A;
},
{
pos = (222,0);
ref = dotbelowcomb.case;
}
);
width = 954;
}
);
unicode = 7840;
},
{
glyphname = Agrave;
lastChange = "2022-11-10 14:18:30 +0000";
layers = (
{
background = {
anchors = (
{
name = bottom;
pos = (500,-170);
},
{
name = ogonek;
pos = (882,10);
},
{
name = top;
pos = (450,2020);
}
);
shapes = (
{
closed = 1;
nodes = (
(225,0,l),
(459,898,l),
(499,1118,l),
(541,898,l),
(775,0,l),
(972,0,l),
(517,1612,l),
(482,1612,l),
(28,0,l)
);
},
{
closed = 1;
nodes = (
(777,265,l),
(777,431,l),
(232,431,l),
(232,265,l)
);
},
{
closed = 1;
nodes = (
(705,1825,l),
(262,2020,l),
(195,1867,l),
(637,1671,l)
);
}
);
};
layerId = master01;
shapes = (
{
alignment = -1;
pos = (23,0);
ref = A;
},
{
alignment = -1;
pos = (143,0);
ref = gravecomb.case;
}
);
width = 981;
}
);
unicode = 192;
},
{
glyphname = Ahookabove;
lastChange = "2022-11-10 14:18:30 +0000";
layers = (
{
background = {
anchors = (
{
name = bottom;
pos = (477,-170);
},
{
name = ogonek;
pos = (859,10);
},
{
name = top;
pos = (477,2144);
}
);
shapes = (
{
closed = 1;
nodes = (
(202,0,l),
(436,898,l),
(476,1118,l),
(518,898,l),
(752,0,l),
(949,0,l),
(494,1612,l),
(459,1612,l),
(5,0,l)
);
},
{
closed = 1;
nodes = (
(754,265,l),
(754,431,l),
(209,431,l),
(209,265,l)
);
},
{
closed = 1;
nodes = (
(385,1812,l),
(455,1812,o),
(493,1844,o),
(493,1887,cs),
(493,1950,o),
(416,1997,o),
(293,2008,c),
(329,2144,l),
(534,2123,o),
(661,2012,o),
(661,1882,cs),
(661,1774,o),
(574,1713,o),
(385,1696,c)
);
}
);
};
layerId = master01;
shapes = (
{
ref = A;
},
{
pos = (143,531);
ref = hookabovecomb.case;
}
);
width = 954;
}
);
unicode = 7842;
},
{
glyphname = Ainvertedbreve;
lastChange = "2022-11-10 14:18:30 +0000";
layers = (
{
background = {
anchors = (
{
name = bottom;
pos = (477,-170);
},
{
name = ogonek;
pos = (859,10);
},
{
name = top;
pos = (477,2038);
}
);
shapes = (
{
closed = 1;
nodes = (
(202,0,l),
(436,898,l),
(476,1118,l),
(518,898,l),
(752,0,l),
(949,0,l),
(494,1612,l),
(459,1612,l),
(5,0,l)
);
},
{
closed = 1;
nodes = (
(754,265,l),
(754,431,l),
(209,431,l),
(209,265,l)
);
},
{
closed = 1;
nodes = (
(306,1717,l),
(338,1840,o),
(392,1883,o),
(477,1883,cs),
(562,1883,o),
(616,1840,o),
(648,1717,c),
(773,1717,l),
(786,1868,o),
(706,2038,o),
(477,2038,cs),
(248,2038,o),
(168,1868,o),
(181,1717,c)
);
}
);
};
layerId = master01;
shapes = (
{
ref = A;
},
{
pos = (90,0);
ref = breveinvertedcomb.case;
}
);
width = 954;
}
);
unicode = 514;
},
{
glyphname = Amacron;
lastChange = "2022-11-10 14:18:30 +0000";
layers = (
{
background = {
anchors = (
{
name = bottom;
pos = (500,-170);
},
{
name = ogonek;
pos = (882,10);
},
{
name = top;
pos = (490,1859);
}
);
shapes = (
{
closed = 1;
nodes = (
(225,0,l),
(459,898,l),
(499,1118,l),
(541,898,l),
(775,0,l),
(972,0,l),
(517,1612,l),
(482,1612,l),
(28,0,l)
);
},
{
closed = 1;
nodes = (
(777,265,l),
(777,431,l),
(232,431,l),
(232,265,l)
);
},
{
closed = 1;
nodes = (
(732,1701,l),
(731,1859,l),
(249,1859,l),
(248,1701,l)
);
}
);
};
layerId = master01;
shapes = (
{
alignment = -1;
pos = (23,0);
ref = A;
},
{
alignment = -1;
pos = (83,0);
ref = macroncomb.case;
}
);
width = 981;
}
);
unicode = 256;
},
{
glyphname = Aogonek;
lastChange = "2022-11-10 14:18:19 +0000";
layers = (
{
background = {
shapes = (
{
closed = 1;
nodes = (
(237,0,l),
(464,852,l),
(504,1042,l),
(546,852,l),
(773,0,l),
(977,0,l),
(505,1642,l),
(33,0,l)
);
},
{
closed = 1;
nodes = (
(951,-365,l),
(826,-376,o),
(765,-316,o),
(755,-255,cs),
(734,-132,o),
(895,-25,o),
(977,0,c),
(899,67,l),
(818,45,l),
(638,-34,o),
(531,-170,o),
(557,-308,cs),
(585,-464,o),
(741,-534,o),
(950,-506,c)
);
},
{
closed = 1;
nodes = (
(782,265,l),
(782,441,l),
(237,441,l),
(237,265,l)
);
}
);
};
layerId = master01;
shapes = (
{
closed = 1;
nodes = (
(237,0,l),
(464,852,l),
(504,1042,l),
(546,852,l),
(773,0,l),
(977,0,l),
(505,1642,l),
(33,0,l)
);
},
{
closed = 1;
nodes = (
(951,-365,l),
(826,-376,o),
(765,-316,o),
(755,-255,cs),
(734,-132,o),
(895,-25,o),
(977,0,c),
(899,67,l),
(818,45,l),
(638,-34,o),
(531,-170,o),
(557,-308,cs),
(585,-464,o),
(741,-534,o),
(950,-506,c)
);
},
{
closed = 1;
nodes = (
(782,265,l),
(782,441,l),
(237,441,l),
(237,265,l)
);
}
);
width = 1011;
}
);
unicode = 260;
},
{
glyphname = Aring;
lastChange = "2022-11-10 14:35:49 +0000";
layers = (
{
background = {
anchors = (
{
name = bottom;
pos = (500,-170);
},
{
name = ogonek;
pos = (882,10);
},
{
name = top;
pos = (490,2070);
}
);
shapes = (
{
closed = 1;
nodes = (
(225,0,l),
(459,898,l),
(499,1118,l),
(541,898,l),
(775,0,l),
(972,0,l),
(517,1612,l),
(482,1612,l),
(28,0,l)
);
},
{
closed = 1;
nodes = (
(777,265,l),
(777,431,l),
(232,431,l),
(232,265,l)
);
},
{
closed = 1;
nodes = (
(610,1626,o),
(718,1710,o),
(718,1848,cs),
(718,1986,o),
(610,2070,o),
(490,2070,cs),
(370,2070,o),
(262,1986,o),
(262,1848,cs),
(262,1710,o),
(370,1626,o),
(490,1626,cs)
);
},
{
closed = 1;
nodes = (
(430,1748,o),
(391,1779,o),
(391,1848,cs),
(391,1917,o),
(430,1946,o),
(490,1946,cs),
(550,1946,o),
(589,1917,o),
(589,1848,cs),
(589,1779,o),
(550,1748,o),
(490,1748,cs)
);
}
);
};
layerId = master01;
shapes = (
{
alignment = -1;
pos = (23,0);
ref = A;
},
{
alignment = -1;
pos = (145,0);
ref = ringcomb.case;
}
);
width = 981;
}
);
unicode = 197;
},
{
glyphname = Atilde;
lastChange = "2022-11-10 14:18:30 +0000";
layers = (
{
background = {
anchors = (
{
name = bottom;
pos = (500,-170);
},
{
name = ogonek;
pos = (882,10);
},
{
name = top;
pos = (490,1959);
}
);
shapes = (
{
closed = 1;
nodes = (
(225,0,l),
(459,898,l),
(499,1118,l),
(541,898,l),
(775,0,l),
(972,0,l),
(517,1612,l),
(482,1612,l),
(28,0,l)
);
},
{
closed = 1;
nodes = (
(777,265,l),
(777,431,l),
(232,431,l),
(232,265,l)
);
},
{
closed = 1;
nodes = (
(285,1773,o),
(339,1793,o),
(377,1793,cs),
(451,1793,o),
(513,1717,o),
(616,1717,cs),
(692,1717,o),
(778,1792,o),
(818,1862,c),
(742,1959,l),
(695,1903,o),
(641,1883,o),
(603,1883,cs),
(529,1883,o),
(467,1959,o),
(364,1959,cs),
(288,1959,o),
(202,1884,o),
(162,1814,c),
(238,1717,l)
);
}
);
};
layerId = master01;
shapes = (
{
alignment = -1;
pos = (23,0);
ref = A;
},
{
alignment = -1;
pos = (62,0);
ref = tildecomb.case;
}
);
width = 981;
}
);
unicode = 195;
},
{
glyphname = AE;
lastChange = "2022-11-10 14:18:19 +0000";
layers = (
{
anchors = (
{
name = top;
pos = (872,1700);
}
);
background = {
anchors = (
{
name = top;
pos = (872,1700);
}
);
shapes = (
{
closed = 1;
nodes = (
(225,0,l),
(619,1144,l),
(619,0,l),
(823,0,l),
(648,1593,l),
(620,1593,l),
(21,0,l)
);
},
{
closed = 1;
nodes = (
(721,265,l),
(721,441,l),
(318,441,l),
(318,265,l)
);
},
{
closed = 1;
nodes = (
(1187,0,l),
(1187,176,l),
(830,176,l),
(830,629,l),
(1136,629,l),
(1136,805,l),
(830,805,l),
(830,1417,l),
(1187,1417,l),
(1187,1593,l),
(640,1593,l),
(640,0,l)
);
}
);
};
layerId = master01;
shapes = (
{
closed = 1;
nodes = (
(225,0,l),
(619,1144,l),
(619,0,l),
(823,0,l),
(648,1593,l),
(620,1593,l),
(21,0,l)
);
},
{
closed = 1;
nodes = (
(721,265,l),
(721,441,l),
(318,441,l),
(318,265,l)
);
},
{
closed = 1;
nodes = (
(1187,0,l),
(1187,176,l),
(830,176,l),
(830,629,l),
(1136,629,l),
(1136,805,l),
(830,805,l),
(830,1417,l),
(1187,1417,l),
(1187,1593,l),
(640,1593,l),
(640,0,l)
);
}
);
width = 1314;
}
);
unicode = 198;
},
{
glyphname = AEacute;
lastChange = "2022-11-10 14:18:30 +0000";
layers = (
{
background = {
anchors = (
{
name = top;
pos = (806,2020);
}
);
shapes = (
{
closed = 1;
nodes = (
(220,0,l),
(614,1144,l),
(614,0,l),
(818,0,l),
(643,1593,l),
(615,1593,l),
(16,0,l)
);
},
{
closed = 1;
nodes = (
(716,265,l),
(716,441,l),
(313,441,l),
(313,265,l)
);
},
{
closed = 1;
nodes = (
(1182,0,l),
(1182,176,l),
(825,176,l),
(825,629,l),
(1131,629,l),
(1131,805,l),
(825,805,l),
(825,1417,l),
(1182,1417,l),
(1182,1593,l),
(635,1593,l),
(635,0,l)
);
},
{
closed = 1;
nodes = (
(1061,1867,l),
(994,2020,l),
(551,1825,l),
(619,1671,l)
);
}
);
};
layerId = master01;
shapes = (
{
alignment = -1;
pos = (-5,0);
ref = AE;
},
{
alignment = -1;
pos = (499,0);
ref = acutecomb.case;
}
);
width = 1278;
}
);
unicode = 508;
},
{
glyphname = B;
lastChange = "2022-11-10 14:18:19 +0000";
layers = (
{
anchors = (
{
name = bottom;
pos = (468,0);
},
{
name = top;
pos = (468,1593);
}
);
background = {
anchors = (
{
name = bottom;
pos = (468,0);
},
{
name = top;
pos = (468,1593);
}
);
shapes = (
{
closed = 1;
nodes = (
(210,-18,o),
(318,-16,o),
(348,-14,cs),
(722,11,o),
(837,230,o),
(837,431,cs),
(837,586,o),
(760,706,o),
(622,785,c),
(729,880,o),
(790,1009,o),
(790,1122,cs),
(790,1328,o),
(683,1561,o),
(324,1603,cs),
(294,1607,o),
(210,1612,o),
(178,1612,c),
(178,-18,l)
);
},
{
closed = 1;
nodes = (
(361,681,l),
(536,701,o),
(642,576,o),
(642,431,cs),
(642,267,o),
(516,172,o),
(361,172,c)
);
},
{
closed = 1;
nodes = (
(361,1418,l),
(462,1418,o),
(610,1341,o),
(610,1134,cs),
(610,971,o),
(482,818,o),
(361,838,c)
);
}
);
};
layerId = master01;
shapes = (
{
closed = 1;
nodes = (
(210,-18,o),
(318,-16,o),
(348,-14,cs),
(722,11,o),
(837,230,o),
(837,431,cs),
(837,586,o),
(760,706,o),
(622,785,c),
(729,880,o),
(790,1009,o),
(790,1122,cs),
(790,1328,o),
(683,1561,o),
(324,1603,cs),
(294,1607,o),
(210,1612,o),
(178,1612,c),
(178,-18,l)
);
},
{
closed = 1;
nodes = (
(361,681,l),
(536,701,o),
(642,576,o),
(642,431,cs),
(642,267,o),
(516,172,o),
(361,172,c)
);
},
{
closed = 1;
nodes = (
(361,1418,l),
(462,1418,o),
(610,1341,o),
(610,1134,cs),
(610,971,o),
(482,818,o),
(361,838,c)
);
}
);
userData = {
com.typemytype.robofont.guides = (
{
angle = 90;
isGlobal = 0;
magnetic = 5;
x = 846;
y = 0;
}
);
com.typemytype.robofont.mark = (
0.967,
0.6,
1,
1
);
};
width = 936;
}
);
unicode = 66;
},
{
glyphname = Bdotaccent;
lastChange = "2022-11-10 14:18:30 +0000";
layers = (
{
background = {
anchors = (
{
name = bottom;
pos = (463,0);
},
{
name = top;
pos = (493,1947);
}
);
shapes = (
{
closed = 1;
nodes = (
(205,-18,o),
(313,-16,o),
(343,-14,cs),
(717,11,o),
(832,230,o),
(832,431,cs),
(832,586,o),
(755,706,o),
(617,785,c),
(724,880,o),
(785,1009,o),
(785,1122,cs),
(785,1328,o),
(678,1561,o),
(319,1603,cs),
(289,1607,o),
(205,1612,o),
(173,1612,c),
(173,-18,l)
);
},
{
closed = 1;
nodes = (
(356,681,l),
(531,701,o),
(637,576,o),
(637,431,cs),
(637,267,o),
(511,172,o),
(356,172,c)
);
},
{
closed = 1;
nodes = (
(356,1418,l),
(457,1418,o),
(605,1341,o),
(605,1134,cs),
(605,971,o),
(477,818,o),
(356,838,c)
);
},
{
closed = 1;
nodes = (
(571,1699,o),
(622,1757,o),
(622,1823,cs),
(622,1889,o),
(571,1947,o),
(493,1947,cs),
(415,1947,o),
(364,1889,o),
(364,1823,cs),
(364,1757,o),
(415,1699,o),
(493,1699,cs)
);
}
);
};
layerId = master01;
shapes = (
{
alignment = -1;
pos = (-5,0);
ref = B;
},
{
alignment = -1;
pos = (238,0);
ref = dotaccentcomb.case;
}
);
width = 926;
}
);
unicode = 7682;
},
{
glyphname = C;
lastChange = "2022-11-10 14:18:19 +0000";
layers = (
{
anchors = (
{
name = bottom;
pos = (441,0);
},
{
name = top;
pos = (511,1593);
}
);
background = {
anchors = (
{
name = bottom;
pos = (441,0);
},
{
name = top;
pos = (511,1593);
}
);
shapes = (
{
closed = 1;
nodes = (
(658,-19,o),
(718,-6,o),
(784,22,c),
(720,179,l),
(695,168,o),
(645,162,o),
(609,162,cs),
(438,162,o),
(289,335,o),
(289,796,cs),
(289,1257,o),
(438,1431,o),
(609,1431,cs),
(645,1431,o),
(715,1425,o),
(740,1414,c),
(784,1570,l),
(718,1598,o),
(658,1611,o),
(583,1611,cs),
(321,1611,o),
(97,1394,o),
(97,796,cs),
(97,208,o),
(321,-19,o),
(583,-19,cs)
);
}
);
};
layerId = master01;
shapes = (
{
closed = 1;
nodes = (
(658,-19,o),
(718,-6,o),
(784,22,c),
(720,179,l),
(695,168,o),
(645,162,o),
(609,162,cs),
(438,162,o),
(289,335,o),
(289,796,cs),
(289,1257,o),
(438,1431,o),
(609,1431,cs),
(645,1431,o),
(715,1425,o),
(740,1414,c),
(784,1570,l),
(718,1598,o),
(658,1611,o),
(583,1611,cs),
(321,1611,o),
(97,1394,o),
(97,796,cs),
(97,208,o),
(321,-19,o),
(583,-19,cs)
);
}
);
userData = {
com.typemytype.robofont.guides = (
{
angle = 0;
isGlobal = 0;
magnetic = 5;
x = 0;
y = 796;
},
{
angle = 90;
isGlobal = 0;
magnetic = 5;
x = 801;
y = 0;
}
);
com.typemytype.robofont.mark = (
0.967,
0.6,
1,
1
);
};
width = 801;
}
);
unicode = 67;
},
{
glyphname = Cacute;
lastChange = "2022-11-10 14:18:30 +0000";
layers = (
{
background = {
anchors = (
{
name = bottom;
pos = (436,0);
},
{
name = top;
pos = (506,2020);
}
);
shapes = (
{
closed = 1;
nodes = (
(653,-19,o),
(713,-6,o),
(779,22,c),
(715,179,l),
(690,168,o),
(640,162,o),
(604,162,cs),
(433,162,o),
(284,335,o),
(284,796,cs),
(284,1257,o),
(433,1431,o),
(604,1431,cs),
(640,1431,o),
(710,1425,o),
(735,1414,c),
(779,1570,l),
(713,1598,o),
(653,1611,o),
(578,1611,cs),
(316,1611,o),
(92,1394,o),
(92,796,cs),
(92,208,o),
(316,-19,o),
(578,-19,cs)
);
},
{
closed = 1;
nodes = (
(761,1867,l),
(694,2020,l),
(251,1825,l),
(319,1671,l)
);
}
);
};
layerId = master01;
shapes = (
{
alignment = -1;
pos = (-5,0);
ref = C;
},
{
pos = (199,0);
ref = acutecomb.case;
}
);
width = 844;
}
);
unicode = 262;
},
{
glyphname = Ccaron;
lastChange = "2022-11-10 14:18:30 +0000";
layers = (
{
background = {
anchors = (
{
name = bottom;
pos = (436,0);
},
{
name = top;
pos = (506,2020);
}
);
shapes = (
{
closed = 1;
nodes = (
(653,-19,o),
(713,-6,o),
(779,22,c),
(715,179,l),
(690,168,o),
(640,162,o),
(604,162,cs),
(433,162,o),
(284,335,o),
(284,796,cs),
(284,1257,o),
(433,1431,o),
(604,1431,cs),
(640,1431,o),
(710,1425,o),
(735,1414,c),
(779,1570,l),
(713,1598,o),
(653,1611,o),
(578,1611,cs),
(316,1611,o),
(92,1394,o),
(92,796,cs),
(92,208,o),
(316,-19,o),
(578,-19,cs)
);
},
{
closed = 1;
nodes = (
(822,1882,l),
(746,2020,l),
(506,1899,l),
(266,2020,l),
(190,1882,l),
(506,1719,l)
);
}
);
};
layerId = master01;
shapes = (
{
alignment = -1;
pos = (-5,0);
ref = C;
},
{
pos = (118,0);
ref = caroncomb.case;
}
);
width = 844;
}
);
unicode = 268;
},
{
glyphname = Ccedilla;
lastChange = "2022-11-10 14:30:49 +0000";
layers = (
{
background = {
anchors = (
{
name = bottom;
pos = (436,0);
},
{
name = top;
pos = (506,1593);
}
);
shapes = (
{
closed = 1;
nodes = (
(653,-19,o),
(713,-6,o),
(779,22,c),
(715,179,l),
(690,168,o),
(640,162,o),
(604,162,cs),
(433,162,o),
(284,335,o),
(284,796,cs),
(284,1257,o),
(433,1431,o),
(604,1431,cs),
(640,1431,o),
(710,1425,o),
(735,1414,c),
(779,1570,l),
(713,1598,o),
(653,1611,o),
(578,1611,cs),
(316,1611,o),
(92,1394,o),
(92,796,cs),
(92,208,o),
(316,-19,o),
(578,-19,cs)
);
},
{
closed = 1;
nodes = (
(543,-510,o),
(670,-399,o),
(670,-269,cs),
(670,-161,o),
(583,-100,o),
(489,-83,c),
(561,63,l),
(424,63,l),
(299,-216,l),
(329,-205,o),
(364,-199,o),
(394,-199,cs),
(464,-199,o),
(502,-231,o),
(502,-274,cs),
(502,-337,o),
(425,-384,o),
(302,-395,c),
(338,-531,l)
);
}
);
};
layerId = master01;
shapes = (
{
alignment = -1;
pos = (-5,0);
ref = C;
},
{
pos = (175,0);
ref = cedillacomb;
}
);
width = 844;
}
);
unicode = 199;
},
{
glyphname = Ccircumflex;
lastChange = "2022-11-10 14:36:25 +0000";
layers = (
{
background = {
anchors = (
{
name = bottom;
pos = (436,0);
},
{
name = top;
pos = (506,2020);
}
);
shapes = (
{
closed = 1;
nodes = (
(653,-19,o),
(713,-6,o),
(779,22,c),
(715,179,l),
(690,168,o),
(640,162,o),
(604,162,cs),
(433,162,o),
(284,335,o),
(284,796,cs),
(284,1257,o),
(433,1431,o),
(604,1431,cs),
(640,1431,o),
(710,1425,o),
(735,1414,c),
(779,1570,l),
(713,1598,o),
(653,1611,o),
(578,1611,cs),
(316,1611,o),
(92,1394,o),
(92,796,cs),
(92,208,o),
(316,-19,o),
(578,-19,cs)
);
},
{
closed = 1;
nodes = (
(506,1840,l),
(746,1719,l),
(822,1857,l),
(506,2020,l),
(190,1857,l),
(266,1719,l)
);
}
);
};
layerId = master01;
shapes = (
{
alignment = -1;
pos = (-5,0);
ref = C;
},
{
pos = (118,0);
ref = circumflexcomb.case;
}
);
width = 844;
}
);
unicode = 264;
},
{
glyphname = Cdotaccent;
lastChange = "2022-11-10 14:18:30 +0000";
layers = (
{
background = {
anchors = (
{
name = bottom;
pos = (436,0);
},
{
name = top;
pos = (436,1947);
}
);
shapes = (
{
closed = 1;
nodes = (
(653,-19,o),
(713,-6,o),
(779,22,c),
(715,179,l),
(690,168,o),
(640,162,o),
(604,162,cs),
(433,162,o),
(284,335,o),
(284,796,cs),
(284,1257,o),
(433,1431,o),
(604,1431,cs),
(640,1431,o),
(710,1425,o),
(735,1414,c),
(779,1570,l),
(713,1598,o),
(653,1611,o),
(578,1611,cs),
(316,1611,o),
(92,1394,o),
(92,796,cs),
(92,208,o),
(316,-19,o),
(578,-19,cs)
);
},
{
closed = 1;
nodes = (
(514,1699,o),
(565,1757,o),
(565,1823,cs),
(565,1889,o),
(514,1947,o),
(436,1947,cs),
(358,1947,o),
(307,1889,o),
(307,1823,cs),
(307,1757,o),
(358,1699,o),
(436,1699,cs)
);
}
);
};
layerId = master01;
shapes = (
{
alignment = -1;
pos = (-5,0);
ref = C;
},
{
alignment = -1;
pos = (181,0);
ref = dotaccentcomb.case;
}
);
width = 844;
}
);
unicode = 266;
},
{
glyphname = D;
lastChange = "2022-11-10 14:18:19 +0000";
layers = (
{
anchors = (
{
name = bottom;
pos = (550,-170);
},
{
name = top;
pos = (510,1593);
}
);
background = {
anchors = (
{
name = bottom;
pos = (550,-170);
},
{
name = top;
pos = (510,1593);
}
);
shapes = (
{
closed = 1;
nodes = (
(246,-15,o),
(309,-2,o),
(370,10,cs),
(740,82,o),
(921,386,o),
(921,806,cs),
(921,1229,o),
(712,1526,o),
(363,1590,cs),
(304,1601,o),
(243,1608,o),
(178,1611,c),
(178,-19,l)
);
},
{
closed = 1;
nodes = (
(368,1405,l),
(543,1371,o),
(727,1220,o),
(727,806,cs),
(727,386,o),
(543,231,o),
(368,187,c)
);
}
);
};
layerId = master01;
shapes = (
{
closed = 1;
nodes = (
(246,-15,o),
(309,-2,o),
(370,10,cs),
(740,82,o),
(921,386,o),
(921,806,cs),
(921,1229,o),
(712,1526,o),
(363,1590,cs),
(304,1601,o),
(243,1608,o),
(178,1611,c),
(178,-19,l)
);
},
{
closed = 1;
nodes = (
(368,1405,l),
(543,1371,o),
(727,1220,o),
(727,806,cs),
(727,386,o),
(543,231,o),
(368,187,c)
);
}
);
userData = {
com.typemytype.robofont.mark = (
0.967,
0.6,
1,
1
);
};
width = 986;
}
);
unicode = 68;
},
{
glyphname = Eth;
lastChange = "2022-11-10 14:18:30 +0000";
layers = (
{
background = {
anchors = (
{
name = bottom;
pos = (550,-170);
},
{
name = top;
pos = (510,1593);
}
);
shapes = (
{
closed = 1;
nodes = (
(522,716,l),
(522,884,l),
(66,884,l),
(66,716,l)
);
},
{
closed = 1;
nodes = (
(246,-15,o),
(309,-2,o),
(370,10,cs),
(740,82,o),
(921,386,o),
(921,806,cs),
(921,1229,o),
(712,1526,o),
(363,1590,cs),
(304,1601,o),
(243,1608,o),
(178,1611,c),
(178,-19,l)
);
},
{
closed = 1;
nodes = (
(368,1405,l),
(543,1371,o),
(727,1220,o),
(727,806,cs),
(727,386,o),
(543,231,o),
(368,187,c)
);
}
);
};
layerId = master01;
shapes = (
{
closed = 1;
nodes = (
(522,716,l),
(522,884,l),
(66,884,l),
(66,716,l)
);
},
{
ref = D;
}
);
width = 1017;
}
);
unicode = 208;
},
{
glyphname = Dcaron;
lastChange = "2022-11-10 14:18:30 +0000";
layers = (
{
background = {
anchors = (
{
name = bottom;
pos = (545,-170);
},
{
name = top;
pos = (505,2020);
}
);
shapes = (
{
closed = 1;
nodes = (
(241,-15,o),
(304,-2,o),
(365,10,cs),
(735,82,o),
(916,386,o),
(916,806,cs),
(916,1229,o),
(707,1526,o),
(358,1590,cs),
(299,1601,o),
(238,1608,o),
(173,1611,c),
(173,-19,l)
);
},
{
closed = 1;
nodes = (
(363,1405,l),
(538,1371,o),
(722,1220,o),
(722,806,cs),
(722,386,o),
(538,231,o),
(363,187,c)
);
},
{
closed = 1;
nodes = (
(821,1882,l),
(745,2020,l),
(505,1899,l),
(265,2020,l),
(189,1882,l),
(505,1719,l)
);
}
);
};
layerId = master01;
shapes = (
{
alignment = -1;
pos = (-5,0);
ref = D;
},
{
pos = (117,0);
ref = caroncomb.case;
}
);
width = 987;
}
);
unicode = 270;
},
{
glyphname = Dcroat;
lastChange = "2022-11-10 14:18:30 +0000";
layers = (
{
background = {
anchors = (
{
name = bottom;
pos = (545,-170);
},
{
name = top;
pos = (505,1593);
}
);
shapes = (
{
closed = 1;
nodes = (
(507,716,l),
(507,884,l),
(60,884,l),
(60,716,l)
);
},
{
closed = 1;
nodes = (
(241,-15,o),
(304,-2,o),
(365,10,cs),
(735,82,o),
(916,386,o),
(916,806,cs),
(916,1229,o),
(707,1526,o),
(358,1590,cs),
(299,1601,o),
(238,1608,o),
(173,1611,c),
(173,-19,l)
);
},
{
closed = 1;
nodes = (
(363,1405,l),
(538,1371,o),
(722,1220,o),
(722,806,cs),
(722,386,o),
(538,231,o),
(363,187,c)
);
}
);
};
layerId = master01;
shapes = (
{
closed = 1;
nodes = (
(507,716,l),
(507,884,l),
(60,884,l),
(60,716,l)
);
},
{
pos = (-5,0);
ref = D;
}
);
width = 987;
}
);
unicode = 272;
},
{
glyphname = Ddotaccent;
lastChange = "2022-11-10 14:18:30 +0000";
layers = (
{
background = {
anchors = (
{
name = bottom;
pos = (545,-170);
},
{
name = top;
pos = (505,1947);
}
);
shapes = (
{
closed = 1;
nodes = (
(241,-15,o),
(304,-2,o),
(365,10,cs),
(735,82,o),
(916,386,o),
(916,806,cs),
(916,1229,o),
(707,1526,o),
(358,1590,cs),
(299,1601,o),
(238,1608,o),
(173,1611,c),
(173,-19,l)
);
},
{
closed = 1;
nodes = (
(363,1405,l),
(538,1371,o),
(722,1220,o),
(722,806,cs),
(722,386,o),
(538,231,o),
(363,187,c)
);
},
{
closed = 1;
nodes = (
(583,1699,o),
(634,1757,o),
(634,1823,cs),
(634,1889,o),
(583,1947,o),
(505,1947,cs),
(427,1947,o),
(376,1889,o),
(376,1823,cs),
(376,1757,o),
(427,1699,o),
(505,1699,cs)
);
}
);
};
layerId = master01;
shapes = (
{
alignment = -1;
pos = (-5,0);
ref = D;
},
{
pos = (250,0);
ref = dotaccentcomb.case;
}
);
width = 987;
}
);
unicode = 7690;
},
{
glyphname = E;
lastChange = "2022-11-10 14:36:49 +0000";
layers = (
{
anchors = (
{
name = bottom;
pos = (432,0);
},
{
name = ogonek;
pos = (705,0);
},
{
name = top;
pos = (432,1593);
},
{
name = topleft;
pos = (0,1593);
}
);
background = {
anchors = (
{
name = bottom;
pos = (432,-170);
},
{
name = ogonek;
pos = (705,0);
},
{
name = top;
pos = (432,1593);
},
{
name = topleft;
pos = (0,1593);
}
);
shapes = (
{
closed = 1;
nodes = (
(705,0,l),
(705,176,l),
(348,176,l),
(348,629,l),
(654,629,l),
(654,805,l),
(348,805,l),
(348,1417,l),
(705,1417,l),
(705,1593,l),
(158,1593,l),
(158,0,l)
);
}
);
};
layerId = master01;
shapes = (
{
closed = 1;
nodes = (
(705,0,l),
(705,176,l),
(348,176,l),
(348,629,l),
(654,629,l),
(654,805,l),
(348,805,l),
(348,1417,l),
(705,1417,l),
(705,1593,l),
(158,1593,l),
(158,0,l)
);
}
);
userData = {
com.typemytype.robofont.mark = (
0.967,
0.6,
1,
1
);
};
width = 765;
}
);
metricLeft = H;
unicode = 69;
},
{
glyphname = Eacute;
lastChange = "2022-11-10 14:18:30 +0000";
layers = (
{
background = {
anchors = (
{
name = bottom;
pos = (427,-170);
},
{
name = ogonek;
pos = (700,0);
},
{
name = top;
pos = (394,2020);
},
{
name = topleft;
pos = (-5,1593);
}
);
shapes = (
{
closed = 1;
nodes = (
(700,0,l),
(700,176,l),
(343,176,l),
(343,629,l),
(649,629,l),
(649,805,l),
(343,805,l),
(343,1417,l),
(700,1417,l),
(700,1593,l),
(153,1593,l),
(153,0,l)
);
},
{
closed = 1;
nodes = (
(649,1867,l),
(582,2020,l),
(139,1825,l),
(207,1671,l)
);
}
);
};
layerId = master01;
shapes = (
{
alignment = -1;
pos = (-5,0);
ref = E;
},
{
alignment = -1;
pos = (87,0);
ref = acutecomb.case;
}
);
width = 825;
}
);
unicode = 201;
},
{
glyphname = Ebreve;
lastChange = "2022-11-10 14:18:30 +0000";
layers = (
{
background = {
anchors = (
{
name = bottom;
pos = (427,-170);
},
{
name = ogonek;
pos = (700,0);
},
{
name = top;
pos = (438,1989);
},
{
name = topleft;
pos = (-5,1593);
}
);
shapes = (
{
closed = 1;
nodes = (
(700,0,l),
(700,176,l),
(343,176,l),
(343,629,l),
(649,629,l),
(649,805,l),
(343,805,l),
(343,1417,l),
(700,1417,l),
(700,1593,l),
(153,1593,l),
(153,0,l)
);
},
{
closed = 1;
nodes = (
(657,1678,o),
(747,1838,o),
(734,1989,c),
(609,1989,l),
(577,1866,o),
(523,1833,o),
(438,1833,cs),
(353,1833,o),
(299,1866,o),
(267,1989,c),
(142,1989,l),
(129,1838,o),
(219,1678,o),
(438,1678,cs)
);
}
);
};
layerId = master01;
shapes = (
{
alignment = -1;
pos = (-5,0);
ref = E;
},
{
alignment = -1;
pos = (51,0);
ref = brevecomb.case;
}
);
width = 825;
}
);
unicode = 276;
},
{
glyphname = Ecaron;
lastChange = "2022-11-10 14:18:30 +0000";
layers = (
{
background = {
anchors = (
{
name = bottom;
pos = (427,-170);
},
{
name = ogonek;
pos = (700,0);
},
{
name = top;
pos = (438,2020);
},
{
name = topleft;
pos = (-5,1593);
}
);
shapes = (
{
closed = 1;
nodes = (
(700,0,l),
(700,176,l),
(343,176,l),
(343,629,l),
(649,629,l),
(649,805,l),
(343,805,l),
(343,1417,l),
(700,1417,l),
(700,1593,l),
(153,1593,l),
(153,0,l)
);
},
{
closed = 1;
nodes = (
(754,1882,l),
(678,2020,l),
(438,1899,l),
(198,2020,l),
(122,1882,l),
(438,1719,l)
);
}
);
};
layerId = master01;
shapes = (
{
alignment = -1;
pos = (-5,0);
ref = E;
},
{
alignment = -1;
pos = (50,0);
ref = caroncomb.case;
}
);
width = 825;
}
);
unicode = 282;
},
{
glyphname = Ecircumflex;
lastChange = "2022-11-10 14:18:30 +0000";
layers = (
{
background = {
anchors = (
{
name = bottom;
pos = (427,-170);
},
{
name = ogonek;
pos = (700,0);
},
{
name = top;
pos = (438,2020);
},
{
name = topleft;
pos = (-5,1593);
}
);
shapes = (
{
closed = 1;
nodes = (
(700,0,l),
(700,176,l),
(343,176,l),
(343,629,l),
(649,629,l),
(649,805,l),
(343,805,l),
(343,1417,l),
(700,1417,l),
(700,1593,l),
(153,1593,l),
(153,0,l)
);
},
{
closed = 1;
nodes = (
(438,1840,l),
(678,1719,l),
(754,1857,l),
(438,2020,l),
(122,1857,l),
(198,1719,l)
);
}
);
};
layerId = master01;
shapes = (
{
alignment = -1;
pos = (-5,0);
ref = E;
},
{
alignment = -1;
pos = (50,0);
ref = circumflexcomb.case;
}
);
width = 825;
}
);
unicode = 202;
},
{
glyphname = Ecircumflexacute;
lastChange = "2022-11-10 14:18:30 +0000";
layers = (
{
background = {
anchors = (
{
name = bottom;
pos = (432,-170);
},
{
name = ogonek;
pos = (705,0);
},
{
name = top;
pos = (432,2447);
},
{
name = topleft;
pos = (0,1593);
}
);
shapes = (
{
closed = 1;
nodes = (
(705,0,l),
(705,176,l),
(348,176,l),
(348,629,l),
(654,629,l),
(654,805,l),
(348,805,l),
(348,1417,l),
(705,1417,l),
(705,1593,l),
(158,1593,l),
(158,0,l)
);
},
{
closed = 1;
nodes = (
(432,1840,l),
(672,1719,l),
(748,1857,l),
(432,2020,l),
(116,1857,l),
(192,1719,l)
);
},
{
closed = 1;
nodes = (
(687,2294,l),
(620,2447,l),
(177,2252,l),
(245,2098,l)
);
}
);
};
layerId = master01;
shapes = (
{
ref = E;
},
{
pos = (44,0);
ref = circumflexcomb.case;
},
{
pos = (125,427);
ref = acutecomb.case;
}
);
width = 765;
}
);
unicode = 7870;
},
{
glyphname = Ecircumflexdotbelow;
lastChange = "2022-11-10 14:36:49 +0000";
layers = (
{
background = {
anchors = (
{
name = bottom;
pos = (432,-552);
},
{
name = ogonek;
pos = (705,0);
},
{
name = top;
pos = (432,2020);
},
{
name = topleft;
pos = (0,1593);
}
);
shapes = (
{
closed = 1;
nodes = (
(705,0,l),
(705,176,l),
(348,176,l),
(348,629,l),
(654,629,l),
(654,805,l),
(348,805,l),
(348,1417,l),
(705,1417,l),
(705,1593,l),
(158,1593,l),
(158,0,l)
);
},
{
closed = 1;
nodes = (
(510,-552,o),
(561,-494,o),
(561,-428,cs),
(561,-362,o),
(510,-304,o),
(432,-304,cs),
(354,-304,o),
(303,-362,o),
(303,-428,cs),
(303,-494,o),
(354,-552,o),
(432,-552,cs)
);
},
{
closed = 1;
nodes = (
(432,1840,l),
(672,1719,l),
(748,1857,l),
(432,2020,l),
(116,1857,l),
(192,1719,l)
);
}
);
};
layerId = master01;
shapes = (
{
ref = E;
},
{
pos = (177,0);
ref = dotbelowcomb.case;
},
{
pos = (44,0);
ref = circumflexcomb.case;
}
);
width = 765;
}
);
unicode = 7878;
},
{
glyphname = Ecircumflexgrave;
lastChange = "2022-11-10 14:18:30 +0000";
layers = (
{
background = {
anchors = (
{
name = bottom;
pos = (432,-170);
},
{
name = ogonek;
pos = (705,0);
},
{
name = top;
pos = (432,2447);
},
{
name = topleft;
pos = (0,1593);
}
);
shapes = (
{
closed = 1;
nodes = (
(705,0,l),
(705,176,l),
(348,176,l),
(348,629,l),
(654,629,l),
(654,805,l),
(348,805,l),
(348,1417,l),
(705,1417,l),
(705,1593,l),
(158,1593,l),
(158,0,l)
);
},
{
closed = 1;
nodes = (
(432,1840,l),
(672,1719,l),
(748,1857,l),
(432,2020,l),
(116,1857,l),
(192,1719,l)
);
},
{
closed = 1;
nodes = (
(687,2252,l),
(244,2447,l),
(177,2294,l),
(619,2098,l)
);
}
);
};
layerId = master01;
shapes = (
{
ref = E;
},
{
pos = (44,0);
ref = circumflexcomb.case;
},
{
pos = (125,427);
ref = gravecomb.case;
}
);
width = 765;
}
);
unicode = 7872;
},
{
glyphname = Ecircumflexhookabove;
lastChange = "2022-11-10 14:18:30 +0000";
layers = (
{
background = {
anchors = (
{
name = bottom;
pos = (432,-170);
},
{
name = ogonek;
pos = (705,0);
},
{
name = top;
pos = (432,2571);
},
{
name = topleft;
pos = (0,1593);
}
);
shapes = (
{
closed = 1;
nodes = (
(705,0,l),
(705,176,l),
(348,176,l),
(348,629,l),
(654,629,l),
(654,805,l),
(348,805,l),
(348,1417,l),
(705,1417,l),
(705,1593,l),
(158,1593,l),
(158,0,l)
);
},
{
closed = 1;
nodes = (
(432,1840,l),
(672,1719,l),
(748,1857,l),
(432,2020,l),
(116,1857,l),
(192,1719,l)
);
},
{
closed = 1;
nodes = (
(340,2239,l),
(410,2239,o),
(448,2271,o),
(448,2314,cs),
(448,2377,o),
(371,2424,o),
(248,2435,c),
(284,2571,l),
(489,2550,o),
(616,2439,o),
(616,2309,cs),
(616,2201,o),
(529,2140,o),
(340,2123,c)
);
}
);
};
layerId = master01;
shapes = (
{
ref = E;
},
{
pos = (44,0);
ref = circumflexcomb.case;
},
{
pos = (98,958);
ref = hookabovecomb.case;
}
);
width = 765;
}
);
unicode = 7874;
},
{
glyphname = Ecircumflextilde;
lastChange = "2022-11-10 14:18:30 +0000";
layers = (
{
background = {
anchors = (
{
name = bottom;
pos = (432,-170);
},
{
name = ogonek;
pos = (705,0);
},
{
name = top;
pos = (432,2386);
},
{
name = topleft;
pos = (0,1593);
}
);
shapes = (
{
closed = 1;
nodes = (
(705,0,l),
(705,176,l),
(348,176,l),
(348,629,l),
(654,629,l),
(654,805,l),
(348,805,l),
(348,1417,l),
(705,1417,l),
(705,1593,l),
(158,1593,l),
(158,0,l)
);
},
{
closed = 1;
nodes = (
(432,1840,l),
(672,1719,l),
(748,1857,l),
(432,2020,l),
(116,1857,l),
(192,1719,l)
);
},
{
closed = 1;
nodes = (
(227,2200,o),
(281,2220,o),
(319,2220,cs),
(393,2220,o),
(455,2144,o),
(558,2144,cs),
(634,2144,o),
(720,2219,o),
(760,2289,c),
(684,2386,l),
(637,2330,o),
(583,2310,o),
(545,2310,cs),
(471,2310,o),
(409,2386,o),
(306,2386,cs),
(230,2386,o),
(144,2311,o),
(104,2241,c),
(180,2144,l)
);
}
);
};
layerId = master01;
shapes = (
{
ref = E;
},
{
pos = (44,0);
ref = circumflexcomb.case;
},
{
pos = (4,427);
ref = tildecomb.case;
}
);
width = 765;
}
);
unicode = 7876;
},
{
glyphname = Edblgrave;
lastChange = "2022-11-10 14:18:30 +0000";
layers = (
{
background = {
anchors = (
{
name = bottom;
pos = (432,-170);
},
{
name = ogonek;
pos = (705,0);
},
{
name = top;
pos = (362,2132);
},
{
name = topleft;
pos = (0,1593);
}
);
shapes = (
{
closed = 1;
nodes = (
(705,0,l),
(705,176,l),
(348,176,l),
(348,629,l),
(654,629,l),
(654,805,l),
(348,805,l),
(348,1417,l),
(705,1417,l),
(705,1593,l),
(158,1593,l),
(158,0,l)
);
},
{
closed = 1;
nodes = (
(367,1810,l),
(68,2132,l),
(-31,2029,l),
(288,1727,l)
);
},
{
closed = 1;
nodes = (
(755,1810,l),
(476,2132,l),
(377,2029,l),
(676,1727,l)
);
}
);
};
layerId = master01;
shapes = (
{
ref = E;
},
{
pos = (-121,0);
ref = dblgravecomb.case;
}
);
width = 765;
}
);
unicode = 516;
},
{
glyphname = Edieresis;
lastChange = "2022-11-10 14:18:30 +0000";
layers = (
{
background = {
anchors = (
{
name = bottom;
pos = (427,-170);
},
{
name = ogonek;
pos = (700,0);
},
{
name = top;
pos = (427,1962);
},
{
name = topleft;
pos = (-5,1593);
}
);
shapes = (
{
closed = 1;
nodes = (
(700,0,l),
(700,176,l),
(343,176,l),
(343,629,l),
(649,629,l),
(649,805,l),
(343,805,l),
(343,1417,l),
(700,1417,l),
(700,1593,l),
(153,1593,l),
(153,0,l)
);
},
{
closed = 1;
nodes = (
(693,1714,o),
(744,1772,o),
(744,1838,cs),
(744,1904,o),
(693,1962,o),
(615,1962,cs),
(537,1962,o),
(486,1904,o),
(486,1838,cs),
(486,1772,o),
(537,1714,o),
(615,1714,cs)
);
},
{
closed = 1;
nodes = (
(317,1714,o),
(368,1772,o),
(368,1838,cs),
(368,1904,o),
(317,1962,o),
(239,1962,cs),
(161,1962,o),
(110,1904,o),
(110,1838,cs),
(110,1772,o),
(161,1714,o),
(239,1714,cs)
);
}
);
};
layerId = master01;
shapes = (
{
alignment = -1;
pos = (-5,0);
ref = E;
},
{
pos = (16,0);
ref = dieresiscomb.case;
}
);
width = 825;
}
);
unicode = 203;
},
{
glyphname = Edotaccent;
lastChange = "2022-11-10 14:18:30 +0000";
layers = (
{
background = {
anchors = (
{
name = bottom;
pos = (427,-170);
},
{
name = ogonek;
pos = (700,0);
},
{
name = top;
pos = (438,1947);
},
{
name = topleft;
pos = (-5,1593);
}
);
shapes = (
{
closed = 1;
nodes = (
(700,0,l),
(700,176,l),
(343,176,l),
(343,629,l),
(649,629,l),
(649,805,l),
(343,805,l),
(343,1417,l),
(700,1417,l),
(700,1593,l),
(153,1593,l),
(153,0,l)
);
},
{
closed = 1;
nodes = (
(516,1699,o),
(567,1757,o),
(567,1823,cs),
(567,1889,o),
(516,1947,o),
(438,1947,cs),
(360,1947,o),
(309,1889,o),
(309,1823,cs),
(309,1757,o),
(360,1699,o),
(438,1699,cs)
);
}
);
};
layerId = master01;
shapes = (
{
alignment = -1;
pos = (-5,0);
ref = E;
},
{
alignment = -1;
pos = (183,0);
ref = dotaccentcomb.case;
}
);
width = 825;
}
);
unicode = 278;
},
{
glyphname = Edotbelow;
lastChange = "2022-11-10 14:36:49 +0000";
layers = (
{
background = {
anchors = (
{
name = bottom;
pos = (432,-552);
},
{
name = ogonek;
pos = (705,0);
},
{
name = top;
pos = (432,1593);
},
{
name = topleft;
pos = (0,1593);
}
);
shapes = (
{
closed = 1;
nodes = (
(705,0,l),
(705,176,l),
(348,176,l),
(348,629,l),
(654,629,l),
(654,805,l),
(348,805,l),
(348,1417,l),
(705,1417,l),
(705,1593,l),
(158,1593,l),
(158,0,l)
);
},
{
closed = 1;
nodes = (
(510,-552,o),
(561,-494,o),
(561,-428,cs),
(561,-362,o),
(510,-304,o),
(432,-304,cs),
(354,-304,o),
(303,-362,o),
(303,-428,cs),
(303,-494,o),
(354,-552,o),
(432,-552,cs)
);
}
);
};
layerId = master01;
shapes = (
{
ref = E;
},
{
pos = (177,0);
ref = dotbelowcomb.case;
}
);
width = 765;
}
);
unicode = 7864;
},
{
glyphname = Egrave;
lastChange = "2022-11-10 14:18:30 +0000";
layers = (
{
background = {
anchors = (
{
name = bottom;
pos = (427,-170);
},
{
name = ogonek;
pos = (700,0);
},
{
name = top;
pos = (398,2020);
},
{
name = topleft;
pos = (-5,1593);
}
);
shapes = (
{
closed = 1;
nodes = (
(700,0,l),
(700,176,l),
(343,176,l),
(343,629,l),
(649,629,l),
(649,805,l),
(343,805,l),
(343,1417,l),
(700,1417,l),
(700,1593,l),
(153,1593,l),
(153,0,l)
);
},
{
closed = 1;
nodes = (
(653,1825,l),
(210,2020,l),
(143,1867,l),
(585,1671,l)
);
}
);
};
layerId = master01;
shapes = (
{
alignment = -1;
pos = (-5,0);
ref = E;
},
{
alignment = -1;
pos = (91,0);
ref = gravecomb.case;
}
);
width = 825;
}
);
unicode = 200;
},
{
glyphname = Ehookabove;
lastChange = "2022-11-10 14:18:30 +0000";
layers = (
{
background = {
anchors = (
{
name = bottom;
pos = (432,-170);
},
{
name = ogonek;
pos = (705,0);
},
{
name = top;
pos = (432,2144);
},
{
name = topleft;
pos = (0,1593);
}
);
shapes = (
{
closed = 1;
nodes = (
(705,0,l),
(705,176,l),
(348,176,l),
(348,629,l),
(654,629,l),
(654,805,l),
(348,805,l),
(348,1417,l),
(705,1417,l),
(705,1593,l),
(158,1593,l),
(158,0,l)
);
},
{
closed = 1;
nodes = (
(340,1812,l),
(410,1812,o),
(448,1844,o),
(448,1887,cs),
(448,1950,o),
(371,1997,o),
(248,2008,c),
(284,2144,l),
(489,2123,o),
(616,2012,o),
(616,1882,cs),
(616,1774,o),
(529,1713,o),
(340,1696,c)
);
}
);
};
layerId = master01;
shapes = (
{
ref = E;
},
{
pos = (98,531);
ref = hookabovecomb.case;
}
);
width = 765;
}
);
unicode = 7866;
},
{
glyphname = Einvertedbreve;
lastChange = "2022-11-10 14:18:30 +0000";
layers = (
{
background = {
anchors = (
{
name = bottom;
pos = (432,-170);
},
{
name = ogonek;
pos = (705,0);
},
{
name = top;
pos = (432,2038);
},
{
name = topleft;
pos = (0,1593);
}
);
shapes = (
{
closed = 1;
nodes = (
(705,0,l),
(705,176,l),
(348,176,l),
(348,629,l),
(654,629,l),
(654,805,l),
(348,805,l),
(348,1417,l),
(705,1417,l),
(705,1593,l),
(158,1593,l),
(158,0,l)
);
},
{
closed = 1;
nodes = (
(261,1717,l),
(293,1840,o),
(347,1883,o),
(432,1883,cs),
(517,1883,o),
(571,1840,o),
(603,1717,c),
(728,1717,l),
(741,1868,o),
(661,2038,o),
(432,2038,cs),
(203,2038,o),
(123,1868,o),
(136,1717,c)
);
}
);
};
layerId = master01;
shapes = (
{
ref = E;
},
{
pos = (45,0);
ref = breveinvertedcomb.case;
}
);
width = 765;
}
);
unicode = 518;
},
{
glyphname = Emacron;
lastChange = "2022-11-10 14:18:30 +0000";
layers = (
{
background = {
anchors = (
{
name = bottom;
pos = (427,-170);
},
{
name = ogonek;
pos = (700,0);
},
{
name = top;
pos = (438,1859);
},
{
name = topleft;
pos = (-5,1593);
}
);
shapes = (
{
closed = 1;
nodes = (
(700,0,l),
(700,176,l),
(343,176,l),
(343,629,l),
(649,629,l),
(649,805,l),
(343,805,l),
(343,1417,l),
(700,1417,l),
(700,1593,l),
(153,1593,l),
(153,0,l)
);
},
{
closed = 1;
nodes = (
(680,1701,l),
(679,1859,l),
(197,1859,l),
(196,1701,l)
);
}
);
};
layerId = master01;
shapes = (
{
alignment = -1;
pos = (-5,0);
ref = E;
},
{
alignment = -1;
pos = (31,0);
ref = macroncomb.case;
}
);
width = 825;
}
);
unicode = 274;
},
{
glyphname = Eogonek;
lastChange = "2022-11-10 14:18:19 +0000";
layers = (
{
background = {
shapes = (
{
closed = 1;
nodes = (
(725,0,l),
(725,176,l),
(368,176,l),
(368,629,l),
(674,629,l),
(674,805,l),
(368,805,l),
(368,1417,l),
(725,1417,l),
(725,1593,l),
(178,1593,l),
(178,0,l)
);
},
{
closed = 1;
nodes = (
(709,-365,l),
(584,-376,o),
(523,-316,o),
(513,-255,cs),
(493,-132,o),
(644,-25,o),
(725,0,c),
(647,67,l),
(566,45,l),
(386,-34,o),
(290,-170,o),
(315,-308,cs),
(344,-464,o),
(500,-534,o),
(708,-506,c)
);
}
);
};
layerId = master01;
shapes = (
{
closed = 1;
nodes = (
(725,0,l),
(725,176,l),
(368,176,l),
(368,629,l),
(674,629,l),
(674,805,l),
(368,805,l),
(368,1417,l),
(725,1417,l),
(725,1593,l),
(178,1593,l),
(178,0,l)
);
},
{
closed = 1;
nodes = (
(709,-365,l),
(584,-376,o),
(523,-316,o),
(513,-255,cs),
(493,-132,o),
(644,-25,o),
(725,0,c),
(647,67,l),
(566,45,l),
(386,-34,o),
(290,-170,o),
(315,-308,cs),
(344,-464,o),
(500,-534,o),
(708,-506,c)
);
}
);
width = 851;
}
);
unicode = 280;
},
{
glyphname = Etilde;
lastChange = "2022-11-10 14:18:30 +0000";
layers = (
{
background = {
anchors = (
{
name = bottom;
pos = (432,-170);
},
{
name = ogonek;
pos = (705,0);
},
{
name = top;
pos = (432,1959);
},
{
name = topleft;
pos = (0,1593);
}
);
shapes = (
{
closed = 1;
nodes = (
(705,0,l),
(705,176,l),
(348,176,l),
(348,629,l),
(654,629,l),
(654,805,l),
(348,805,l),
(348,1417,l),
(705,1417,l),
(705,1593,l),
(158,1593,l),
(158,0,l)
);
},
{
closed = 1;
nodes = (
(227,1773,o),
(281,1793,o),
(319,1793,cs),
(393,1793,o),
(455,1717,o),
(558,1717,cs),
(634,1717,o),
(720,1792,o),
(760,1862,c),
(684,1959,l),
(637,1903,o),
(583,1883,o),
(545,1883,cs),
(471,1883,o),
(409,1959,o),
(306,1959,cs),
(230,1959,o),
(144,1884,o),
(104,1814,c),
(180,1717,l)
);
}
);
};
layerId = master01;
shapes = (
{
ref = E;
},
{
pos = (4,0);
ref = tildecomb.case;
}
);
width = 765;
}
);
unicode = 7868;
},
{
glyphname = Schwa;
lastChange = "2022-11-10 14:18:19 +0000";
layers = (
{
background = {
shapes = (
{
closed = 1;
nodes = (
(734,-18,o),
(982,136,o),
(982,826,cs),
(982,1327,o),
(744,1611,o),
(424,1611,cs),
(344,1611,o),
(283,1598,o),
(202,1570,c),
(267,1392,l),
(324,1423,o),
(379,1429,o),
(420,1429,cs),
(615,1429,o),
(788,1217,o),
(788,824,cs),
(788,811,l),
(64,811,l),
(64,643,l),
(107,121,o),
(320,-18,o),
(525,-18,cs)
);
},
{
closed = 1;
nodes = (
(394,166,o),
(280,279,o),
(255,643,c),
(780,643,l),
(744,276,o),
(653,166,o),
(525,166,cs)
);
}
);
};
layerId = master01;
shapes = (
{
closed = 1;
nodes = (
(734,-18,o),
(982,136,o),
(982,826,cs),
(982,1327,o),
(744,1611,o),
(424,1611,cs),
(344,1611,o),
(283,1598,o),
(202,1570,c),
(267,1392,l),
(324,1423,o),
(379,1429,o),
(420,1429,cs),
(615,1429,o),
(788,1217,o),
(788,824,cs),
(788,811,l),
(64,811,l),
(64,643,l),
(107,121,o),
(320,-18,o),
(525,-18,cs)
);
},
{
closed = 1;
nodes = (
(394,166,o),
(280,279,o),
(255,643,c),
(780,643,l),
(744,276,o),
(653,166,o),
(525,166,cs)
);
}
);
width = 1080;
}
);
metricLeft = "=|G";
metricRight = O;
unicode = 399;
},
{
glyphname = F;
lastChange = "2022-11-10 14:18:19 +0000";
layers = (
{
anchors = (
{
name = bottom;
pos = (456,-170);
},
{
name = top;
pos = (456,1700);
}
);
background = {
anchors = (
{
name = bottom;
pos = (456,-170);
},
{
name = top;
pos = (456,1700);
}
);
shapes = (
{
closed = 1;
nodes = (
(368,0,l),
(368,567,l),
(682,567,l),
(682,743,l),
(368,743,l),
(368,1417,l),
(733,1417,l),
(733,1593,l),
(178,1594,l),
(178,0,l)
);
}
);
};
layerId = master01;
shapes = (
{
closed = 1;
nodes = (
(368,0,l),
(368,567,l),
(682,567,l),
(682,743,l),
(368,743,l),
(368,1417,l),
(733,1417,l),
(733,1593,l),
(178,1594,l),
(178,0,l)
);
}
);
userData = {
com.typemytype.robofont.mark = (
0.967,
0.6,
1,
1
);
};
width = 772;
}
);
unicode = 70;
},
{
glyphname = Fdotaccent;
lastChange = "2022-11-10 14:18:30 +0000";
layers = (
{
background = {
anchors = (
{
name = bottom;
pos = (451,-170);
},
{
name = top;
pos = (442,1947);
}
);
shapes = (
{
closed = 1;
nodes = (
(363,0,l),
(363,567,l),
(677,567,l),
(677,743,l),
(363,743,l),
(363,1417,l),
(728,1417,l),
(728,1593,l),
(173,1594,l),
(173,0,l)
);
},
{
closed = 1;
nodes = (
(520,1699,o),
(571,1757,o),
(571,1823,cs),
(571,1889,o),
(520,1947,o),
(442,1947,cs),
(364,1947,o),
(313,1889,o),
(313,1823,cs),
(313,1757,o),
(364,1699,o),
(442,1699,cs)
);
}
);
};
layerId = master01;
shapes = (
{
alignment = -1;
pos = (-5,0);
ref = F;
},
{
alignment = -1;
pos = (187,0);
ref = dotaccentcomb.case;
}
);
width = 805;
}
);
unicode = 7710;
},
{
glyphname = G;
lastChange = "2022-11-10 14:37:03 +0000";
layers = (
{
anchors = (
{
name = bottom;
pos = (521,0);
},
{
name = top;
pos = (575,1593);
}
);
background = {
anchors = (
{
name = bottom;
pos = (471,-170);
},
{
name = top;
pos = (575,1593);
}
);
shapes = (
{
closed = 1;
nodes = (
(679,161,l),
(453,201,o),
(290,365,o),
(290,824,cs),
(290,1217,o),
(463,1429,o),
(658,1429,cs),
(699,1429,o),
(754,1423,o),
(791,1412,c),
(876,1570,l),
(795,1598,o),
(734,1611,o),
(654,1611,cs),
(334,1611,o),
(96,1327,o),
(96,826,cs),
(96,211,o),
(424,-35,o),
(868,-18,c)
);
},
{
closed = 1;
nodes = (
(868,643,l),
(869,643,l),
(869,811,l),
(592,811,l),
(592,643,l),
(679,643,l),
(679,110,l),
(868,-18,l)
);
}
);
};
layerId = master01;
shapes = (
{
closed = 1;
nodes = (
(679,161,l),
(453,201,o),
(290,365,o),
(290,824,cs),
(290,1217,o),
(463,1429,o),
(658,1429,cs),
(699,1429,o),
(754,1423,o),
(791,1412,c),
(876,1570,l),
(795,1598,o),
(734,1611,o),
(654,1611,cs),
(334,1611,o),
(96,1327,o),
(96,826,cs),
(96,211,o),
(424,-35,o),
(868,-18,c)
);
},
{
closed = 1;
nodes = (
(868,643,l),
(869,643,l),
(869,811,l),
(592,811,l),
(592,643,l),
(679,643,l),
(679,110,l),
(868,-18,l)
);
}
);
userData = {
com.typemytype.robofont.mark = (
0.967,
0.6,
1,
1
);
};
width = 940;
}
);
unicode = 71;
},
{
glyphname = Gacute;
lastChange = "2022-11-10 14:18:30 +0000";
layers = (
{
background = {
anchors = (
{
name = bottom;
pos = (471,-170);
},
{
name = top;
pos = (575,2020);
}
);
shapes = (
{
closed = 1;
nodes = (
(679,161,l),
(453,201,o),
(290,365,o),
(290,824,cs),
(290,1217,o),
(463,1429,o),
(658,1429,cs),
(699,1429,o),
(754,1423,o),
(791,1412,c),
(876,1570,l),
(795,1598,o),
(734,1611,o),
(654,1611,cs),
(334,1611,o),
(96,1327,o),
(96,826,cs),
(96,211,o),
(424,-35,o),
(868,-18,c)
);
},
{
closed = 1;
nodes = (
(868,643,l),
(869,643,l),
(869,811,l),
(592,811,l),
(592,643,l),
(679,643,l),
(679,110,l),
(868,-18,l)
);
},
{
closed = 1;
nodes = (
(830,1867,l),
(763,2020,l),
(320,1825,l),
(388,1671,l)
);
}
);
};
layerId = master01;
shapes = (
{
ref = G;
},
{
pos = (268,0);
ref = acutecomb.case;
}
);
width = 940;
}
);
unicode = 500;
},
{
glyphname = Gbreve;
lastChange = "2022-11-10 14:18:30 +0000";
layers = (
{
background = {
anchors = (
{
name = bottom;
pos = (466,-170);
},
{
name = top;
pos = (570,1989);
}
);
shapes = (
{
closed = 1;
nodes = (
(674,161,l),
(448,201,o),
(285,365,o),
(285,824,cs),
(285,1217,o),
(458,1429,o),
(653,1429,cs),
(694,1429,o),
(749,1423,o),
(786,1412,c),
(871,1570,l),
(790,1598,o),
(729,1611,o),
(649,1611,cs),
(329,1611,o),
(91,1327,o),
(91,826,cs),
(91,211,o),
(419,-35,o),
(863,-18,c)
);
},
{
closed = 1;
nodes = (
(863,643,l),
(864,643,l),
(864,811,l),
(587,811,l),
(587,643,l),
(674,643,l),
(674,110,l),
(863,-18,l)
);
},
{
closed = 1;
nodes = (
(789,1678,o),
(879,1838,o),
(866,1989,c),
(741,1989,l),
(709,1866,o),
(655,1833,o),
(570,1833,cs),
(485,1833,o),
(431,1866,o),
(399,1989,c),
(274,1989,l),
(261,1838,o),
(351,1678,o),
(570,1678,cs)
);
}
);
};
layerId = master01;
shapes = (
{
alignment = -1;
pos = (-5,0);
ref = G;
},
{
pos = (183,0);
ref = brevecomb.case;
}
);
width = 945;
}
);
unicode = 286;
},
{
glyphname = Gcaron;
lastChange = "2022-11-10 14:18:30 +0000";
layers = (
{
background = {
anchors = (
{
name = bottom;
pos = (471,-170);
},
{
name = top;
pos = (575,2020);
}
);
shapes = (
{
closed = 1;
nodes = (
(679,161,l),
(453,201,o),
(290,365,o),
(290,824,cs),
(290,1217,o),
(463,1429,o),
(658,1429,cs),
(699,1429,o),
(754,1423,o),
(791,1412,c),
(876,1570,l),
(795,1598,o),
(734,1611,o),
(654,1611,cs),
(334,1611,o),
(96,1327,o),
(96,826,cs),
(96,211,o),
(424,-35,o),
(868,-18,c)
);
},
{
closed = 1;
nodes = (
(868,643,l),
(869,643,l),
(869,811,l),
(592,811,l),
(592,643,l),
(679,643,l),
(679,110,l),
(868,-18,l)
);
},
{
closed = 1;
nodes = (
(891,1882,l),
(815,2020,l),
(575,1899,l),
(335,2020,l),
(259,1882,l),
(575,1719,l)
);
}
);
};
layerId = master01;
shapes = (
{
ref = G;
},
{
pos = (187,0);
ref = caroncomb.case;
}
);
width = 940;
}
);
unicode = 486;
},
{
glyphname = Gcircumflex;
lastChange = "2022-11-10 14:18:30 +0000";
layers = (
{
background = {
anchors = (
{
name = bottom;
pos = (466,-170);
},
{
name = top;
pos = (570,2020);
}
);
shapes = (
{
closed = 1;
nodes = (
(674,161,l),
(448,201,o),
(285,365,o),
(285,824,cs),
(285,1217,o),
(458,1429,o),
(653,1429,cs),
(694,1429,o),
(749,1423,o),
(786,1412,c),
(871,1570,l),
(790,1598,o),
(729,1611,o),
(649,1611,cs),
(329,1611,o),
(91,1327,o),
(91,826,cs),
(91,211,o),
(419,-35,o),
(863,-18,c)
);
},
{
closed = 1;
nodes = (
(863,643,l),
(864,643,l),
(864,811,l),
(587,811,l),
(587,643,l),
(674,643,l),
(674,110,l),
(863,-18,l)
);
},
{
closed = 1;
nodes = (
(570,1840,l),
(810,1719,l),
(886,1857,l),
(570,2020,l),
(254,1857,l),
(330,1719,l)
);
}
);
};
layerId = master01;
shapes = (
{
alignment = -1;
pos = (-5,0);
ref = G;
},
{
pos = (182,0);
ref = circumflexcomb.case;
}
);
width = 945;
}
);
unicode = 284;
},
{
glyphname = Gcommaaccent;
lastChange = "2022-11-10 14:37:03 +0000";
layers = (
{
background = {
anchors = (
{
name = bottom;
pos = (471,-673);
},
{
name = top;
pos = (575,1593);
}
);
shapes = (
{
closed = 1;
nodes = (
(679,161,l),
(453,201,o),
(290,365,o),
(290,824,cs),
(290,1217,o),
(463,1429,o),
(658,1429,cs),
(699,1429,o),
(754,1423,o),
(791,1412,c),
(876,1570,l),
(795,1598,o),
(734,1611,o),
(654,1611,cs),
(334,1611,o),
(96,1327,o),
(96,826,cs),
(96,211,o),
(424,-35,o),
(868,-18,c)
);
},
{
closed = 1;
nodes = (
(868,643,l),
(869,643,l),
(869,811,l),
(592,811,l),
(592,643,l),
(679,643,l),
(679,110,l),
(868,-18,l)
);
},
{
closed = 1;
nodes = (
(541,-563,o),
(600,-468,o),
(600,-385,c),
(600,-296,o),
(538,-251,o),
(467,-251,cs),
(391,-251,o),
(342,-301,o),
(342,-358,cs),
(342,-410,o),
(386,-457,o),
(454,-463,c),
(442,-505,o),
(393,-563,o),
(342,-606,c),
(421,-673,l)
);
}
);
};
layerId = master01;
shapes = (
{
ref = G;
},
{
pos = (298,0);
ref = commaaccentcomb.case;
}
);
width = 940;
}
);
unicode = 290;
},
{
glyphname = Gdotaccent;
lastChange = "2022-11-10 14:18:30 +0000";
layers = (
{
background = {
anchors = (
{
name = bottom;
pos = (466,-170);
},
{
name = top;
pos = (457,1947);
}
);
shapes = (
{
closed = 1;
nodes = (
(674,161,l),
(448,201,o),
(285,365,o),
(285,824,cs),
(285,1217,o),
(458,1429,o),
(653,1429,cs),
(694,1429,o),
(749,1423,o),
(786,1412,c),
(871,1570,l),
(790,1598,o),
(729,1611,o),
(649,1611,cs),
(329,1611,o),
(91,1327,o),
(91,826,cs),
(91,211,o),
(419,-35,o),
(863,-18,c)
);
},
{
closed = 1;
nodes = (
(863,643,l),
(864,643,l),
(864,811,l),
(587,811,l),
(587,643,l),
(674,643,l),
(674,110,l),
(863,-18,l)
);
},
{
closed = 1;
nodes = (
(535,1699,o),
(586,1757,o),
(586,1823,cs),
(586,1889,o),
(535,1947,o),
(457,1947,cs),
(379,1947,o),
(328,1889,o),
(328,1823,cs),
(328,1757,o),
(379,1699,o),
(457,1699,cs)
);
}
);
};
layerId = master01;
shapes = (
{
alignment = -1;
pos = (-5,0);
ref = G;
},
{
alignment = -1;
pos = (202,0);
ref = dotaccentcomb.case;
}
);
width = 945;
}
);
unicode = 288;
},
{
glyphname = Gmacron;
lastChange = "2022-11-10 14:18:30 +0000";
layers = (
{
background = {
anchors = (
{
name = bottom;
pos = (471,-170);
},
{
name = top;
pos = (575,1859);
}
);
shapes = (
{
closed = 1;
nodes = (
(679,161,l),
(453,201,o),
(290,365,o),
(290,824,cs),
(290,1217,o),
(463,1429,o),
(658,1429,cs),
(699,1429,o),
(754,1423,o),
(791,1412,c),
(876,1570,l),
(795,1598,o),
(734,1611,o),
(654,1611,cs),
(334,1611,o),
(96,1327,o),
(96,826,cs),
(96,211,o),
(424,-35,o),
(868,-18,c)
);
},
{
closed = 1;
nodes = (
(868,643,l),
(869,643,l),
(869,811,l),
(592,811,l),
(592,643,l),
(679,643,l),
(679,110,l),
(868,-18,l)
);
},
{
closed = 1;
nodes = (
(817,1701,l),
(816,1859,l),
(334,1859,l),
(333,1701,l)
);
}
);
};
layerId = master01;
shapes = (
{
ref = G;
},
{
pos = (168,0);
ref = macroncomb.case;
}
);
width = 940;
}
);
unicode = 7712;
},
{
glyphname = H;
lastChange = "2022-11-10 14:43:20 +0000";
layers = (
{
anchors = (
{
name = bottom;
pos = (527,0);
},
{
name = center;
pos = (527,797);
},
{
name = top;
pos = (527,1593);
},
{
name = topleft;
pos = (20,1593);
}
);
background = {
anchors = (
{
name = bottom;
pos = (527,-170);
},
{
name = center;
pos = (527,797);
},
{
name = top;
pos = (527,1593);
},
{
name = topleft;
pos = (20,1593);
}
);
shapes = (
{
closed = 1;
nodes = (
(348,0,l),
(348,533,l),
(706,533,l),
(706,0,l),
(896,0,l),
(896,1593,l),
(706,1593,l),
(706,709,l),
(348,709,l),
(348,1593,l),
(158,1593,l),
(158,0,l)
);
}
);
};
layerId = master01;
shapes = (
{
closed = 1;
nodes = (
(348,0,l),
(348,533,l),
(706,533,l),
(706,0,l),
(896,0,l),
(896,1593,l),
(706,1593,l),
(706,709,l),
(348,709,l),
(348,1593,l),
(158,1593,l),
(158,0,l)
);
}
);
userData = {
com.typemytype.robofont.mark = (
0.656,
1,
0.6,
1
);
};
width = 1054;
}
);
metricRight = "=|";
unicode = 72;
},
{
glyphname = Hbar;
lastChange = "2022-11-10 14:18:30 +0000";
layers = (
{
background = {
anchors = (
{
name = bottom;
pos = (547,-170);
},
{
name = center;
pos = (547,797);
},
{
name = top;
pos = (547,1593);
},
{
name = topleft;
pos = (40,1593);
}
);
shapes = (
{
closed = 1;
nodes = (
(1045,851,l),
(1045,1019,l),
(44,1019,l),
(44,851,l)
);
},
{
closed = 1;
nodes = (
(368,0,l),
(368,533,l),
(726,533,l),
(726,0,l),
(916,0,l),
(916,1593,l),
(726,1593,l),
(726,709,l),
(368,709,l),
(368,1593,l),
(178,1593,l),
(178,0,l)
);
}
);
};
layerId = master01;
shapes = (
{
closed = 1;
nodes = (
(1045,851,l),
(1045,1019,l),
(44,1019,l),
(44,851,l)
);
},
{
pos = (20,0);
ref = H;
}
);
width = 1094;
}
);
unicode = 294;
},
{
glyphname = Hcircumflex;
lastChange = "2022-11-10 14:18:30 +0000";
layers = (
{
background = {
anchors = (
{
name = bottom;
pos = (542,-170);
},
{
name = center;
pos = (542,797);
},
{
name = top;
pos = (542,2020);
},
{
name = topleft;
pos = (35,1593);
}
);
shapes = (
{
closed = 1;
nodes = (
(363,0,l),
(363,533,l),
(721,533,l),
(721,0,l),
(911,0,l),
(911,1593,l),
(721,1593,l),
(721,709,l),
(363,709,l),
(363,1593,l),
(173,1593,l),
(173,0,l)
);
},
{
closed = 1;
nodes = (
(542,1840,l),
(782,1719,l),
(858,1857,l),
(542,2020,l),
(226,1857,l),
(302,1719,l)
);
}
);
};
layerId = master01;
shapes = (
{
alignment = -1;
pos = (15,0);
ref = H;
},
{
pos = (154,0);
ref = circumflexcomb.case;
}
);
width = 1063;
}
);
unicode = 292;
},
{
glyphname = Hdotbelow;
lastChange = "2022-11-10 14:43:20 +0000";
layers = (
{
background = {
anchors = (
{
name = bottom;
pos = (527,-552);
},
{
name = center;
pos = (527,797);
},
{
name = top;
pos = (527,1593);
},
{
name = topleft;
pos = (20,1593);
}
);
shapes = (
{
closed = 1;
nodes = (
(348,0,l),
(348,533,l),
(706,533,l),
(706,0,l),
(896,0,l),
(896,1593,l),
(706,1593,l),
(706,709,l),
(348,709,l),
(348,1593,l),
(158,1593,l),
(158,0,l)
);
},
{
closed = 1;
nodes = (
(605,-552,o),
(656,-494,o),
(656,-428,cs),
(656,-362,o),
(605,-304,o),
(527,-304,cs),
(449,-304,o),
(398,-362,o),
(398,-428,cs),
(398,-494,o),
(449,-552,o),
(527,-552,cs)
);
}
);
};
layerId = master01;
shapes = (
{
ref = H;
},
{
pos = (272,0);
ref = dotbelowcomb.case;
}
);
width = 1054;
}
);
unicode = 7716;
},
{
glyphname = I;
lastChange = "2022-11-10 14:18:19 +0000";
layers = (
{
anchors = (
{
name = bottom;
pos = (253,0);
},
{
name = top;
pos = (253,1593);
}
);
background = {
anchors = (
{
name = bottom;
pos = (253,0);
},
{
name = top;
pos = (253,1593);
}
);
shapes = (
{
closed = 1;
nodes = (
(348,0,l),
(348,1593,l),
(158,1593,l),
(158,0,l)
);
}
);
};
layerId = master01;
shapes = (
{
closed = 1;
nodes = (
(348,0,l),
(348,1593,l),
(158,1593,l),
(158,0,l)
);
}
);
width = 506;
}
);
unicode = 73;
},
{
glyphname = IJ;
lastChange = "2022-11-10 14:18:19 +0000";
layers = (
{
background = {
shapes = (
{
closed = 1;
nodes = (
(579,80,o),
(841,322,o),
(841,798,cs),
(841,1593,l),
(655,1593,l),
(655,797,ls),
(655,503,o),
(530,284,o),
(171,156,c),
(171,-18,l)
);
},
{
closed = 1;
nodes = (
(356,480,l),
(356,1593,l),
(170,1593,l),
(170,480,l)
);
}
);
};
layerId = master01;
shapes = (
{
closed = 1;
nodes = (
(579,80,o),
(841,322,o),
(841,798,cs),
(841,1593,l),
(655,1593,l),
(655,797,ls),
(655,503,o),
(530,284,o),
(171,156,c),
(171,-18,l)
);
},
{
closed = 1;
nodes = (
(356,480,l),
(356,1593,l),
(170,1593,l),
(170,480,l)
);
}
);
userData = {
com.typemytype.robofont.guides = (
{
angle = 90;
isGlobal = 0;
magnetic = 5;
x = 170;
y = 0;
}
);
};
width = 1011;
}
);
unicode = 306;
},
{
glyphname = Iacute;
lastChange = "2022-11-10 14:18:30 +0000";
layers = (
{
background = {
anchors = (
{
name = bottom;
pos = (268,0);
},
{
name = top;
pos = (219,2020);
}
);
shapes = (
{
closed = 1;
nodes = (
(363,0,l),
(363,1593,l),
(173,1593,l),
(173,0,l)
);
},
{
closed = 1;
nodes = (
(474,1867,l),
(407,2020,l),
(-36,1825,l),
(32,1671,l)
);
}
);
};
layerId = master01;
shapes = (
{
alignment = -1;
pos = (15,0);
ref = I;
},
{
alignment = -1;
pos = (-88,0);
ref = acutecomb.case;
}
);
width = 526;
}
);
unicode = 205;
},
{
glyphname = Ibreve;
lastChange = "2022-11-10 14:18:30 +0000";
layers = (
{
background = {
anchors = (
{
name = bottom;
pos = (268,0);
},
{
name = top;
pos = (263,1989);
}
);
shapes = (
{
closed = 1;
nodes = (
(363,0,l),
(363,1593,l),
(173,1593,l),
(173,0,l)
);
},
{
closed = 1;
nodes = (
(482,1678,o),
(572,1838,o),
(559,1989,c),
(434,1989,l),
(402,1866,o),
(348,1833,o),
(263,1833,cs),
(178,1833,o),
(124,1866,o),
(92,1989,c),
(-33,1989,l),
(-46,1838,o),
(44,1678,o),
(263,1678,cs)
);
}
);
};
layerId = master01;
shapes = (
{
alignment = -1;
pos = (15,0);
ref = I;
},
{
alignment = -1;
pos = (-124,0);
ref = brevecomb.case;
}
);
width = 526;
}
);
unicode = 300;
},
{
glyphname = Icircumflex;
lastChange = "2022-11-10 14:18:30 +0000";
layers = (
{
background = {
anchors = (
{
name = bottom;
pos = (268,0);
},
{
name = top;
pos = (263,2020);
}
);
shapes = (
{
closed = 1;
nodes = (
(363,0,l),
(363,1593,l),
(173,1593,l),
(173,0,l)
);
},
{
closed = 1;
nodes = (
(263,1840,l),
(503,1719,l),
(579,1857,l),
(263,2020,l),
(-53,1857,l),
(23,1719,l)
);
}
);
};
layerId = master01;
shapes = (
{
alignment = -1;
pos = (15,0);
ref = I;
},
{
alignment = -1;
pos = (-125,0);
ref = circumflexcomb.case;
}
);
width = 526;
}
);
unicode = 206;
},
{
glyphname = Idblgrave;
lastChange = "2022-11-10 14:18:30 +0000";
layers = (
{
background = {
anchors = (
{
name = bottom;
pos = (253,0);
},
{
name = top;
pos = (183,2132);
}
);
shapes = (
{
closed = 1;
nodes = (
(348,0,l),
(348,1593,l),
(158,1593,l),
(158,0,l)
);
},
{
closed = 1;
nodes = (
(188,1810,l),
(-111,2132,l),
(-210,2029,l),
(109,1727,l)
);
},
{
closed = 1;
nodes = (
(576,1810,l),
(297,2132,l),
(198,2029,l),
(497,1727,l)
);
}
);
};
layerId = master01;
shapes = (
{
ref = I;
},
{
pos = (-300,0);
ref = dblgravecomb.case;
}
);
width = 506;
}
);
unicode = 520;
},
{
glyphname = Idieresis;
lastChange = "2022-11-10 14:18:30 +0000";
layers = (
{
background = {
anchors = (
{
name = bottom;
pos = (268,0);
},
{
name = top;
pos = (268,1962);
}
);
shapes = (
{
closed = 1;
nodes = (
(363,0,l),
(363,1593,l),
(173,1593,l),
(173,0,l)
);
},
{
closed = 1;
nodes = (
(534,1714,o),
(585,1772,o),
(585,1838,cs),
(585,1904,o),
(534,1962,o),
(456,1962,cs),
(378,1962,o),
(327,1904,o),
(327,1838,cs),
(327,1772,o),
(378,1714,o),
(456,1714,cs)
);
},
{
closed = 1;
nodes = (
(158,1714,o),
(209,1772,o),
(209,1838,cs),
(209,1904,o),
(158,1962,o),
(80,1962,cs),
(2,1962,o),
(-49,1904,o),
(-49,1838,cs),
(-49,1772,o),
(2,1714,o),
(80,1714,cs)
);
}
);
};
layerId = master01;
shapes = (
{
alignment = -1;
pos = (15,0);
ref = I;
},
{
pos = (-143,0);
ref = dieresiscomb.case;
}
);
width = 526;
}
);
unicode = 207;
},
{
glyphname = Idotaccent;
lastChange = "2022-11-10 14:18:30 +0000";
layers = (
{
background = {
anchors = (
{
name = bottom;
pos = (268,0);
},
{
name = top;
pos = (263,1947);
}
);
shapes = (
{
closed = 1;
nodes = (
(363,0,l),
(363,1593,l),
(173,1593,l),
(173,0,l)
);
},
{
closed = 1;
nodes = (
(341,1699,o),
(392,1757,o),
(392,1823,cs),
(392,1889,o),
(341,1947,o),
(263,1947,cs),
(185,1947,o),
(134,1889,o),
(134,1823,cs),
(134,1757,o),
(185,1699,o),
(263,1699,cs)
);
}
);
};
layerId = master01;
shapes = (
{
alignment = -1;
pos = (15,0);
ref = I;
},
{
alignment = -1;
pos = (8,0);
ref = dotaccentcomb.case;
}
);
width = 526;
}
);
unicode = 304;
},
{
glyphname = Idotbelow;
lastChange = "2022-11-10 14:18:30 +0000";
layers = (
{
background = {
anchors = (
{
name = bottom;
pos = (253,-382);
},
{
name = top;
pos = (253,1593);
}
);
shapes = (
{
closed = 1;
nodes = (
(348,0,l),
(348,1593,l),
(158,1593,l),
(158,0,l)
);
},
{
closed = 1;
nodes = (
(331,-382,o),
(382,-324,o),
(382,-258,cs),
(382,-192,o),
(331,-134,o),
(253,-134,cs),
(175,-134,o),
(124,-192,o),
(124,-258,cs),
(124,-324,o),
(175,-382,o),
(253,-382,cs)
);
}
);
};
layerId = master01;
shapes = (
{
ref = I;
},
{
pos = (-2,0);
ref = dotbelowcomb.case;
}
);
width = 506;
}
);
unicode = 7882;
},
{
glyphname = Igrave;
lastChange = "2022-11-10 14:18:30 +0000";
layers = (
{
background = {
anchors = (
{
name = bottom;
pos = (268,0);
},
{
name = top;
pos = (268,2020);
}
);
shapes = (
{
closed = 1;
nodes = (
(363,0,l),
(363,1593,l),
(173,1593,l),
(173,0,l)
);
},
{
closed = 1;
nodes = (
(523,1825,l),
(80,2020,l),
(13,1867,l),
(455,1671,l)
);
}
);
};
layerId = master01;
shapes = (
{
alignment = -1;
pos = (15,0);
ref = I;
},
{
pos = (-39,0);
ref = gravecomb.case;
}
);
width = 526;
}
);
unicode = 204;
},
{
glyphname = Ihookabove;
lastChange = "2022-11-10 14:18:30 +0000";
layers = (
{
background = {
anchors = (
{
name = bottom;
pos = (253,0);
},
{
name = top;
pos = (253,2144);
}
);
shapes = (
{
closed = 1;
nodes = (
(348,0,l),
(348,1593,l),
(158,1593,l),
(158,0,l)
);
},
{
closed = 1;
nodes = (
(161,1812,l),
(231,1812,o),
(269,1844,o),
(269,1887,cs),
(269,1950,o),
(192,1997,o),
(69,2008,c),
(105,2144,l),
(310,2123,o),
(437,2012,o),
(437,1882,cs),
(437,1774,o),
(350,1713,o),
(161,1696,c)
);
}
);
};
layerId = master01;
shapes = (
{
ref = I;
},
{
pos = (-81,531);
ref = hookabovecomb.case;
}
);
width = 506;
}
);
unicode = 7880;
},
{
glyphname = Iinvertedbreve;
lastChange = "2022-11-10 14:18:30 +0000";
layers = (
{
background = {
anchors = (
{
name = bottom;
pos = (253,0);
},
{
name = top;
pos = (253,2038);
}
);
shapes = (
{
closed = 1;
nodes = (
(348,0,l),
(348,1593,l),
(158,1593,l),
(158,0,l)
);
},
{
closed = 1;
nodes = (
(82,1717,l),
(114,1840,o),
(168,1883,o),
(253,1883,cs),
(338,1883,o),
(392,1840,o),
(424,1717,c),
(549,1717,l),
(562,1868,o),
(482,2038,o),
(253,2038,cs),
(24,2038,o),
(-56,1868,o),
(-43,1717,c)
);
}
);
};
layerId = master01;
shapes = (
{
ref = I;
},
{
pos = (-134,0);
ref = breveinvertedcomb.case;
}
);
width = 506;
}
);
unicode = 522;
},
{
glyphname = Imacron;
lastChange = "2022-11-10 14:18:30 +0000";
layers = (
{
background = {
anchors = (
{
name = bottom;
pos = (268,0);
},
{
name = top;
pos = (268,1859);
}
);
shapes = (
{
closed = 1;
nodes = (
(363,0,l),
(363,1593,l),
(173,1593,l),
(173,0,l)
);
},
{
closed = 1;
nodes = (
(510,1701,l),
(509,1859,l),
(27,1859,l),
(26,1701,l)
);
}
);
};
layerId = master01;
shapes = (
{
alignment = -1;
pos = (15,0);
ref = I;
},
{
pos = (-139,0);
ref = macroncomb.case;
}
);
width = 526;
}
);
unicode = 298;
},
{
glyphname = Iogonek;
lastChange = "2022-11-10 14:18:19 +0000";
layers = (
{
background = {
shapes = (
{
closed = 1;
nodes = (
(368,0,l),
(368,1593,l),
(178,1593,l),
(178,0,l)
);
},
{
closed = 1;
nodes = (
(372,-365,l),
(248,-376,o),
(176,-316,o),
(166,-255,cs),
(146,-132,o),
(287,-25,o),
(368,0,c),
(310,67,l),
(229,54,l),
(50,-15,o),
(-57,-170,o),
(-32,-308,cs),
(-3,-464,o),
(163,-534,o),
(371,-506,c)
);
}
);
};
layerId = master01;
shapes = (
{
closed = 1;
nodes = (
(368,0,l),
(368,1593,l),
(178,1593,l),
(178,0,l)
);
},
{
closed = 1;
nodes = (
(372,-365,l),
(248,-376,o),
(176,-316,o),
(166,-255,cs),
(146,-132,o),
(287,-25,o),
(368,0,c),
(310,67,l),
(229,54,l),
(50,-15,o),
(-57,-170,o),
(-32,-308,cs),
(-3,-464,o),
(163,-534,o),
(371,-506,c)
);
}
);
width = 547;
}
);
unicode = 302;
},
{
glyphname = Itilde;
lastChange = "2022-11-10 14:18:30 +0000";
layers = (
{
background = {
anchors = (
{
name = bottom;
pos = (268,0);
},
{
name = top;
pos = (268,1959);
}
);
shapes = (
{
closed = 1;
nodes = (
(363,0,l),
(363,1593,l),
(173,1593,l),
(173,0,l)
);
},
{
closed = 1;
nodes = (
(63,1773,o),
(117,1793,o),
(155,1793,cs),
(229,1793,o),
(291,1717,o),
(394,1717,cs),
(470,1717,o),
(556,1792,o),
(596,1862,c),
(520,1959,l),
(473,1903,o),
(419,1883,o),
(381,1883,cs),
(307,1883,o),
(245,1959,o),
(142,1959,cs),
(66,1959,o),
(-20,1884,o),
(-60,1814,c),
(16,1717,l)
);
}
);
};
layerId = master01;
shapes = (
{
alignment = -1;
pos = (15,0);
ref = I;
},
{
pos = (-160,0);
ref = tildecomb.case;
}
);
width = 526;
}
);
unicode = 296;
},
{
glyphname = J;
lastChange = "2022-11-10 14:18:19 +0000";
layers = (
{
anchors = (
{
name = bottom;
pos = (194,-170);
},
{
name = top;
pos = (346,1593);
}
);
background = {
anchors = (
{
name = bottom;
pos = (194,-170);
},
{
name = top;
pos = (346,1593);
}
);
shapes = (
{
closed = 1;
nodes = (
(406,-142,o),
(439,42,o),
(439,248,cs),
(439,1593,l),
(252,1593,l),
(252,238,ls),
(252,89,o),
(198,-58,o),
(70,-145,c),
(172,-262,l)
);
}
);
};
layerId = master01;
shapes = (
{
closed = 1;
nodes = (
(406,-142,o),
(439,42,o),
(439,248,cs),
(439,1593,l),
(252,1593,l),
(252,238,ls),
(252,89,o),
(198,-58,o),
(70,-145,c),
(172,-262,l)
);
}
);
width = 558;
}
);
unicode = 74;
},
{
glyphname = Jcircumflex;
lastChange = "2022-11-10 14:18:30 +0000";
layers = (
{
background = {
anchors = (
{
name = bottom;
pos = (189,-170);
},
{
name = top;
pos = (341,2020);
}
);
shapes = (
{
closed = 1;
nodes = (
(401,-142,o),
(434,42,o),
(434,248,cs),
(434,1593,l),
(247,1593,l),
(247,238,ls),
(247,89,o),
(193,-58,o),
(65,-145,c),
(167,-262,l)
);
},
{
closed = 1;
nodes = (
(341,1840,l),
(581,1719,l),
(657,1857,l),
(341,2020,l),
(25,1857,l),
(101,1719,l)
);
}
);
};
layerId = master01;
shapes = (
{
alignment = -1;
pos = (-5,0);
ref = J;
},
{
pos = (-47,0);
ref = circumflexcomb.case;
}
);
width = 537;
}
);
unicode = 308;
},
{
glyphname = K;
lastChange = "2022-11-10 14:18:19 +0000";
layers = (
{
anchors = (
{
name = bottom;
pos = (568,-170);
},
{
name = top;
pos = (568,1700);
}
);
background = {
anchors = (
{
name = bottom;
pos = (568,-170);
},
{
name = top;
pos = (568,1700);
}
);
shapes = (
{
closed = 1;
nodes = (
(924,1593,l),
(720,1593,l),
(348,739,l),
(492,625,l)
);
},
{
closed = 1;
nodes = (
(348,0,l),
(348,1593,l),
(158,1593,l),
(158,0,l)
);
},
{
closed = 1;
nodes = (
(979,0,l),
(514,833,l),
(348,739,l),
(760,0,l)
);
}
);
};
layerId = master01;
shapes = (
{
closed = 1;
nodes = (
(924,1593,l),
(720,1593,l),
(348,739,l),
(492,625,l)
);
},
{
closed = 1;
nodes = (
(348,0,l),
(348,1593,l),
(158,1593,l),
(158,0,l)
);
},
{
closed = 1;
nodes = (
(979,0,l),
(514,833,l),
(348,739,l),
(760,0,l)
);
}
);
userData = {
com.typemytype.robofont.guides = (
{
angle = 0;
isGlobal = 0;
magnetic = 5;
x = 0;
y = 710;
}
);
com.typemytype.robofont.mark = (
0.656,
1,
0.6,
1
);
};
width = 973;
}
);
unicode = 75;
},
{
glyphname = Kcommaaccent;
lastChange = "2022-11-10 14:18:30 +0000";
layers = (
{
background = {
anchors = (
{
name = bottom;
pos = (503,-503);
},
{
name = top;
pos = (583,1700);
}
);
shapes = (
{
closed = 1;
nodes = (
(939,1593,l),
(735,1593,l),
(363,739,l),
(507,625,l)
);
},
{
closed = 1;
nodes = (
(363,0,l),
(363,1593,l),
(173,1593,l),
(173,0,l)
);
},
{
closed = 1;
nodes = (
(994,0,l),
(529,833,l),
(363,739,l),
(775,0,l)
);
},
{
closed = 1;
nodes = (
(573,-393,o),
(632,-298,o),
(632,-215,c),
(632,-126,o),
(570,-81,o),
(499,-81,cs),
(423,-81,o),
(374,-131,o),
(374,-188,cs),
(374,-240,o),
(418,-287,o),
(486,-293,c),
(474,-335,o),
(425,-393,o),
(374,-436,c),
(453,-503,l)
);
}
);
};
layerId = master01;
shapes = (
{
alignment = -1;
pos = (15,0);
ref = K;
},
{
alignment = -1;
pos = (280,0);
ref = commaaccentcomb;
}
);
width = 1006;
}
);
unicode = 310;
},
{
glyphname = L;
lastChange = "2022-11-10 15:06:56 +0000";
layers = (
{
anchors = (
{
name = bottom;
pos = (462,0);
},
{
name = center;
pos = (402,797);
},
{
name = top;
pos = (462,1700);
},
{
name = topright;
pos = (783,1593);
}
);
background = {
shapes = (
{
closed = 1;
nodes = (
(769,0,l),
(769,174,l),
(350,174,l),
(350,1593,l),
(160,1593,l),
(160,0,l)
);
},
{
closed = 1;
nodes = (
(747,668,o),
(802,730,o),
(802,801,cs),
(802,872,o),
(747,935,o),
(663,935,cs),
(579,935,o),
(524,872,o),
(524,801,cs),
(524,730,o),
(579,668,o),
(663,668,cs)
);
}
);
};
layerId = master01;
shapes = (
{
closed = 1;
nodes = (
(767,0,l),
(767,174,l),
(348,174,l),
(348,1593,l),
(158,1593,l),
(158,0,l)
);
}
);
userData = {
com.typemytype.robofont.mark = (
0.656,
1,
0.6,
1
);
};
width = 803;
}
);
unicode = 76;
},
{
glyphname = Lacute;
lastChange = "2022-11-10 14:18:30 +0000";
layers = (
{
background = {
anchors = (
{
name = bottom;
pos = (477,-170);
},
{
name = center;
pos = (417,797);
},
{
name = top;
pos = (424,2020);
},
{
name = topright;
pos = (798,1593);
}
);
shapes = (
{
closed = 1;
nodes = (
(782,0,l),
(782,174,l),
(363,174,l),
(363,1593,l),
(173,1593,l),
(173,0,l)
);
},
{
closed = 1;
nodes = (
(679,1867,l),
(612,2020,l),
(169,1825,l),
(237,1671,l)
);
}
);
};
layerId = master01;
shapes = (
{
alignment = -1;
pos = (15,0);
ref = L;
},
{
alignment = -1;
pos = (117,0);
ref = acutecomb.case;
}
);
width = 797;
}
);
unicode = 313;
},
{
glyphname = Lcaron;
lastChange = "2022-11-10 14:18:30 +0000";
layers = (
{
background = {
anchors = (
{
name = bottom;
pos = (477,-170);
},
{
name = center;
pos = (417,797);
},
{
name = top;
pos = (477,1700);
},
{
name = topright;
pos = (798,1593);
}
);
shapes = (
{
closed = 1;
nodes = (
(710,1201,o),
(745,1321,o),
(745,1425,cs),
(745,1537,o),
(676,1594,o),
(598,1594,cs),
(514,1594,o),
(468,1531,o),
(468,1460,cs),
(468,1393,o),
(508,1334,o),
(584,1328,c),
(569,1274,o),
(546,1181,o),
(499,1128,c),
(587,1063,l)
);
},
{
closed = 1;
nodes = (
(782,0,l),
(782,174,l),
(363,174,l),
(363,1593,l),
(173,1593,l),
(173,0,l)
);
}
);
};
layerId = master01;
shapes = (
{
closed = 1;
nodes = (
(710,1201,o),
(745,1321,o),
(745,1425,cs),
(745,1537,o),
(676,1594,o),
(598,1594,cs),
(514,1594,o),
(468,1531,o),
(468,1460,cs),
(468,1393,o),
(508,1334,o),
(584,1328,c),
(569,1274,o),
(546,1181,o),
(499,1128,c),
(587,1063,l)
);
},
{
pos = (15,0);
ref = L;
}
);
width = 797;
}
);
unicode = 317;
},
{
glyphname = Lcommaaccent;
lastChange = "2022-11-10 14:18:30 +0000";
layers = (
{
background = {
anchors = (
{
name = bottom;
pos = (398,-503);
},
{
name = center;
pos = (417,797);
},
{
name = top;
pos = (477,1700);
},
{
name = topright;
pos = (798,1593);
}
);
shapes = (
{
closed = 1;
nodes = (
(782,0,l),
(782,174,l),
(363,174,l),
(363,1593,l),
(173,1593,l),
(173,0,l)
);
},
{
closed = 1;
nodes = (
(468,-393,o),
(527,-298,o),
(527,-215,c),
(527,-126,o),
(465,-81,o),
(394,-81,cs),
(318,-81,o),
(269,-131,o),
(269,-188,cs),
(269,-240,o),
(313,-287,o),
(381,-293,c),
(369,-335,o),
(320,-393,o),
(269,-436,c),
(348,-503,l)
);
}
);
};
layerId = master01;
shapes = (
{
alignment = -1;
pos = (15,0);
ref = L;
},
{
alignment = -1;
pos = (175,0);
ref = commaaccentcomb;
}
);
width = 797;
}
);
unicode = 315;
},
{
glyphname = Ldot;
lastChange = "2022-11-10 15:06:42 +0000";
layers = (
{
background = {
anchors = (
{
name = bottom;
pos = (477,-170);
},
{
name = center;
pos = (417,797);
},
{
name = top;
pos = (477,1700);
},
{
name = topright;
pos = (798,1593);
}
);
shapes = (
{
closed = 1;
nodes = (
(782,0,l),
(782,174,l),
(363,174,l),
(363,1593,l),
(173,1593,l),
(173,0,l)
);
},
{
closed = 1;
nodes = (
(760,668,o),
(815,730,o),
(815,801,cs),
(815,872,o),
(760,935,o),
(676,935,cs),
(592,935,o),
(537,872,o),
(537,801,cs),
(537,730,o),
(592,668,o),
(676,668,cs)
);
}
);
};
layerId = master01;
shapes = (
{
alignment = -1;
pos = (15,0);
ref = L;
},
{
alignment = -1;
pos = (387,686);
ref = period;
}
);
width = 886;
}
);
unicode = 319;
},
{
glyphname = Ldotbelow;
lastChange = "2022-11-10 14:38:21 +0000";
layers = (
{
background = {
anchors = (
{
name = bottom;
pos = (462,-552);
},
{
name = center;
pos = (402,797);
},
{
name = top;
pos = (462,1700);
},
{
name = topright;
pos = (783,1593);
}
);
shapes = (
{
closed = 1;
nodes = (
(767,0,l),
(767,174,l),
(348,174,l),
(348,1593,l),
(158,1593,l),
(158,0,l)
);
},
{
closed = 1;
nodes = (
(540,-552,o),
(591,-494,o),
(591,-428,cs),
(591,-362,o),
(540,-304,o),
(462,-304,cs),
(384,-304,o),
(333,-362,o),
(333,-428,cs),
(333,-494,o),
(384,-552,o),
(462,-552,cs)
);
}
);
};
layerId = master01;
shapes = (
{
ref = L;
},
{
pos = (207,0);
ref = dotbelowcomb.case;
}
);
width = 803;
}
);
unicode = 7734;
},
{
glyphname = Llinebelow;
lastChange = "2022-11-10 14:38:21 +0000";
layers = (
{
background = {
anchors = (
{
name = bottom;
pos = (462,-457);
},
{
name = center;
pos = (402,797);
},
{
name = top;
pos = (462,1700);
},
{
name = topright;
pos = (783,1593);
}
);
shapes = (
{
closed = 1;
nodes = (
(767,0,l),
(767,174,l),
(348,174,l),
(348,1593,l),
(158,1593,l),
(158,0,l)
);
},
{
closed = 1;
nodes = (
(704,-457,l),
(703,-299,l),
(221,-299,l),
(220,-457,l)
);
}
);
};
layerId = master01;
shapes = (
{
ref = L;
},
{
pos = (55,0);
ref = macronbelowcomb.case;
}
);
width = 803;
}
);
unicode = 7738;
},
{
glyphname = Lslash;
lastChange = "2022-11-10 14:18:30 +0000";
layers = (
{
background = {
anchors = (
{
name = bottom;
pos = (482,-170);
},
{
name = center;
pos = (422,797);
},
{
name = top;
pos = (482,1700);
},
{
name = topright;
pos = (803,1593);
}
);
shapes = (
{
closed = 1;
nodes = (
(640,971,l),
(547,1111,l),
(-22,740,l),
(71,600,l)
);
},
{
closed = 1;
nodes = (
(787,0,l),
(787,174,l),
(368,174,l),
(368,1593,l),
(178,1593,l),
(178,0,l)
);
}
);
};
layerId = master01;
shapes = (
{
closed = 1;
nodes = (
(640,971,l),
(547,1111,l),
(-22,740,l),
(71,600,l)
);
},
{
pos = (20,0);
ref = L;
}
);
width = 807;
}
);
unicode = 321;
},
{
glyphname = M;
lastChange = "2022-11-10 14:38:12 +0000";
layers = (
{
anchors = (
{
name = bottom;
pos = (628,0);
},
{
name = top;
pos = (628,1700);
}
);
background = {
anchors = (
{
name = bottom;
pos = (628,-170);
},
{
name = top;
pos = (628,1700);
}
);
shapes = (
{
closed = 1;
nodes = (
(348,0,l),
(348,750,l),
(332,997,l),
(450,747,l),
(628,431,l),
(628,429,l),
(628,430,l),
(629,429,l),
(629,431,l),
(805,746,l),
(923,997,l),
(908,748,l),
(908,0,l),
(1098,0,l),
(1098,1612,l),
(1055,1612,l),
(628,776,l),
(201,1612,l),
(158,1612,l),
(158,0,l)
);
}
);
};
layerId = master01;
shapes = (
{
closed = 1;
nodes = (
(348,0,l),
(348,750,l),
(332,997,l),
(450,747,l),
(628,431,l),
(628,429,l),
(628,430,l),
(629,429,l),
(629,431,l),
(805,746,l),
(923,997,l),
(908,748,l),
(908,0,l),
(1098,0,l),
(1098,1612,l),
(1055,1612,l),
(628,776,l),
(201,1612,l),
(158,1612,l),
(158,0,l)
);
}
);
userData = {
com.typemytype.robofont.guides = (
{
angle = 0;
isGlobal = 0;
magnetic = 5;
x = 0;
y = 747;
},
{
angle = 0;
isGlobal = 0;
magnetic = 5;
x = 0;
y = 948;
}
);
com.typemytype.robofont.mark = (
0.656,
1,
0.6,
1
);
};
width = 1256;
}
);
unicode = 77;
},
{
glyphname = Mdotaccent;
lastChange = "2022-11-10 14:18:30 +0000";
layers = (
{
background = {
anchors = (
{
name = bottom;
pos = (643,-170);
},
{
name = top;
pos = (630,1947);
}
);
shapes = (
{
closed = 1;
nodes = (
(363,0,l),
(363,750,l),
(347,997,l),
(465,747,l),
(643,431,l),
(643,429,l),
(643,430,l),
(644,429,l),
(644,431,l),
(820,746,l),
(938,997,l),
(923,748,l),
(923,0,l),
(1113,0,l),
(1113,1612,l),
(1070,1612,l),
(643,776,l),
(216,1612,l),
(173,1612,l),
(173,0,l)
);
},
{
closed = 1;
nodes = (
(708,1699,o),
(759,1757,o),
(759,1823,cs),
(759,1889,o),
(708,1947,o),
(630,1947,cs),
(552,1947,o),
(501,1889,o),
(501,1823,cs),
(501,1757,o),
(552,1699,o),
(630,1699,cs)
);
}
);
};
layerId = master01;
shapes = (
{
alignment = -1;
pos = (15,0);
ref = M;
},
{
alignment = -1;
pos = (375,0);
ref = dotaccentcomb.case;
}
);
width = 1262;
}
);
unicode = 7744;
},
{
glyphname = Mdotbelow;
lastChange = "2022-11-10 14:38:12 +0000";
layers = (
{
background = {
anchors = (
{
name = bottom;
pos = (628,-552);
},
{
name = top;
pos = (628,1700);
}
);
shapes = (
{
closed = 1;
nodes = (
(348,0,l),
(348,750,l),
(332,997,l),
(450,747,l),
(628,431,l),
(628,429,l),
(628,430,l),
(629,429,l),
(629,431,l),
(805,746,l),
(923,997,l),
(908,748,l),
(908,0,l),
(1098,0,l),
(1098,1612,l),
(1055,1612,l),
(628,776,l),
(201,1612,l),
(158,1612,l),
(158,0,l)
);
},
{
closed = 1;
nodes = (
(706,-552,o),
(757,-494,o),
(757,-428,cs),
(757,-362,o),
(706,-304,o),
(628,-304,cs),
(550,-304,o),
(499,-362,o),
(499,-428,cs),
(499,-494,o),
(550,-552,o),
(628,-552,cs)
);
}
);
};
layerId = master01;
shapes = (
{
ref = M;
},
{
pos = (373,0);
ref = dotbelowcomb.case;
}
);
width = 1256;
}
);
unicode = 7746;
},
{
glyphname = N;
lastChange = "2022-11-10 14:18:19 +0000";
layers = (
{
anchors = (
{
name = bottom;
pos = (562,0);
},
{
name = top;
pos = (562,1593);
}
);
background = {
anchors = (
{
name = bottom;
pos = (562,0);
},
{
name = top;
pos = (562,1593);
}
);
shapes = (
{
closed = 1;
nodes = (
(348,0,l),
(348,796,l),
(322,1030,l),
(463,796,l),
(941,0,l),
(965,0,l),
(965,1593,l),
(777,1593,l),
(777,816,l),
(802,555,l),
(659,819,l),
(183,1612,l),
(158,1612,l),
(158,0,l)
);
}
);
};
layerId = master01;
shapes = (
{
closed = 1;
nodes = (
(348,0,l),
(348,796,l),
(322,1030,l),
(463,796,l),
(941,0,l),
(965,0,l),
(965,1593,l),
(777,1593,l),
(777,816,l),
(802,555,l),
(659,819,l),
(183,1612,l),
(158,1612,l),
(158,0,l)
);
}
);
userData = {
com.typemytype.robofont.mark = (
0.656,
1,
0.6,
1
);
};
width = 1123;
}
);
unicode = 78;
},
{
glyphname = Nacute;
lastChange = "2022-11-10 14:18:30 +0000";
layers = (
{
background = {
anchors = (
{
name = bottom;
pos = (577,0);
},
{
name = top;
pos = (521,2020);
}
);
shapes = (
{
closed = 1;
nodes = (
(363,0,l),
(363,796,l),
(337,1030,l),
(478,796,l),
(956,0,l),
(980,0,l),
(980,1593,l),
(792,1593,l),
(792,816,l),
(817,555,l),
(674,819,l),
(198,1612,l),
(173,1612,l),
(173,0,l)
);
},
{
closed = 1;
nodes = (
(776,1867,l),
(709,2020,l),
(266,1825,l),
(334,1671,l)
);
}
);
};
layerId = master01;
shapes = (
{
alignment = -1;
pos = (15,0);
ref = N;
},
{
alignment = -1;
pos = (214,0);
ref = acutecomb.case;
}
);
width = 1130;
}
);
unicode = 323;
},
{
glyphname = Ncaron;
lastChange = "2022-11-10 14:18:30 +0000";
layers = (
{
background = {
anchors = (
{
name = bottom;
pos = (577,0);
},
{
name = top;
pos = (565,2020);
}
);
shapes = (
{
closed = 1;
nodes = (
(363,0,l),
(363,796,l),
(337,1030,l),
(478,796,l),
(956,0,l),
(980,0,l),
(980,1593,l),
(792,1593,l),
(792,816,l),
(817,555,l),
(674,819,l),
(198,1612,l),
(173,1612,l),
(173,0,l)
);
},
{
closed = 1;
nodes = (
(881,1882,l),
(805,2020,l),
(565,1899,l),
(325,2020,l),
(249,1882,l),
(565,1719,l)
);
}
);
};
layerId = master01;
shapes = (
{
alignment = -1;
pos = (15,0);
ref = N;
},
{
alignment = -1;
pos = (177,0);
ref = caroncomb.case;
}
);
width = 1130;
}
);
unicode = 327;
},
{
glyphname = Ncommaaccent;
lastChange = "2022-11-10 14:18:30 +0000";
layers = (
{
background = {
anchors = (
{
name = bottom;
pos = (565,-503);
},
{
name = top;
pos = (577,1593);
}
);
shapes = (
{
closed = 1;
nodes = (
(363,0,l),
(363,796,l),
(337,1030,l),
(478,796,l),
(956,0,l),
(980,0,l),
(980,1593,l),
(792,1593,l),
(792,816,l),
(817,555,l),
(674,819,l),
(198,1612,l),
(173,1612,l),
(173,0,l)
);
},
{
closed = 1;
nodes = (
(635,-393,o),
(694,-298,o),
(694,-215,c),
(694,-126,o),
(632,-81,o),
(561,-81,cs),
(485,-81,o),
(436,-131,o),
(436,-188,cs),
(436,-240,o),
(480,-287,o),
(548,-293,c),
(536,-335,o),
(487,-393,o),
(436,-436,c),
(515,-503,l)
);
}
);
};
layerId = master01;
shapes = (
{
alignment = -1;
pos = (15,0);
ref = N;
},
{
alignment = -1;
pos = (342,0);
ref = commaaccentcomb;
}
);
width = 1130;
}
);
unicode = 325;
},
{
glyphname = Ndotaccent;
lastChange = "2022-11-10 14:18:30 +0000";
layers = (
{
background = {
anchors = (
{
name = bottom;
pos = (562,0);
},
{
name = top;
pos = (562,1947);
}
);
shapes = (
{
closed = 1;
nodes = (
(348,0,l),
(348,796,l),
(322,1030,l),
(463,796,l),
(941,0,l),
(965,0,l),
(965,1593,l),
(777,1593,l),
(777,816,l),
(802,555,l),
(659,819,l),
(183,1612,l),
(158,1612,l),
(158,0,l)
);
},
{
closed = 1;
nodes = (
(640,1699,o),
(691,1757,o),
(691,1823,cs),
(691,1889,o),
(640,1947,o),
(562,1947,cs),
(484,1947,o),
(433,1889,o),
(433,1823,cs),
(433,1757,o),
(484,1699,o),
(562,1699,cs)
);
}
);
};
layerId = master01;
shapes = (
{
ref = N;
},
{
pos = (307,0);
ref = dotaccentcomb.case;
}
);
width = 1123;
}
);
unicode = 7748;
},
{
glyphname = Ndotbelow;
lastChange = "2022-11-10 14:18:30 +0000";
layers = (
{
background = {
anchors = (
{
name = bottom;
pos = (562,-382);
},
{
name = top;
pos = (562,1593);
}
);
shapes = (
{
closed = 1;
nodes = (
(348,0,l),
(348,796,l),
(322,1030,l),
(463,796,l),
(941,0,l),
(965,0,l),
(965,1593,l),
(777,1593,l),
(777,816,l),
(802,555,l),
(659,819,l),
(183,1612,l),
(158,1612,l),
(158,0,l)
);
},
{
closed = 1;
nodes = (
(640,-382,o),
(691,-324,o),
(691,-258,cs),
(691,-192,o),
(640,-134,o),
(562,-134,cs),
(484,-134,o),
(433,-192,o),
(433,-258,cs),
(433,-324,o),
(484,-382,o),
(562,-382,cs)
);
}
);
};
layerId = master01;
shapes = (
{
ref = N;
},
{
pos = (307,0);
ref = dotbelowcomb.case;
}
);
width = 1123;
}
);
unicode = 7750;
},
{
glyphname = Ntilde;
lastChange = "2022-11-10 14:18:30 +0000";
layers = (
{
background = {
anchors = (
{
name = bottom;
pos = (577,0);
},
{
name = top;
pos = (565,1959);
}
);
shapes = (
{
closed = 1;
nodes = (
(363,0,l),
(363,796,l),
(337,1030,l),
(478,796,l),
(956,0,l),
(980,0,l),
(980,1593,l),
(792,1593,l),
(792,816,l),
(817,555,l),
(674,819,l),
(198,1612,l),
(173,1612,l),
(173,0,l)
);
},
{
closed = 1;
nodes = (
(360,1773,o),
(414,1793,o),
(452,1793,cs),
(526,1793,o),
(588,1717,o),
(691,1717,cs),
(767,1717,o),
(853,1792,o),
(893,1862,c),
(817,1959,l),
(770,1903,o),
(716,1883,o),
(678,1883,cs),
(604,1883,o),
(542,1959,o),
(439,1959,cs),
(363,1959,o),
(277,1884,o),
(237,1814,c),
(313,1717,l)
);
}
);
};
layerId = master01;
shapes = (
{
alignment = -1;
pos = (15,0);
ref = N;
},
{
alignment = -1;
pos = (137,0);
ref = tildecomb.case;
}
);
width = 1130;
}
);
unicode = 209;
},
{
glyphname = Eng;
lastChange = "2022-11-10 14:18:19 +0000";
layers = (
{
background = {
shapes = (
{
closed = 1;
nodes = (
(913,-404,o),
(985,-236,o),
(985,-30,cs),
(985,1593,l),
(797,1593,l),
(797,1281,l),
(795,1280,l),
(795,635,l),
(689,819,l),
(178,1654,l),
(178,0,l),
(368,0,l),
(368,796,l),
(362,970,l),
(473,796,l),
(795,272,l),
(795,-10,ls),
(795,-159,o),
(743,-256,o),
(616,-343,c),
(718,-510,l)
);
}
);
};
layerId = master01;
shapes = (
{
closed = 1;
nodes = (
(913,-404,o),
(985,-236,o),
(985,-30,cs),
(985,1593,l),
(797,1593,l),
(797,1281,l),
(795,1280,l),
(795,635,l),
(689,819,l),
(178,1654,l),
(178,0,l),
(368,0,l),
(368,796,l),
(362,970,l),
(473,796,l),
(795,272,l),
(795,-10,ls),
(795,-159,o),
(743,-256,o),
(616,-343,c),
(718,-510,l)
);
}
);
width = 1163;
}
);
unicode = 330;
},
{
glyphname = O;
lastChange = "2022-11-10 14:33:36 +0000";
layers = (
{
anchors = (
{
name = bottom;
pos = (539,0);
},
{
name = center;
pos = (540,797);
},
{
name = ogonek;
pos = (750,53);
},
{
name = top;
pos = (539,1593);
},
{
name = topleft;
pos = (20,1593);
},
{
name = topright;
pos = (654,1593);
}
);
background = {
anchors = (
{
name = bottom;
pos = (539,-170);
},
{
name = center;
pos = (540,797);
},
{
name = ogonek;
pos = (972,10);
},
{
name = top;
pos = (539,1593);
},
{
name = topleft;
pos = (20,1593);
},
{
name = topright;
pos = (654,1593);
}
);
shapes = (
{
closed = 1;
nodes = (
(733,-19,o),
(982,135,o),
(982,796,cs),
(982,1457,o),
(733,1611,o),
(539,1611,cs),
(346,1611,o),
(97,1457,o),
(97,796,cs),
(97,135,o),
(346,-19,o),
(539,-19,cs)
);
},
{
closed = 1;
nodes = (
(425,165,o),
(294,311,o),
(294,796,cs),
(294,1281,o),
(425,1427,o),
(539,1427,cs),
(654,1427,o),
(785,1281,o),
(785,796,cs),
(785,311,o),
(654,165,o),
(539,165,cs)
);
}
);
};
guides = (
{
pos = (-2341,-512);
}
);
layerId = master01;
shapes = (
{
closed = 1;
nodes = (
(733,-19,o),
(982,135,o),
(982,796,cs),
(982,1457,o),
(733,1611,o),
(539,1611,cs),
(346,1611,o),
(97,1457,o),
(97,796,cs),
(97,135,o),
(346,-19,o),
(539,-19,cs)
);
},
{
closed = 1;
nodes = (
(425,165,o),
(294,311,o),
(294,796,cs),
(294,1281,o),
(425,1427,o),
(539,1427,cs),
(654,1427,o),
(785,1281,o),
(785,796,cs),
(785,311,o),
(654,165,o),
(539,165,cs)
);
}
);
userData = {
com.typemytype.robofont.guides = (
{
angle = 90;
isGlobal = 0;
magnetic = 5;
x = 542;
y = 0;
}
);
};
width = 1080;
}
);
unicode = 79;
},
{
glyphname = Oacute;
lastChange = "2022-11-10 14:18:30 +0000";
layers = (
{
background = {
anchors = (
{
name = bottom;
pos = (534,-170);
},
{
name = center;
pos = (535,797);
},
{
name = ogonek;
pos = (967,10);
},
{
name = top;
pos = (480,2020);
},
{
name = topleft;
pos = (15,1593);
},
{
name = topright;
pos = (649,1593);
}
);
shapes = (
{
closed = 1;
nodes = (
(728,-19,o),
(977,135,o),
(977,796,cs),
(977,1457,o),
(728,1611,o),
(534,1611,cs),
(341,1611,o),
(92,1457,o),
(92,796,cs),
(92,135,o),
(341,-19,o),
(534,-19,cs)
);
},
{
closed = 1;
nodes = (
(420,165,o),
(289,311,o),
(289,796,cs),
(289,1281,o),
(420,1427,o),
(534,1427,cs),
(649,1427,o),
(780,1281,o),
(780,796,cs),
(780,311,o),
(649,165,o),
(534,165,cs)
);
},
{
closed = 1;
nodes = (
(735,1867,l),
(668,2020,l),
(225,1825,l),
(293,1671,l)
);
}
);
};
layerId = master01;
shapes = (
{
alignment = -1;
pos = (-5,0);
ref = O;
},
{
alignment = -1;
pos = (173,0);
ref = acutecomb.case;
}
);
width = 1049;
}
);
unicode = 211;
},
{
glyphname = Obreve;
lastChange = "2022-11-10 14:18:30 +0000";
layers = (
{
background = {
anchors = (
{
name = bottom;
pos = (539,-170);
},
{
name = center;
pos = (540,797);
},
{
name = ogonek;
pos = (972,10);
},
{
name = top;
pos = (539,1593);
},
{
name = topleft;
pos = (20,1593);
},
{
name = topright;
pos = (654,1593);
}
);
shapes = (
{
closed = 1;
nodes = (
(733,-19,o),
(982,135,o),
(982,796,cs),
(982,1457,o),
(733,1611,o),
(539,1611,cs),
(346,1611,o),
(97,1457,o),
(97,796,cs),
(97,135,o),
(346,-19,o),
(539,-19,cs)
);
},
{
closed = 1;
nodes = (
(425,165,o),
(294,311,o),
(294,796,cs),
(294,1281,o),
(425,1427,o),
(539,1427,cs),
(654,1427,o),
(785,1281,o),
(785,796,cs),
(785,311,o),
(654,165,o),
(539,165,cs)
);
}
);
};
layerId = master01;
shapes = (
{
ref = O;
}
);
width = 1080;
}
);
unicode = 334;
},
{
glyphname = Ocircumflex;
lastChange = "2022-11-10 14:18:30 +0000";
layers = (
{
background = {
anchors = (
{
name = bottom;
pos = (534,-170);
},
{
name = center;
pos = (535,797);
},
{
name = ogonek;
pos = (967,10);
},
{
name = top;
pos = (524,2020);
},
{
name = topleft;
pos = (15,1593);
},
{
name = topright;
pos = (649,1593);
}
);
shapes = (
{
closed = 1;
nodes = (
(728,-19,o),
(977,135,o),
(977,796,cs),
(977,1457,o),
(728,1611,o),
(534,1611,cs),
(341,1611,o),
(92,1457,o),
(92,796,cs),
(92,135,o),
(341,-19,o),
(534,-19,cs)
);
},
{
closed = 1;
nodes = (
(420,165,o),
(289,311,o),
(289,796,cs),
(289,1281,o),
(420,1427,o),
(534,1427,cs),
(649,1427,o),
(780,1281,o),
(780,796,cs),
(780,311,o),
(649,165,o),
(534,165,cs)
);
},
{
closed = 1;
nodes = (
(524,1840,l),
(764,1719,l),
(840,1857,l),
(524,2020,l),
(208,1857,l),
(284,1719,l)
);
}
);
};
layerId = master01;
shapes = (
{
alignment = -1;
pos = (-5,0);
ref = O;
},
{
alignment = -1;
pos = (136,0);
ref = circumflexcomb.case;
}
);
width = 1049;
}
);
unicode = 212;
},
{
glyphname = Ocircumflexacute;
lastChange = "2022-11-10 14:18:30 +0000";
layers = (
{
background = {
anchors = (
{
name = bottom;
pos = (539,-170);
},
{
name = center;
pos = (540,797);
},
{
name = ogonek;
pos = (972,10);
},
{
name = top;
pos = (539,2447);
},
{
name = topleft;
pos = (20,1593);
},
{
name = topright;
pos = (654,1593);
}
);
shapes = (
{
closed = 1;
nodes = (
(733,-19,o),
(982,135,o),
(982,796,cs),
(982,1457,o),
(733,1611,o),
(539,1611,cs),
(346,1611,o),
(97,1457,o),
(97,796,cs),
(97,135,o),
(346,-19,o),
(539,-19,cs)
);
},
{
closed = 1;
nodes = (
(425,165,o),
(294,311,o),
(294,796,cs),
(294,1281,o),
(425,1427,o),
(539,1427,cs),
(654,1427,o),
(785,1281,o),
(785,796,cs),
(785,311,o),
(654,165,o),
(539,165,cs)
);
},
{
closed = 1;
nodes = (
(539,1840,l),
(779,1719,l),
(855,1857,l),
(539,2020,l),
(223,1857,l),
(299,1719,l)
);
},
{
closed = 1;
nodes = (
(794,2294,l),
(727,2447,l),
(284,2252,l),
(352,2098,l)
);
}
);
};
layerId = master01;
shapes = (
{
ref = O;
},
{
pos = (151,0);
ref = circumflexcomb.case;
},
{
pos = (232,427);
ref = acutecomb.case;
}
);
width = 1080;
}
);
unicode = 7888;
},
{
glyphname = Ocircumflexdotbelow;
lastChange = "2022-11-10 14:34:29 +0000";
layers = (
{
background = {
anchors = (
{
name = bottom;
pos = (539,-552);
},
{
name = center;
pos = (540,797);
},
{
name = ogonek;
pos = (972,10);
},
{
name = top;
pos = (539,2020);
},
{
name = topleft;
pos = (20,1593);
},
{
name = topright;
pos = (654,1593);
}
);
shapes = (
{
closed = 1;
nodes = (
(733,-19,o),
(982,135,o),
(982,796,cs),
(982,1457,o),
(733,1611,o),
(539,1611,cs),
(346,1611,o),
(97,1457,o),
(97,796,cs),
(97,135,o),
(346,-19,o),
(539,-19,cs)
);
},
{
closed = 1;
nodes = (
(425,165,o),
(294,311,o),
(294,796,cs),
(294,1281,o),
(425,1427,o),
(539,1427,cs),
(654,1427,o),
(785,1281,o),
(785,796,cs),
(785,311,o),
(654,165,o),
(539,165,cs)
);
},
{
closed = 1;
nodes = (
(617,-552,o),
(668,-494,o),
(668,-428,cs),
(668,-362,o),
(617,-304,o),
(539,-304,cs),
(461,-304,o),
(410,-362,o),
(410,-428,cs),
(410,-494,o),
(461,-552,o),
(539,-552,cs)
);
},
{
closed = 1;
nodes = (
(539,1840,l),
(779,1719,l),
(855,1857,l),
(539,2020,l),
(223,1857,l),
(299,1719,l)
);
}
);
};
layerId = master01;
shapes = (
{
ref = O;
},
{
pos = (284,0);
ref = dotbelowcomb.case;
},
{
pos = (151,0);
ref = circumflexcomb.case;
}
);
width = 1080;
}
);
unicode = 7896;
},
{
glyphname = Ocircumflexgrave;
lastChange = "2022-11-10 14:18:30 +0000";
layers = (
{
background = {
anchors = (
{
name = bottom;
pos = (539,-170);
},
{
name = center;
pos = (540,797);
},
{
name = ogonek;
pos = (972,10);
},
{
name = top;
pos = (539,2447);
},
{
name = topleft;
pos = (20,1593);
},
{
name = topright;
pos = (654,1593);
}
);
shapes = (
{
closed = 1;
nodes = (
(733,-19,o),
(982,135,o),
(982,796,cs),
(982,1457,o),
(733,1611,o),
(539,1611,cs),
(346,1611,o),
(97,1457,o),
(97,796,cs),
(97,135,o),
(346,-19,o),
(539,-19,cs)
);
},
{
closed = 1;
nodes = (
(425,165,o),
(294,311,o),
(294,796,cs),
(294,1281,o),
(425,1427,o),
(539,1427,cs),
(654,1427,o),
(785,1281,o),
(785,796,cs),
(785,311,o),
(654,165,o),
(539,165,cs)
);
},
{
closed = 1;
nodes = (
(539,1840,l),
(779,1719,l),
(855,1857,l),
(539,2020,l),
(223,1857,l),
(299,1719,l)
);
},
{
closed = 1;
nodes = (
(794,2252,l),
(351,2447,l),
(284,2294,l),
(726,2098,l)
);
}
);
};
layerId = master01;
shapes = (
{
ref = O;
},
{
pos = (151,0);
ref = circumflexcomb.case;
},
{
pos = (232,427);
ref = gravecomb.case;
}
);
width = 1080;
}
);
unicode = 7890;
},
{
glyphname = Ocircumflexhookabove;
lastChange = "2022-11-10 14:18:30 +0000";
layers = (
{
background = {
anchors = (
{
name = bottom;
pos = (539,-170);
},
{
name = center;
pos = (540,797);
},
{
name = ogonek;
pos = (972,10);
},
{
name = top;
pos = (539,2571);
},
{
name = topleft;
pos = (20,1593);
},
{
name = topright;
pos = (654,1593);
}
);
shapes = (
{
closed = 1;
nodes = (
(733,-19,o),
(982,135,o),
(982,796,cs),
(982,1457,o),
(733,1611,o),
(539,1611,cs),
(346,1611,o),
(97,1457,o),
(97,796,cs),
(97,135,o),
(346,-19,o),
(539,-19,cs)
);
},
{
closed = 1;
nodes = (
(425,165,o),
(294,311,o),
(294,796,cs),
(294,1281,o),
(425,1427,o),
(539,1427,cs),
(654,1427,o),
(785,1281,o),
(785,796,cs),
(785,311,o),
(654,165,o),
(539,165,cs)
);
},
{
closed = 1;
nodes = (
(539,1840,l),
(779,1719,l),
(855,1857,l),
(539,2020,l),
(223,1857,l),
(299,1719,l)
);
},
{
closed = 1;
nodes = (
(447,2239,l),
(517,2239,o),
(555,2271,o),
(555,2314,cs),
(555,2377,o),
(478,2424,o),
(355,2435,c),
(391,2571,l),
(596,2550,o),
(723,2439,o),
(723,2309,cs),
(723,2201,o),
(636,2140,o),
(447,2123,c)
);
}
);
};
layerId = master01;
shapes = (
{
ref = O;
},
{
pos = (151,0);
ref = circumflexcomb.case;
},
{
pos = (205,958);
ref = hookabovecomb.case;
}
);
width = 1080;
}
);
unicode = 7892;
},
{
glyphname = Ocircumflextilde;
lastChange = "2022-11-10 14:18:30 +0000";
layers = (
{
background = {
anchors = (
{
name = bottom;
pos = (539,-170);
},
{
name = center;
pos = (540,797);
},
{
name = ogonek;
pos = (972,10);
},
{
name = top;
pos = (539,2386);
},
{
name = topleft;
pos = (20,1593);
},
{
name = topright;
pos = (654,1593);
}
);
shapes = (
{
closed = 1;
nodes = (
(733,-19,o),
(982,135,o),
(982,796,cs),
(982,1457,o),
(733,1611,o),
(539,1611,cs),
(346,1611,o),
(97,1457,o),
(97,796,cs),
(97,135,o),
(346,-19,o),
(539,-19,cs)
);
},
{
closed = 1;
nodes = (
(425,165,o),
(294,311,o),
(294,796,cs),
(294,1281,o),
(425,1427,o),
(539,1427,cs),
(654,1427,o),
(785,1281,o),
(785,796,cs),
(785,311,o),
(654,165,o),
(539,165,cs)
);
},
{
closed = 1;
nodes = (
(539,1840,l),
(779,1719,l),
(855,1857,l),
(539,2020,l),
(223,1857,l),
(299,1719,l)
);
},
{
closed = 1;
nodes = (
(334,2200,o),
(388,2220,o),
(426,2220,cs),
(500,2220,o),
(562,2144,o),
(665,2144,cs),
(741,2144,o),
(827,2219,o),
(867,2289,c),
(791,2386,l),
(744,2330,o),
(690,2310,o),
(652,2310,cs),
(578,2310,o),
(516,2386,o),
(413,2386,cs),
(337,2386,o),
(251,2311,o),
(211,2241,c),
(287,2144,l)
);
}
);
};
layerId = master01;
shapes = (
{
ref = O;
},
{
pos = (151,0);
ref = circumflexcomb.case;
},
{
pos = (111,427);
ref = tildecomb.case;
}
);
width = 1080;
}
);
unicode = 7894;
},
{
glyphname = Odblgrave;
lastChange = "2022-11-10 14:18:30 +0000";
layers = (
{
background = {
anchors = (
{
name = bottom;
pos = (539,-170);
},
{
name = center;
pos = (540,797);
},
{
name = ogonek;
pos = (972,10);
},
{
name = top;
pos = (469,2132);
},
{
name = topleft;
pos = (20,1593);
},
{
name = topright;
pos = (654,1593);
}
);
shapes = (
{
closed = 1;
nodes = (
(733,-19,o),
(982,135,o),
(982,796,cs),
(982,1457,o),
(733,1611,o),
(539,1611,cs),
(346,1611,o),
(97,1457,o),
(97,796,cs),
(97,135,o),
(346,-19,o),
(539,-19,cs)
);
},
{
closed = 1;
nodes = (
(425,165,o),
(294,311,o),
(294,796,cs),
(294,1281,o),
(425,1427,o),
(539,1427,cs),
(654,1427,o),
(785,1281,o),
(785,796,cs),
(785,311,o),
(654,165,o),
(539,165,cs)
);
},
{
closed = 1;
nodes = (
(474,1810,l),
(175,2132,l),
(76,2029,l),
(395,1727,l)
);
},
{
closed = 1;
nodes = (
(862,1810,l),
(583,2132,l),
(484,2029,l),
(783,1727,l)
);
}
);
};
layerId = master01;
shapes = (
{
ref = O;
},
{
pos = (-14,0);
ref = dblgravecomb.case;
}
);
width = 1080;
}
);
unicode = 524;
},
{
glyphname = Odieresis;
lastChange = "2022-11-10 14:18:30 +0000";
layers = (
{
background = {
anchors = (
{
name = bottom;
pos = (534,-170);
},
{
name = center;
pos = (535,797);
},
{
name = ogonek;
pos = (967,10);
},
{
name = top;
pos = (534,1962);
},
{
name = topleft;
pos = (15,1593);
},
{
name = topright;
pos = (649,1593);
}
);
shapes = (
{
closed = 1;
nodes = (
(728,-19,o),
(977,135,o),
(977,796,cs),
(977,1457,o),
(728,1611,o),
(534,1611,cs),
(341,1611,o),
(92,1457,o),
(92,796,cs),
(92,135,o),
(341,-19,o),
(534,-19,cs)
);
},
{
closed = 1;
nodes = (
(420,165,o),
(289,311,o),
(289,796,cs),
(289,1281,o),
(420,1427,o),
(534,1427,cs),
(649,1427,o),
(780,1281,o),
(780,796,cs),
(780,311,o),
(649,165,o),
(534,165,cs)
);
},
{
closed = 1;
nodes = (
(800,1714,o),
(851,1772,o),
(851,1838,cs),
(851,1904,o),
(800,1962,o),
(722,1962,cs),
(644,1962,o),
(593,1904,o),
(593,1838,cs),
(593,1772,o),
(644,1714,o),
(722,1714,cs)
);
},
{
closed = 1;
nodes = (
(424,1714,o),
(475,1772,o),
(475,1838,cs),
(475,1904,o),
(424,1962,o),
(346,1962,cs),
(268,1962,o),
(217,1904,o),
(217,1838,cs),
(217,1772,o),
(268,1714,o),
(346,1714,cs)
);
}
);
};
layerId = master01;
shapes = (
{
alignment = -1;
pos = (-5,0);
ref = O;
},
{
pos = (123,0);
ref = dieresiscomb.case;
}
);
width = 1049;
}
);
unicode = 214;
},
{
glyphname = Odieresismacron;
lastChange = "2022-11-10 14:18:30 +0000";
layers = (
{
background = {
anchors = (
{
name = bottom;
pos = (539,-170);
},
{
name = center;
pos = (540,797);
},
{
name = ogonek;
pos = (972,10);
},
{
name = top;
pos = (539,2228);
},
{
name = topleft;
pos = (20,1593);
},
{
name = topright;
pos = (654,1593);
}
);
shapes = (
{
closed = 1;
nodes = (
(733,-19,o),
(982,135,o),
(982,796,cs),
(982,1457,o),
(733,1611,o),
(539,1611,cs),
(346,1611,o),
(97,1457,o),
(97,796,cs),
(97,135,o),
(346,-19,o),
(539,-19,cs)
);
},
{
closed = 1;
nodes = (
(425,165,o),
(294,311,o),
(294,796,cs),
(294,1281,o),
(425,1427,o),
(539,1427,cs),
(654,1427,o),
(785,1281,o),
(785,796,cs),
(785,311,o),
(654,165,o),
(539,165,cs)
);
},
{
closed = 1;
nodes = (
(805,1714,o),
(856,1772,o),
(856,1838,cs),
(856,1904,o),
(805,1962,o),
(727,1962,cs),
(649,1962,o),
(598,1904,o),
(598,1838,cs),
(598,1772,o),
(649,1714,o),
(727,1714,cs)
);
},
{
closed = 1;
nodes = (
(429,1714,o),
(480,1772,o),
(480,1838,cs),
(480,1904,o),
(429,1962,o),
(351,1962,cs),
(273,1962,o),
(222,1904,o),
(222,1838,cs),
(222,1772,o),
(273,1714,o),
(351,1714,cs)
);
},
{
closed = 1;
nodes = (
(781,2070,l),
(780,2228,l),
(298,2228,l),
(297,2070,l)
);
}
);
};
layerId = master01;
shapes = (
{
ref = O;
},
{
pos = (128,0);
ref = dieresiscomb.case;
},
{
pos = (132,369);
ref = macroncomb.case;
}
);
width = 1080;
}
);
unicode = 554;
},
{
glyphname = Odotaccentmacron;
lastChange = "2022-11-10 14:18:30 +0000";
layers = (
{
background = {
anchors = (
{
name = bottom;
pos = (539,-170);
},
{
name = center;
pos = (540,797);
},
{
name = ogonek;
pos = (972,10);
},
{
name = top;
pos = (539,2213);
},
{
name = topleft;
pos = (20,1593);
},
{
name = topright;
pos = (654,1593);
}
);
shapes = (
{
closed = 1;
nodes = (
(733,-19,o),
(982,135,o),
(982,796,cs),
(982,1457,o),
(733,1611,o),
(539,1611,cs),
(346,1611,o),
(97,1457,o),
(97,796,cs),
(97,135,o),
(346,-19,o),
(539,-19,cs)
);
},
{
closed = 1;
nodes = (
(425,165,o),
(294,311,o),
(294,796,cs),
(294,1281,o),
(425,1427,o),
(539,1427,cs),
(654,1427,o),
(785,1281,o),
(785,796,cs),
(785,311,o),
(654,165,o),
(539,165,cs)
);
},
{
closed = 1;
nodes = (
(617,1699,o),
(668,1757,o),
(668,1823,cs),
(668,1889,o),
(617,1947,o),
(539,1947,cs),
(461,1947,o),
(410,1889,o),
(410,1823,cs),
(410,1757,o),
(461,1699,o),
(539,1699,cs)
);
},
{
closed = 1;
nodes = (
(781,2055,l),
(780,2213,l),
(298,2213,l),
(297,2055,l)
);
}
);
};
layerId = master01;
shapes = (
{
ref = O;
},
{
pos = (284,0);
ref = dotaccentcomb.case;
},
{
pos = (132,354);
ref = macroncomb.case;
}
);
width = 1080;
}
);
unicode = 560;
},
{
glyphname = Odotbelow;
lastChange = "2022-11-10 14:34:29 +0000";
layers = (
{
background = {
anchors = (
{
name = bottom;
pos = (539,-552);
},
{
name = center;
pos = (540,797);
},
{
name = ogonek;
pos = (972,10);
},
{
name = top;
pos = (539,1593);
},
{
name = topleft;
pos = (20,1593);
},
{
name = topright;
pos = (654,1593);
}
);
shapes = (
{
closed = 1;
nodes = (
(733,-19,o),
(982,135,o),
(982,796,cs),
(982,1457,o),
(733,1611,o),
(539,1611,cs),
(346,1611,o),
(97,1457,o),
(97,796,cs),
(97,135,o),
(346,-19,o),
(539,-19,cs)
);
},
{
closed = 1;
nodes = (
(425,165,o),
(294,311,o),
(294,796,cs),
(294,1281,o),
(425,1427,o),
(539,1427,cs),
(654,1427,o),
(785,1281,o),
(785,796,cs),
(785,311,o),
(654,165,o),
(539,165,cs)
);
},
{
closed = 1;
nodes = (
(617,-552,o),
(668,-494,o),
(668,-428,cs),
(668,-362,o),
(617,-304,o),
(539,-304,cs),
(461,-304,o),
(410,-362,o),
(410,-428,cs),
(410,-494,o),
(461,-552,o),
(539,-552,cs)
);
}
);
};
layerId = master01;
shapes = (
{
ref = O;
},
{
pos = (284,0);
ref = dotbelowcomb.case;
}
);
width = 1080;
}
);
unicode = 7884;
},
{
glyphname = Ograve;
lastChange = "2022-11-10 14:18:30 +0000";
layers = (
{
background = {
anchors = (
{
name = bottom;
pos = (534,-170);
},
{
name = center;
pos = (535,797);
},
{
name = ogonek;
pos = (967,10);
},
{
name = top;
pos = (484,2020);
},
{
name = topleft;
pos = (15,1593);
},
{
name = topright;
pos = (649,1593);
}
);
shapes = (
{
closed = 1;
nodes = (
(728,-19,o),
(977,135,o),
(977,796,cs),
(977,1457,o),
(728,1611,o),
(534,1611,cs),
(341,1611,o),
(92,1457,o),
(92,796,cs),
(92,135,o),
(341,-19,o),
(534,-19,cs)
);
},
{
closed = 1;
nodes = (
(420,165,o),
(289,311,o),
(289,796,cs),
(289,1281,o),
(420,1427,o),
(534,1427,cs),
(649,1427,o),
(780,1281,o),
(780,796,cs),
(780,311,o),
(649,165,o),
(534,165,cs)
);
},
{
closed = 1;
nodes = (
(739,1825,l),
(296,2020,l),
(229,1867,l),
(671,1671,l)
);
}
);
};
layerId = master01;
shapes = (
{
alignment = -1;
pos = (-5,0);
ref = O;
},
{
alignment = -1;
pos = (177,0);
ref = gravecomb.case;
}
);
width = 1049;
}
);
unicode = 210;
},
{
glyphname = Ohookabove;
lastChange = "2022-11-10 14:18:30 +0000";
layers = (
{
background = {
anchors = (
{
name = bottom;
pos = (539,-170);
},
{
name = center;
pos = (540,797);
},
{
name = ogonek;
pos = (972,10);
},
{
name = top;
pos = (539,2144);
},
{
name = topleft;
pos = (20,1593);
},
{
name = topright;
pos = (654,1593);
}
);
shapes = (
{
closed = 1;
nodes = (
(733,-19,o),
(982,135,o),
(982,796,cs),
(982,1457,o),
(733,1611,o),
(539,1611,cs),
(346,1611,o),
(97,1457,o),
(97,796,cs),
(97,135,o),
(346,-19,o),
(539,-19,cs)
);
},
{
closed = 1;
nodes = (
(425,165,o),
(294,311,o),
(294,796,cs),
(294,1281,o),
(425,1427,o),
(539,1427,cs),
(654,1427,o),
(785,1281,o),
(785,796,cs),
(785,311,o),
(654,165,o),
(539,165,cs)
);
},
{
closed = 1;
nodes = (
(447,1812,l),
(517,1812,o),
(555,1844,o),
(555,1887,cs),
(555,1950,o),
(478,1997,o),
(355,2008,c),
(391,2144,l),
(596,2123,o),
(723,2012,o),
(723,1882,cs),
(723,1774,o),
(636,1713,o),
(447,1696,c)
);
}
);
};
layerId = master01;
shapes = (
{
ref = O;
},
{
pos = (205,531);
ref = hookabovecomb.case;
}
);
width = 1080;
}
);
unicode = 7886;
},
{
glyphname = Ohorn;
lastChange = "2022-11-10 14:18:30 +0000";
layers = (
{
background = {
anchors = (
{
name = bottom;
pos = (539,-170);
},
{
name = center;
pos = (540,797);
},
{
name = ogonek;
pos = (972,10);
},
{
name = top;
pos = (539,1593);
},
{
name = topleft;
pos = (20,1593);
},
{
name = topright;
pos = (654,1593);
}
);
shapes = (
{
closed = 1;
nodes = (
(733,-19,o),
(982,135,o),
(982,796,cs),
(982,1457,o),
(733,1611,o),
(539,1611,cs),
(346,1611,o),
(97,1457,o),
(97,796,cs),
(97,135,o),
(346,-19,o),
(539,-19,cs)
);
},
{
closed = 1;
nodes = (
(425,165,o),
(294,311,o),
(294,796,cs),
(294,1281,o),
(425,1427,o),
(539,1427,cs),
(654,1427,o),
(785,1281,o),
(785,796,cs),
(785,311,o),
(654,165,o),
(539,165,cs)
);
},
{
closed = 1;
nodes = (
(918,1474,o),
(1104,1531,o),
(1104,1757,cs),
(1104,1814,o),
(1094,1873,o),
(1074,1932,c),
(878,1933,l),
(903,1888,o),
(923,1837,o),
(923,1778,cs),
(923,1664,o),
(856,1593,o),
(654,1593,c),
(749,1474,l)
);
}
);
};
layerId = master01;
shapes = (
{
ref = O;
},
{
pos = (437,529);
ref = horncomb.case;
}
);
width = 1080;
}
);
unicode = 416;
},
{
glyphname = Ohornacute;
lastChange = "2022-11-10 14:18:30 +0000";
layers = (
{
background = {
anchors = (
{
name = bottom;
pos = (539,-170);
},
{
name = center;
pos = (540,797);
},
{
name = ogonek;
pos = (972,10);
},
{
name = top;
pos = (539,2020);
},
{
name = topleft;
pos = (20,1593);
},
{
name = topright;
pos = (654,1593);
}
);
shapes = (
{
closed = 1;
nodes = (
(733,-19,o),
(982,135,o),
(982,796,cs),
(982,1457,o),
(733,1611,o),
(539,1611,cs),
(346,1611,o),
(97,1457,o),
(97,796,cs),
(97,135,o),
(346,-19,o),
(539,-19,cs)
);
},
{
closed = 1;
nodes = (
(425,165,o),
(294,311,o),
(294,796,cs),
(294,1281,o),
(425,1427,o),
(539,1427,cs),
(654,1427,o),
(785,1281,o),
(785,796,cs),
(785,311,o),
(654,165,o),
(539,165,cs)
);
},
{
closed = 1;
nodes = (
(918,1474,o),
(1104,1531,o),
(1104,1757,cs),
(1104,1814,o),
(1094,1873,o),
(1074,1932,c),
(878,1933,l),
(903,1888,o),
(923,1837,o),
(923,1778,cs),
(923,1664,o),
(856,1593,o),
(654,1593,c),
(749,1474,l)
);
},
{
closed = 1;
nodes = (
(794,1867,l),
(727,2020,l),
(284,1825,l),
(352,1671,l)
);
}
);
};
layerId = master01;
shapes = (
{
ref = Ohorn;
},
{
pos = (232,0);
ref = acutecomb.case;
}
);
width = 1080;
}
);
unicode = 7898;
},
{
glyphname = Ohorndotbelow;
lastChange = "2022-11-10 14:34:29 +0000";
layers = (
{
background = {
anchors = (
{
name = bottom;
pos = (539,-552);
},
{
name = center;
pos = (540,797);
},
{
name = ogonek;
pos = (972,10);
},
{
name = top;
pos = (539,1593);
},
{
name = topleft;
pos = (20,1593);
},
{
name = topright;
pos = (654,1593);
}
);
shapes = (
{
closed = 1;
nodes = (
(733,-19,o),
(982,135,o),
(982,796,cs),
(982,1457,o),
(733,1611,o),
(539,1611,cs),
(346,1611,o),
(97,1457,o),
(97,796,cs),
(97,135,o),
(346,-19,o),
(539,-19,cs)
);
},
{
closed = 1;
nodes = (
(425,165,o),
(294,311,o),
(294,796,cs),
(294,1281,o),
(425,1427,o),
(539,1427,cs),
(654,1427,o),
(785,1281,o),
(785,796,cs),
(785,311,o),
(654,165,o),
(539,165,cs)
);
},
{
closed = 1;
nodes = (
(918,1474,o),
(1104,1531,o),
(1104,1757,cs),
(1104,1814,o),
(1094,1873,o),
(1074,1932,c),
(878,1933,l),
(903,1888,o),
(923,1837,o),
(923,1778,cs),
(923,1664,o),
(856,1593,o),
(654,1593,c),
(749,1474,l)
);
},
{
closed = 1;
nodes = (
(617,-552,o),
(668,-494,o),
(668,-428,cs),
(668,-362,o),
(617,-304,o),
(539,-304,cs),
(461,-304,o),
(410,-362,o),
(410,-428,cs),
(410,-494,o),
(461,-552,o),
(539,-552,cs)
);
}
);
};
layerId = master01;
shapes = (
{
ref = Ohorn;
},
{
pos = (284,0);
ref = dotbelowcomb.case;
}
);
width = 1080;
}
);
unicode = 7906;
},
{
glyphname = Ohorngrave;
lastChange = "2022-11-10 14:18:30 +0000";
layers = (
{
background = {
anchors = (
{
name = bottom;
pos = (539,-170);
},
{
name = center;
pos = (540,797);
},
{
name = ogonek;
pos = (972,10);
},
{
name = top;
pos = (539,2020);
},
{
name = topleft;
pos = (20,1593);
},
{
name = topright;
pos = (654,1593);
}
);
shapes = (
{
closed = 1;
nodes = (
(733,-19,o),
(982,135,o),
(982,796,cs),
(982,1457,o),
(733,1611,o),
(539,1611,cs),
(346,1611,o),
(97,1457,o),
(97,796,cs),
(97,135,o),
(346,-19,o),
(539,-19,cs)
);
},
{
closed = 1;
nodes = (
(425,165,o),
(294,311,o),
(294,796,cs),
(294,1281,o),
(425,1427,o),
(539,1427,cs),
(654,1427,o),
(785,1281,o),
(785,796,cs),
(785,311,o),
(654,165,o),
(539,165,cs)
);
},
{
closed = 1;
nodes = (
(918,1474,o),
(1104,1531,o),
(1104,1757,cs),
(1104,1814,o),
(1094,1873,o),
(1074,1932,c),
(878,1933,l),
(903,1888,o),
(923,1837,o),
(923,1778,cs),
(923,1664,o),
(856,1593,o),
(654,1593,c),
(749,1474,l)
);
},
{
closed = 1;
nodes = (
(794,1825,l),
(351,2020,l),
(284,1867,l),
(726,1671,l)
);
}
);
};
layerId = master01;
shapes = (
{
ref = Ohorn;
},
{
pos = (232,0);
ref = gravecomb.case;
}
);
width = 1080;
}
);
unicode = 7900;
},
{
glyphname = Ohornhookabove;
lastChange = "2022-11-10 14:18:30 +0000";
layers = (
{
background = {
anchors = (
{
name = bottom;
pos = (539,-170);
},
{
name = center;
pos = (540,797);
},
{
name = ogonek;
pos = (972,10);
},
{
name = top;
pos = (539,2144);
},
{
name = topleft;
pos = (20,1593);
},
{
name = topright;
pos = (654,1593);
}
);
shapes = (
{
closed = 1;
nodes = (
(733,-19,o),
(982,135,o),
(982,796,cs),
(982,1457,o),
(733,1611,o),
(539,1611,cs),
(346,1611,o),
(97,1457,o),
(97,796,cs),
(97,135,o),
(346,-19,o),
(539,-19,cs)
);
},
{
closed = 1;
nodes = (
(425,165,o),
(294,311,o),
(294,796,cs),
(294,1281,o),
(425,1427,o),
(539,1427,cs),
(654,1427,o),
(785,1281,o),
(785,796,cs),
(785,311,o),
(654,165,o),
(539,165,cs)
);
},
{
closed = 1;
nodes = (
(918,1474,o),
(1104,1531,o),
(1104,1757,cs),
(1104,1814,o),
(1094,1873,o),
(1074,1932,c),
(878,1933,l),
(903,1888,o),
(923,1837,o),
(923,1778,cs),
(923,1664,o),
(856,1593,o),
(654,1593,c),
(749,1474,l)
);
},
{
closed = 1;
nodes = (
(447,1812,l),
(517,1812,o),
(555,1844,o),
(555,1887,cs),
(555,1950,o),
(478,1997,o),
(355,2008,c),
(391,2144,l),
(596,2123,o),
(723,2012,o),
(723,1882,cs),
(723,1774,o),
(636,1713,o),
(447,1696,c)
);
}
);
};
layerId = master01;
shapes = (
{
ref = Ohorn;
},
{
pos = (205,531);
ref = hookabovecomb.case;
}
);
width = 1080;
}
);
unicode = 7902;
},
{
glyphname = Ohorntilde;
lastChange = "2022-11-10 14:18:30 +0000";
layers = (
{
background = {
anchors = (
{
name = bottom;
pos = (539,-170);
},
{
name = center;
pos = (540,797);
},
{
name = ogonek;
pos = (972,10);
},
{
name = top;
pos = (539,1959);
},
{
name = topleft;
pos = (20,1593);
},
{
name = topright;
pos = (654,1593);
}
);
shapes = (
{
closed = 1;
nodes = (
(733,-19,o),
(982,135,o),
(982,796,cs),
(982,1457,o),
(733,1611,o),
(539,1611,cs),
(346,1611,o),
(97,1457,o),
(97,796,cs),
(97,135,o),
(346,-19,o),
(539,-19,cs)
);
},
{
closed = 1;
nodes = (
(425,165,o),
(294,311,o),
(294,796,cs),
(294,1281,o),
(425,1427,o),
(539,1427,cs),
(654,1427,o),
(785,1281,o),
(785,796,cs),
(785,311,o),
(654,165,o),
(539,165,cs)
);
},
{
closed = 1;
nodes = (
(918,1474,o),
(1104,1531,o),
(1104,1757,cs),
(1104,1814,o),
(1094,1873,o),
(1074,1932,c),
(878,1933,l),
(903,1888,o),
(923,1837,o),
(923,1778,cs),
(923,1664,o),
(856,1593,o),
(654,1593,c),
(749,1474,l)
);
},
{
closed = 1;
nodes = (
(334,1773,o),
(388,1793,o),
(426,1793,cs),
(500,1793,o),
(562,1717,o),
(665,1717,cs),
(741,1717,o),
(827,1792,o),
(867,1862,c),
(791,1959,l),
(744,1903,o),
(690,1883,o),
(652,1883,cs),
(578,1883,o),
(516,1959,o),
(413,1959,cs),
(337,1959,o),
(251,1884,o),
(211,1814,c),
(287,1717,l)
);
}
);
};
layerId = master01;
shapes = (
{
ref = Ohorn;
},
{
pos = (111,0);
ref = tildecomb.case;
}
);
width = 1080;
}
);
unicode = 7904;
},
{
glyphname = Ohungarumlaut;
lastChange = "2022-11-10 14:18:30 +0000";
layers = (
{
background = {
anchors = (
{
name = bottom;
pos = (534,-170);
},
{
name = center;
pos = (535,797);
},
{
name = ogonek;
pos = (967,10);
},
{
name = top;
pos = (621,2020);
},
{
name = topleft;
pos = (15,1593);
},
{
name = topright;
pos = (649,1593);
}
);
shapes = (
{
closed = 1;
nodes = (
(728,-19,o),
(977,135,o),
(977,796,cs),
(977,1457,o),
(728,1611,o),
(534,1611,cs),
(341,1611,o),
(92,1457,o),
(92,796,cs),
(92,135,o),
(341,-19,o),
(534,-19,cs)
);
},
{
closed = 1;
nodes = (
(420,165,o),
(289,311,o),
(289,796,cs),
(289,1281,o),
(420,1427,o),
(534,1427,cs),
(649,1427,o),
(780,1281,o),
(780,796,cs),
(780,311,o),
(649,165,o),
(534,165,cs)
);
},
{
closed = 1;
nodes = (
(1014,1917,l),
(915,2020,l),
(616,1738,l),
(695,1655,l)
);
},
{
closed = 1;
nodes = (
(606,1917,l),
(507,2020,l),
(228,1738,l),
(307,1655,l)
);
}
);
};
layerId = master01;
shapes = (
{
alignment = -1;
pos = (-5,0);
ref = O;
},
{
alignment = -1;
pos = (-3,0);
ref = hungarumlautcomb.case;
}
);
width = 1049;
}
);
unicode = 336;
},
{
glyphname = Oinvertedbreve;
lastChange = "2022-11-10 14:18:30 +0000";
layers = (
{
background = {
anchors = (
{
name = bottom;
pos = (539,-170);
},
{
name = center;
pos = (540,797);
},
{
name = ogonek;
pos = (972,10);
},
{
name = top;
pos = (539,2038);
},
{
name = topleft;
pos = (20,1593);
},
{
name = topright;
pos = (654,1593);
}
);
shapes = (
{
closed = 1;
nodes = (
(733,-19,o),
(982,135,o),
(982,796,cs),
(982,1457,o),
(733,1611,o),
(539,1611,cs),
(346,1611,o),
(97,1457,o),
(97,796,cs),
(97,135,o),
(346,-19,o),
(539,-19,cs)
);
},
{
closed = 1;
nodes = (
(425,165,o),
(294,311,o),
(294,796,cs),
(294,1281,o),
(425,1427,o),
(539,1427,cs),
(654,1427,o),
(785,1281,o),
(785,796,cs),
(785,311,o),
(654,165,o),
(539,165,cs)
);
},
{
closed = 1;
nodes = (
(368,1717,l),
(400,1840,o),
(454,1883,o),
(539,1883,cs),
(624,1883,o),
(678,1840,o),
(710,1717,c),
(835,1717,l),
(848,1868,o),
(768,2038,o),
(539,2038,cs),
(310,2038,o),
(230,1868,o),
(243,1717,c)
);
}
);
};
layerId = master01;
shapes = (
{
ref = O;
},
{
pos = (152,0);
ref = breveinvertedcomb.case;
}
);
width = 1080;
}
);
unicode = 526;
},
{
glyphname = Omacron;
lastChange = "2022-11-10 14:18:30 +0000";
layers = (
{
background = {
anchors = (
{
name = bottom;
pos = (534,-170);
},
{
name = center;
pos = (535,797);
},
{
name = ogonek;
pos = (967,10);
},
{
name = top;
pos = (524,1859);
},
{
name = topleft;
pos = (15,1593);
},
{
name = topright;
pos = (649,1593);
}
);
shapes = (
{
closed = 1;
nodes = (
(728,-19,o),
(977,135,o),
(977,796,cs),
(977,1457,o),
(728,1611,o),
(534,1611,cs),
(341,1611,o),
(92,1457,o),
(92,796,cs),
(92,135,o),
(341,-19,o),
(534,-19,cs)
);
},
{
closed = 1;
nodes = (
(420,165,o),
(289,311,o),
(289,796,cs),
(289,1281,o),
(420,1427,o),
(534,1427,cs),
(649,1427,o),
(780,1281,o),
(780,796,cs),
(780,311,o),
(649,165,o),
(534,165,cs)
);
},
{
closed = 1;
nodes = (
(766,1701,l),
(765,1859,l),
(283,1859,l),
(282,1701,l)
);
}
);
};
layerId = master01;
shapes = (
{
alignment = -1;
pos = (-5,0);
ref = O;
},
{
alignment = -1;
pos = (117,0);
ref = macroncomb.case;
}
);
width = 1049;
}
);
unicode = 332;
},
{
glyphname = Oogonek;
lastChange = "2022-11-10 14:33:36 +0000";
layers = (
{
background = {
anchors = (
{
name = bottom;
pos = (539,-170);
},
{
name = center;
pos = (540,797);
},
{
name = ogonek;
pos = (972,10);
},
{
name = top;
pos = (539,1593);
},
{
name = topleft;
pos = (20,1593);
},
{
name = topright;
pos = (654,1593);
}
);
shapes = (
{
closed = 1;
nodes = (
(733,-19,o),
(982,135,o),
(982,796,cs),
(982,1457,o),
(733,1611,o),
(539,1611,cs),
(346,1611,o),
(97,1457,o),
(97,796,cs),
(97,135,o),
(346,-19,o),
(539,-19,cs)
);
},
{
closed = 1;
nodes = (
(425,165,o),
(294,311,o),
(294,796,cs),
(294,1281,o),
(425,1427,o),
(539,1427,cs),
(654,1427,o),
(785,1281,o),
(785,796,cs),
(785,311,o),
(654,165,o),
(539,165,cs)
);
},
{
closed = 1;
nodes = (
(971,-408,l),
(847,-419,o),
(786,-359,o),
(775,-298,cs),
(755,-175,o),
(811,-98,o),
(972,10,c),
(842,10,l),
(666,-43,o),
(552,-213,o),
(578,-351,cs),
(606,-507,o),
(762,-577,o),
(970,-549,c)
);
}
);
};
guides = (
{
pos = (-2341,-512);
}
);
layerId = master01;
shapes = (
{
ref = O;
},
{
pos = (-38,0);
ref = ogonekcomb.case;
}
);
width = 1080;
}
);
unicode = 490;
},
{
glyphname = Oslash;
lastChange = "2022-11-10 14:18:30 +0000";
layers = (
{
background = {
anchors = (
{
name = bottom;
pos = (539,-170);
},
{
name = center;
pos = (540,797);
},
{
name = ogonek;
pos = (972,10);
},
{
name = top;
pos = (539,1593);
},
{
name = topleft;
pos = (20,1593);
},
{
name = topright;
pos = (654,1593);
}
);
shapes = (
{
closed = 1;
nodes = (
(412,148,l),
(286,270,l),
(148,-89,l),
(300,-137,l)
);
},
{
closed = 1;
nodes = (
(733,-19,o),
(982,135,o),
(982,796,cs),
(982,1457,o),
(733,1611,o),
(539,1611,cs),
(346,1611,o),
(97,1457,o),
(97,796,cs),
(97,135,o),
(346,-19,o),
(539,-19,cs)
);
},
{
closed = 1;
nodes = (
(425,165,o),
(294,311,o),
(294,796,cs),
(294,1281,o),
(425,1427,o),
(539,1427,cs),
(654,1427,o),
(785,1281,o),
(785,796,cs),
(785,311,o),
(654,165,o),
(539,165,cs)
);
},
{
closed = 1;
nodes = (
(898,1661,l),
(746,1709,l),
(636,1430,l),
(761,1305,l)
);
}
);
};
layerId = master01;
shapes = (
{
closed = 1;
nodes = (
(412,148,l),
(286,270,l),
(148,-89,l),
(300,-137,l)
);
},
{
ref = O;
},
{
closed = 1;
nodes = (
(898,1661,l),
(746,1709,l),
(636,1430,l),
(761,1305,l)
);
}
);
width = 1059;
}
);
unicode = 216;
},
{
glyphname = Oslashacute;
lastChange = "2022-11-10 14:18:30 +0000";
layers = (
{
background = {
anchors = (
{
name = bottom;
pos = (539,-170);
},
{
name = center;
pos = (540,797);
},
{
name = ogonek;
pos = (972,10);
},
{
name = top;
pos = (539,2020);
},
{
name = topleft;
pos = (20,1593);
},
{
name = topright;
pos = (654,1593);
}
);
shapes = (
{
closed = 1;
nodes = (
(412,148,l),
(286,270,l),
(148,-89,l),
(300,-137,l)
);
},
{
closed = 1;
nodes = (
(733,-19,o),
(982,135,o),
(982,796,cs),
(982,1457,o),
(733,1611,o),
(539,1611,cs),
(346,1611,o),
(97,1457,o),
(97,796,cs),
(97,135,o),
(346,-19,o),
(539,-19,cs)
);
},
{
closed = 1;
nodes = (
(425,165,o),
(294,311,o),
(294,796,cs),
(294,1281,o),
(425,1427,o),
(539,1427,cs),
(654,1427,o),
(785,1281,o),
(785,796,cs),
(785,311,o),
(654,165,o),
(539,165,cs)
);
},
{
closed = 1;
nodes = (
(898,1661,l),
(746,1709,l),
(636,1430,l),
(761,1305,l)
);
},
{
closed = 1;
nodes = (
(794,1867,l),
(727,2020,l),
(284,1825,l),
(352,1671,l)
);
}
);
};
layerId = master01;
shapes = (
{
ref = Oslash;
},
{
pos = (232,0);
ref = acutecomb.case;
}
);
width = 1059;
}
);
unicode = 510;
},
{
glyphname = Otilde;
lastChange = "2022-11-10 14:18:30 +0000";
layers = (
{
background = {
anchors = (
{
name = bottom;
pos = (534,-170);
},
{
name = center;
pos = (535,797);
},
{
name = ogonek;
pos = (967,10);
},
{
name = top;
pos = (524,1959);
},
{
name = topleft;
pos = (15,1593);
},
{
name = topright;
pos = (649,1593);
}
);
shapes = (
{
closed = 1;
nodes = (
(728,-19,o),
(977,135,o),
(977,796,cs),
(977,1457,o),
(728,1611,o),
(534,1611,cs),
(341,1611,o),
(92,1457,o),
(92,796,cs),
(92,135,o),
(341,-19,o),
(534,-19,cs)
);
},
{
closed = 1;
nodes = (
(420,165,o),
(289,311,o),
(289,796,cs),
(289,1281,o),
(420,1427,o),
(534,1427,cs),
(649,1427,o),
(780,1281,o),
(780,796,cs),
(780,311,o),
(649,165,o),
(534,165,cs)
);
},
{
closed = 1;
nodes = (
(319,1773,o),
(373,1793,o),
(411,1793,cs),
(485,1793,o),
(547,1717,o),
(650,1717,cs),
(726,1717,o),
(812,1792,o),
(852,1862,c),
(776,1959,l),
(729,1903,o),
(675,1883,o),
(637,1883,cs),
(563,1883,o),
(501,1959,o),
(398,1959,cs),
(322,1959,o),
(236,1884,o),
(196,1814,c),
(272,1717,l)
);
}
);
};
layerId = master01;
shapes = (
{
alignment = -1;
pos = (-5,0);
ref = O;
},
{
alignment = -1;
pos = (96,0);
ref = tildecomb.case;
}
);
width = 1049;
}
);
unicode = 213;
},
{
glyphname = Otildemacron;
lastChange = "2022-11-10 14:18:30 +0000";
layers = (
{
background = {
anchors = (
{
name = bottom;
pos = (539,-170);
},
{
name = center;
pos = (540,797);
},
{
name = ogonek;
pos = (972,10);
},
{
name = top;
pos = (539,2225);
},
{
name = topleft;
pos = (20,1593);
},
{
name = topright;
pos = (654,1593);
}
);
shapes = (
{
closed = 1;
nodes = (
(733,-19,o),
(982,135,o),
(982,796,cs),
(982,1457,o),
(733,1611,o),
(539,1611,cs),
(346,1611,o),
(97,1457,o),
(97,796,cs),
(97,135,o),
(346,-19,o),
(539,-19,cs)
);
},
{
closed = 1;
nodes = (
(425,165,o),
(294,311,o),
(294,796,cs),
(294,1281,o),
(425,1427,o),
(539,1427,cs),
(654,1427,o),
(785,1281,o),
(785,796,cs),
(785,311,o),
(654,165,o),
(539,165,cs)
);
},
{
closed = 1;
nodes = (
(334,1773,o),
(388,1793,o),
(426,1793,cs),
(500,1793,o),
(562,1717,o),
(665,1717,cs),
(741,1717,o),
(827,1792,o),
(867,1862,c),
(791,1959,l),
(744,1903,o),
(690,1883,o),
(652,1883,cs),
(578,1883,o),
(516,1959,o),
(413,1959,cs),
(337,1959,o),
(251,1884,o),
(211,1814,c),
(287,1717,l)
);
},
{
closed = 1;
nodes = (
(781,2067,l),
(780,2225,l),
(298,2225,l),
(297,2067,l)
);
}
);
};
layerId = master01;
shapes = (
{
ref = O;
},
{
pos = (111,0);
ref = tildecomb.case;
},
{
pos = (132,366);
ref = macroncomb.case;
}
);
width = 1080;
}
);
unicode = 556;
},
{
glyphname = OE;
lastChange = "2022-11-10 14:18:19 +0000";
layers = (
{
background = {
shapes = (
{
closed = 1;
nodes = (
(733,-18,o),
(945,130,o),
(945,791,cs),
(945,1455,o),
(750,1612,o),
(545,1612,cs),
(340,1612,o),
(97,1454,o),
(97,791,cs),
(97,130,o),
(346,-18,o),
(539,-18,cs)
);
},
{
closed = 1;
nodes = (
(425,165,o),
(294,304,o),
(294,789,cs),
(294,1283,o),
(423,1437,o),
(545,1437,cs),
(666,1437,o),
(789,1283,o),
(789,789,cs),
(789,304,o),
(654,165,o),
(539,165,cs)
);
},
{
closed = 1;
nodes = (
(1335,0,l),
(1335,176,l),
(978,176,l),
(978,629,l),
(1284,629,l),
(1284,805,l),
(978,805,l),
(978,1417,l),
(1335,1417,l),
(1335,1593,l),
(617,1593,l),
(788,1426,l),
(788,153,l),
(598,0,l)
);
}
);
};
layerId = master01;
shapes = (
{
closed = 1;
nodes = (
(733,-18,o),
(945,130,o),
(945,791,cs),
(945,1455,o),
(750,1612,o),
(545,1612,cs),
(340,1612,o),
(97,1454,o),
(97,791,cs),
(97,130,o),
(346,-18,o),
(539,-18,cs)
);
},
{
closed = 1;
nodes = (
(425,165,o),
(294,304,o),
(294,789,cs),
(294,1283,o),
(423,1437,o),
(545,1437,cs),
(666,1437,o),
(789,1283,o),
(789,789,cs),
(789,304,o),
(654,165,o),
(539,165,cs)
);
},
{
closed = 1;
nodes = (
(1335,0,l),
(1335,176,l),
(978,176,l),
(978,629,l),
(1284,629,l),
(1284,805,l),
(978,805,l),
(978,1417,l),
(1335,1417,l),
(1335,1593,l),
(617,1593,l),
(788,1426,l),
(788,153,l),
(598,0,l)
);
}
);
width = 1455;
}
);
unicode = 338;
},
{
glyphname = P;
lastChange = "2022-11-10 14:18:19 +0000";
layers = (
{
anchors = (
{
name = bottom;
pos = (501,-170);
},
{
name = top;
pos = (501,1700);
}
);
background = {
anchors = (
{
name = bottom;
pos = (501,-170);
},
{
name = top;
pos = (501,1700);
}
);
shapes = (
{
closed = 1;
nodes = (
(348,0,l),
(348,476,l),
(686,521,o),
(845,750,o),
(845,1051,cs),
(845,1414,o),
(625,1633,o),
(158,1613,c),
(158,0,l)
);
},
{
closed = 1;
nodes = (
(348,1417,l),
(522,1402,o),
(648,1300,o),
(648,1051,cs),
(648,812,o),
(522,680,o),
(348,665,c)
);
}
);
};
layerId = master01;
shapes = (
{
closed = 1;
nodes = (
(348,0,l),
(348,476,l),
(686,521,o),
(845,750,o),
(845,1051,cs),
(845,1414,o),
(625,1633,o),
(158,1613,c),
(158,0,l)
);
},
{
closed = 1;
nodes = (
(348,1417,l),
(522,1402,o),
(648,1300,o),
(648,1051,cs),
(648,812,o),
(522,680,o),
(348,665,c)
);
}
);
userData = {
com.typemytype.robofont.mark = (
0.656,
1,
0.6,
1
);
};
width = 943;
}
);
unicode = 80;
},
{
glyphname = Pdotaccent;
lastChange = "2022-11-10 14:18:30 +0000";
layers = (
{
background = {
anchors = (
{
name = bottom;
pos = (516,-170);
},
{
name = top;
pos = (506,1947);
}
);
shapes = (
{
closed = 1;
nodes = (
(363,0,l),
(363,476,l),
(701,521,o),
(860,750,o),
(860,1051,cs),
(860,1414,o),
(640,1633,o),
(173,1613,c),
(173,0,l)
);
},
{
closed = 1;
nodes = (
(363,1417,l),
(537,1402,o),
(663,1300,o),
(663,1051,cs),
(663,812,o),
(537,680,o),
(363,665,c)
);
},
{
closed = 1;
nodes = (
(584,1699,o),
(635,1757,o),
(635,1823,cs),
(635,1889,o),
(584,1947,o),
(506,1947,cs),
(428,1947,o),
(377,1889,o),
(377,1823,cs),
(377,1757,o),
(428,1699,o),
(506,1699,cs)
);
}
);
};
layerId = master01;
shapes = (
{
alignment = -1;
pos = (15,0);
ref = P;
},
{
alignment = -1;
pos = (251,0);
ref = dotaccentcomb.case;
}
);
width = 934;
}
);
unicode = 7766;
},
{
glyphname = Thorn;
lastChange = "2022-11-10 14:18:19 +0000";
layers = (
{
background = {
shapes = (
{
closed = 1;
nodes = (
(348,0,l),
(348,250,l),
(686,295,o),
(845,504,o),
(845,805,cs),
(845,1158,o),
(624,1387,o),
(158,1367,c),
(158,0,l)
);
},
{
closed = 1;
nodes = (
(348,0,l),
(348,1593,l),
(158,1593,l),
(158,0,l)
);
},
{
closed = 1;
nodes = (
(348,1181,l),
(521,1166,o),
(648,1044,o),
(648,805,cs),
(648,566,o),
(521,444,o),
(348,429,c)
);
}
);
};
layerId = master01;
shapes = (
{
closed = 1;
nodes = (
(348,0,l),
(348,250,l),
(686,295,o),
(845,504,o),
(845,805,cs),
(845,1158,o),
(624,1387,o),
(158,1367,c),
(158,0,l)
);
},
{
closed = 1;
nodes = (
(348,0,l),
(348,1593,l),
(158,1593,l),
(158,0,l)
);
},
{
closed = 1;
nodes = (
(348,1181,l),
(521,1166,o),
(648,1044,o),
(648,805,cs),
(648,566,o),
(521,444,o),
(348,429,c)
);
}
);
userData = {
com.typemytype.robofont.mark = (
0.656,
1,
0.6,
1
);
};
width = 986;
}
);
unicode = 222;
},
{
glyphname = Q;
lastChange = "2022-11-10 14:18:19 +0000";
layers = (
{
anchors = (
{
name = center;
pos = (540,797);
}
);
background = {
anchors = (
{
name = center;
pos = (540,797);
}
);
shapes = (
{
closed = 1;
nodes = (
(733,-19,o),
(982,135,o),
(982,796,cs),
(982,1457,o),
(733,1611,o),
(539,1611,cs),
(346,1611,o),
(97,1457,o),
(97,796,cs),
(97,135,o),
(346,-19,o),
(539,-19,cs)
);
},
{
closed = 1;
nodes = (
(993,34,l),
(580,491,l),
(448,384,l),
(861,-73,l)
);
},
{
closed = 1;
nodes = (
(425,165,o),
(294,311,o),
(294,796,cs),
(294,1281,o),
(425,1427,o),
(539,1427,cs),
(654,1427,o),
(785,1281,o),
(785,796,cs),
(785,311,o),
(654,165,o),
(539,165,cs)
);
}
);
};
layerId = master01;
shapes = (
{
closed = 1;
nodes = (
(733,-19,o),
(982,135,o),
(982,796,cs),
(982,1457,o),
(733,1611,o),
(539,1611,cs),
(346,1611,o),
(97,1457,o),
(97,796,cs),
(97,135,o),
(346,-19,o),
(539,-19,cs)
);
},
{
closed = 1;
nodes = (
(993,34,l),
(580,491,l),
(448,384,l),
(861,-73,l)
);
},
{
closed = 1;
nodes = (
(425,165,o),
(294,311,o),
(294,796,cs),
(294,1281,o),
(425,1427,o),
(539,1427,cs),
(654,1427,o),
(785,1281,o),
(785,796,cs),
(785,311,o),
(654,165,o),
(539,165,cs)
);
}
);
width = 1136;
}
);
unicode = 81;
},
{
glyphname = R;
lastChange = "2022-11-10 14:37:27 +0000";
layers = (
{
anchors = (
{
name = bottom;
pos = (531,0);
},
{
name = top;
pos = (409,1593);
}
);
background = {
anchors = (
{
name = bottom;
pos = (531,-170);
},
{
name = top;
pos = (409,1593);
}
);
shapes = (
{
closed = 1;
nodes = (
(348,0,l),
(348,516,l),
(686,559,o),
(845,770,o),
(845,1061,cs),
(845,1402,o),
(625,1633,o),
(158,1613,c),
(158,0,l)
);
},
{
closed = 1;
nodes = (
(903,0,l),
(592,669,l),
(426,609,l),
(689,0,l)
);
},
{
closed = 1;
nodes = (
(348,1417,l),
(522,1402,o),
(648,1288,o),
(648,1061,cs),
(648,834,o),
(522,720,o),
(348,705,c)
);
}
);
};
layerId = master01;
shapes = (
{
closed = 1;
nodes = (
(348,0,l),
(348,516,l),
(686,559,o),
(845,770,o),
(845,1061,cs),
(845,1402,o),
(625,1633,o),
(158,1613,c),
(158,0,l)
);
},
{
closed = 1;
nodes = (
(903,0,l),
(592,669,l),
(426,609,l),
(689,0,l)
);
},
{
closed = 1;
nodes = (
(348,1417,l),
(522,1402,o),
(648,1288,o),
(648,1061,cs),
(648,834,o),
(522,720,o),
(348,705,c)
);
}
);
userData = {
com.typemytype.robofont.guides = (
{
angle = 0;
isGlobal = 0;
magnetic = 5;
x = 0;
y = 1065;
},
{
angle = 90;
isGlobal = 0;
magnetic = 5;
x = 845;
y = 0;
}
);
com.typemytype.robofont.mark = (
0.656,
1,
0.6,
1
);
};
width = 949;
}
);
unicode = 82;
},
{
glyphname = Racute;
lastChange = "2022-11-10 14:18:30 +0000";
layers = (
{
background = {
anchors = (
{
name = bottom;
pos = (546,-170);
},
{
name = top;
pos = (372,2020);
}
);
shapes = (
{
closed = 1;
nodes = (
(363,0,l),
(363,516,l),
(701,559,o),
(860,770,o),
(860,1061,cs),
(860,1402,o),
(640,1633,o),
(173,1613,c),
(173,0,l)
);
},
{
closed = 1;
nodes = (
(918,0,l),
(607,669,l),
(441,609,l),
(704,0,l)
);
},
{
closed = 1;
nodes = (
(363,1417,l),
(537,1402,o),
(663,1288,o),
(663,1061,cs),
(663,834,o),
(537,720,o),
(363,705,c)
);
},
{
closed = 1;
nodes = (
(627,1867,l),
(560,2020,l),
(117,1825,l),
(185,1671,l)
);
}
);
};
layerId = master01;
shapes = (
{
alignment = -1;
pos = (15,0);
ref = R;
},
{
alignment = -1;
pos = (65,0);
ref = acutecomb.case;
}
);
width = 940;
}
);
unicode = 340;
},
{
glyphname = Rcaron;
lastChange = "2022-11-10 14:18:30 +0000";
layers = (
{
background = {
anchors = (
{
name = bottom;
pos = (546,-170);
},
{
name = top;
pos = (416,2020);
}
);
shapes = (
{
closed = 1;
nodes = (
(363,0,l),
(363,516,l),
(701,559,o),
(860,770,o),
(860,1061,cs),
(860,1402,o),
(640,1633,o),
(173,1613,c),
(173,0,l)
);
},
{
closed = 1;
nodes = (
(918,0,l),
(607,669,l),
(441,609,l),
(704,0,l)
);
},
{
closed = 1;
nodes = (
(363,1417,l),
(537,1402,o),
(663,1288,o),
(663,1061,cs),
(663,834,o),
(537,720,o),
(363,705,c)
);
},
{
closed = 1;
nodes = (
(732,1882,l),
(656,2020,l),
(416,1899,l),
(176,2020,l),
(100,1882,l),
(416,1719,l)
);
}
);
};
layerId = master01;
shapes = (
{
alignment = -1;
pos = (15,0);
ref = R;
},
{
alignment = -1;
pos = (28,0);
ref = caroncomb.case;
}
);
width = 940;
}
);
unicode = 344;
},
{
glyphname = Rcommaaccent;
lastChange = "2022-11-10 14:18:30 +0000";
layers = (
{
background = {
anchors = (
{
name = bottom;
pos = (535,-503);
},
{
name = top;
pos = (424,1593);
}
);
shapes = (
{
closed = 1;
nodes = (
(363,0,l),
(363,516,l),
(701,559,o),
(860,770,o),
(860,1061,cs),
(860,1402,o),
(640,1633,o),
(173,1613,c),
(173,0,l)
);
},
{
closed = 1;
nodes = (
(918,0,l),
(607,669,l),
(441,609,l),
(704,0,l)
);
},
{
closed = 1;
nodes = (
(363,1417,l),
(537,1402,o),
(663,1288,o),
(663,1061,cs),
(663,834,o),
(537,720,o),
(363,705,c)
);
},
{
closed = 1;
nodes = (
(605,-393,o),
(664,-298,o),
(664,-215,c),
(664,-126,o),
(602,-81,o),
(531,-81,cs),
(455,-81,o),
(406,-131,o),
(406,-188,cs),
(406,-240,o),
(450,-287,o),
(518,-293,c),
(506,-335,o),
(457,-393,o),
(406,-436,c),
(485,-503,l)
);
}
);
};
layerId = master01;
shapes = (
{
alignment = -1;
pos = (15,0);
ref = R;
},
{
alignment = -1;
pos = (312,0);
ref = commaaccentcomb;
}
);
width = 940;
}
);
unicode = 342;
},
{
glyphname = Rdblgrave;
lastChange = "2022-11-10 14:18:30 +0000";
layers = (
{
background = {
anchors = (
{
name = bottom;
pos = (531,-170);
},
{
name = top;
pos = (339,2132);
}
);
shapes = (
{
closed = 1;
nodes = (
(348,0,l),
(348,516,l),
(686,559,o),
(845,770,o),
(845,1061,cs),
(845,1402,o),
(625,1633,o),
(158,1613,c),
(158,0,l)
);
},
{
closed = 1;
nodes = (
(903,0,l),
(592,669,l),
(426,609,l),
(689,0,l)
);
},
{
closed = 1;
nodes = (
(348,1417,l),
(522,1402,o),
(648,1288,o),
(648,1061,cs),
(648,834,o),
(522,720,o),
(348,705,c)
);
},
{
closed = 1;
nodes = (
(344,1810,l),
(45,2132,l),
(-54,2029,l),
(265,1727,l)
);
},
{
closed = 1;
nodes = (
(732,1810,l),
(453,2132,l),
(354,2029,l),
(653,1727,l)
);
}
);
};
layerId = master01;
shapes = (
{
ref = R;
},
{
pos = (-144,0);
ref = dblgravecomb.case;
}
);
width = 949;
}
);
unicode = 528;
},
{
glyphname = Rdotbelow;
lastChange = "2022-11-10 14:37:27 +0000";
layers = (
{
background = {
anchors = (
{
name = bottom;
pos = (531,-552);
},
{
name = top;
pos = (409,1593);
}
);
shapes = (
{
closed = 1;
nodes = (
(348,0,l),
(348,516,l),
(686,559,o),
(845,770,o),
(845,1061,cs),
(845,1402,o),
(625,1633,o),
(158,1613,c),
(158,0,l)
);
},
{
closed = 1;
nodes = (
(903,0,l),
(592,669,l),
(426,609,l),
(689,0,l)
);
},
{
closed = 1;
nodes = (
(348,1417,l),
(522,1402,o),
(648,1288,o),
(648,1061,cs),
(648,834,o),
(522,720,o),
(348,705,c)
);
},
{
closed = 1;
nodes = (
(609,-552,o),
(660,-494,o),
(660,-428,cs),
(660,-362,o),
(609,-304,o),
(531,-304,cs),
(453,-304,o),
(402,-362,o),
(402,-428,cs),
(402,-494,o),
(453,-552,o),
(531,-552,cs)
);
}
);
};
layerId = master01;
shapes = (
{
ref = R;
},
{
pos = (276,0);
ref = dotbelowcomb.case;
}
);
width = 949;
}
);
unicode = 7770;
},
{
glyphname = Rinvertedbreve;
lastChange = "2022-11-10 14:18:30 +0000";
layers = (
{
background = {
anchors = (
{
name = bottom;
pos = (531,-170);
},
{
name = top;
pos = (409,2038);
}
);
shapes = (
{
closed = 1;
nodes = (
(348,0,l),
(348,516,l),
(686,559,o),
(845,770,o),
(845,1061,cs),
(845,1402,o),
(625,1633,o),
(158,1613,c),
(158,0,l)
);
},
{
closed = 1;
nodes = (
(903,0,l),
(592,669,l),
(426,609,l),
(689,0,l)
);
},
{
closed = 1;
nodes = (
(348,1417,l),
(522,1402,o),
(648,1288,o),
(648,1061,cs),
(648,834,o),
(522,720,o),
(348,705,c)
);
},
{
closed = 1;
nodes = (
(238,1717,l),
(270,1840,o),
(324,1883,o),
(409,1883,cs),
(494,1883,o),
(548,1840,o),
(580,1717,c),
(705,1717,l),
(718,1868,o),
(638,2038,o),
(409,2038,cs),
(180,2038,o),
(100,1868,o),
(113,1717,c)
);
}
);
};
layerId = master01;
shapes = (
{
ref = R;
},
{
pos = (22,0);
ref = breveinvertedcomb.case;
}
);
width = 949;
}
);
unicode = 530;
},
{
glyphname = Rlinebelow;
lastChange = "2022-11-10 14:37:27 +0000";
layers = (
{
background = {
anchors = (
{
name = bottom;
pos = (531,-457);
},
{
name = top;
pos = (409,1593);
}
);
shapes = (
{
closed = 1;
nodes = (
(348,0,l),
(348,516,l),
(686,559,o),
(845,770,o),
(845,1061,cs),
(845,1402,o),
(625,1633,o),
(158,1613,c),
(158,0,l)
);
},
{
closed = 1;
nodes = (
(903,0,l),
(592,669,l),
(426,609,l),
(689,0,l)
);
},
{
closed = 1;
nodes = (
(348,1417,l),
(522,1402,o),
(648,1288,o),
(648,1061,cs),
(648,834,o),
(522,720,o),
(348,705,c)
);
},
{
closed = 1;
nodes = (
(773,-457,l),
(772,-299,l),
(290,-299,l),
(289,-457,l)
);
}
);
};
layerId = master01;
shapes = (
{
ref = R;
},
{
pos = (124,0);
ref = macronbelowcomb.case;
}
);
width = 949;
}
);
unicode = 7774;
},
{
glyphname = S;
lastChange = "2022-11-10 14:31:07 +0000";
layers = (
{
anchors = (
{
name = bottom;
pos = (383,0);
},
{
name = top;
pos = (482,1593);
}
);
background = {
anchors = (
{
name = bottom;
pos = (452,0);
},
{
name = top;
pos = (482,1593);
}
);
shapes = (
{
closed = 1;
nodes = (
(630,-19,o),
(797,128,o),
(797,367,cs),
(797,531,o),
(719,639,o),
(620,767,cs),
(429,1013,ls),
(338,1130,o),
(316,1195,o),
(316,1257,cs),
(316,1369,o),
(389,1435,o),
(500,1435,cs),
(566,1435,o),
(620,1411,o),
(668,1383,c),
(750,1538,l),
(663,1588,o),
(570,1611,o),
(480,1611,cs),
(255,1611,o),
(119,1464,o),
(119,1264,cs),
(119,1145,o),
(168,1017,o),
(299,854,cs),
(430,691,ls),
(557,533,o),
(600,440,o),
(600,352,cs),
(600,221,o),
(506,164,o),
(399,164,cs),
(312,164,o),
(241,201,o),
(174,239,c),
(87,73,l),
(165,20,o),
(279,-19,o),
(399,-19,cs)
);
}
);
};
layerId = master01;
shapes = (
{
closed = 1;
nodes = (
(630,-19,o),
(797,128,o),
(797,367,cs),
(797,531,o),
(719,639,o),
(620,767,cs),
(429,1013,ls),
(338,1130,o),
(316,1195,o),
(316,1257,cs),
(316,1369,o),
(389,1435,o),
(500,1435,cs),
(566,1435,o),
(620,1411,o),
(668,1383,c),
(750,1538,l),
(663,1588,o),
(570,1611,o),
(480,1611,cs),
(255,1611,o),
(119,1464,o),
(119,1264,cs),
(119,1145,o),
(168,1017,o),
(299,854,cs),
(430,691,ls),
(557,533,o),
(600,440,o),
(600,352,cs),
(600,221,o),
(506,164,o),
(399,164,cs),
(312,164,o),
(241,201,o),
(174,239,c),
(87,73,l),
(165,20,o),
(279,-19,o),
(399,-19,cs)
);
}
);
width = 883;
}
);
unicode = 83;
},
{
glyphname = Sacute;
lastChange = "2022-11-10 14:18:30 +0000";
layers = (
{
background = {
anchors = (
{
name = bottom;
pos = (447,0);
},
{
name = top;
pos = (384,2020);
}
);
shapes = (
{
closed = 1;
nodes = (
(625,-19,o),
(792,128,o),
(792,367,cs),
(792,531,o),
(714,639,o),
(615,767,cs),
(424,1013,ls),
(333,1130,o),
(311,1195,o),
(311,1257,cs),
(311,1369,o),
(384,1435,o),
(495,1435,cs),
(561,1435,o),
(615,1411,o),
(663,1383,c),
(745,1538,l),
(658,1588,o),
(565,1611,o),
(475,1611,cs),
(250,1611,o),
(114,1464,o),
(114,1264,cs),
(114,1145,o),
(163,1017,o),
(294,854,cs),
(425,691,ls),
(552,533,o),
(595,440,o),
(595,352,cs),
(595,221,o),
(501,164,o),
(394,164,cs),
(307,164,o),
(236,201,o),
(169,239,c),
(82,73,l),
(160,20,o),
(274,-19,o),
(394,-19,cs)
);
},
{
closed = 1;
nodes = (
(639,1867,l),
(572,2020,l),
(129,1825,l),
(197,1671,l)
);
}
);
};
layerId = master01;
shapes = (
{
alignment = -1;
pos = (-5,0);
ref = S;
},
{
alignment = -1;
pos = (77,0);
ref = acutecomb.case;
}
);
width = 856;
}
);
unicode = 346;
},
{
glyphname = Scaron;
lastChange = "2022-11-10 14:18:30 +0000";
layers = (
{
background = {
anchors = (
{
name = bottom;
pos = (447,0);
},
{
name = top;
pos = (428,2020);
}
);
shapes = (
{
closed = 1;
nodes = (
(625,-19,o),
(792,128,o),
(792,367,cs),
(792,531,o),
(714,639,o),
(615,767,cs),
(424,1013,ls),
(333,1130,o),
(311,1195,o),
(311,1257,cs),
(311,1369,o),
(384,1435,o),
(495,1435,cs),
(561,1435,o),
(615,1411,o),
(663,1383,c),
(745,1538,l),
(658,1588,o),
(565,1611,o),
(475,1611,cs),
(250,1611,o),
(114,1464,o),
(114,1264,cs),
(114,1145,o),
(163,1017,o),
(294,854,cs),
(425,691,ls),
(552,533,o),
(595,440,o),
(595,352,cs),
(595,221,o),
(501,164,o),
(394,164,cs),
(307,164,o),
(236,201,o),
(169,239,c),
(82,73,l),
(160,20,o),
(274,-19,o),
(394,-19,cs)
);
},
{
closed = 1;
nodes = (
(744,1882,l),
(668,2020,l),
(428,1899,l),
(188,2020,l),
(112,1882,l),
(428,1719,l)
);
}
);
};
layerId = master01;
shapes = (
{
alignment = -1;
pos = (-5,0);
ref = S;
},
{
alignment = -1;
pos = (40,0);
ref = caroncomb.case;
}
);
width = 856;
}
);
unicode = 352;
},
{
glyphname = Scedilla;
lastChange = "2022-11-10 14:31:07 +0000";
layers = (
{
background = {
anchors = (
{
name = bottom;
pos = (447,0);
},
{
name = top;
pos = (477,1593);
}
);
shapes = (
{
closed = 1;
nodes = (
(625,-19,o),
(792,128,o),
(792,367,cs),
(792,531,o),
(714,639,o),
(615,767,cs),
(424,1013,ls),
(333,1130,o),
(311,1195,o),
(311,1257,cs),
(311,1369,o),
(384,1435,o),
(495,1435,cs),
(561,1435,o),
(615,1411,o),
(663,1383,c),
(745,1538,l),
(658,1588,o),
(565,1611,o),
(475,1611,cs),
(250,1611,o),
(114,1464,o),
(114,1264,cs),
(114,1145,o),
(163,1017,o),
(294,854,cs),
(425,691,ls),
(552,533,o),
(595,440,o),
(595,352,cs),
(595,221,o),
(501,164,o),
(394,164,cs),
(307,164,o),
(236,201,o),
(169,239,c),
(82,73,l),
(160,20,o),
(274,-19,o),
(394,-19,cs)
);
},
{
closed = 1;
nodes = (
(486,-510,o),
(613,-399,o),
(613,-269,cs),
(613,-161,o),
(526,-100,o),
(432,-83,c),
(504,63,l),
(367,63,l),
(242,-216,l),
(272,-205,o),
(307,-199,o),
(337,-199,cs),
(407,-199,o),
(445,-231,o),
(445,-274,cs),
(445,-337,o),
(368,-384,o),
(245,-395,c),
(281,-531,l)
);
}
);
};
layerId = master01;
shapes = (
{
alignment = -1;
pos = (-5,0);
ref = S;
},
{
pos = (117,0);
ref = cedillacomb;
}
);
width = 856;
}
);
unicode = 350;
},
{
glyphname = Scircumflex;
lastChange = "2022-11-10 14:18:30 +0000";
layers = (
{
background = {
anchors = (
{
name = bottom;
pos = (447,0);
},
{
name = top;
pos = (428,2020);
}
);
shapes = (
{
closed = 1;
nodes = (
(625,-19,o),
(792,128,o),
(792,367,cs),
(792,531,o),
(714,639,o),
(615,767,cs),
(424,1013,ls),
(333,1130,o),
(311,1195,o),
(311,1257,cs),
(311,1369,o),
(384,1435,o),
(495,1435,cs),
(561,1435,o),
(615,1411,o),
(663,1383,c),
(745,1538,l),
(658,1588,o),
(565,1611,o),
(475,1611,cs),
(250,1611,o),
(114,1464,o),
(114,1264,cs),
(114,1145,o),
(163,1017,o),
(294,854,cs),
(425,691,ls),
(552,533,o),
(595,440,o),
(595,352,cs),
(595,221,o),
(501,164,o),
(394,164,cs),
(307,164,o),
(236,201,o),
(169,239,c),
(82,73,l),
(160,20,o),
(274,-19,o),
(394,-19,cs)
);
},
{
closed = 1;
nodes = (
(428,1840,l),
(668,1719,l),
(744,1857,l),
(428,2020,l),
(112,1857,l),
(188,1719,l)
);
}
);
};
layerId = master01;
shapes = (
{
alignment = -1;
pos = (-5,0);
ref = S;
},
{
alignment = -1;
pos = (40,0);
ref = circumflexcomb.case;
}
);
width = 856;
}
);
unicode = 348;
},
{
glyphname = Scommaaccent;
lastChange = "2022-11-10 14:18:30 +0000";
layers = (
{
background = {
anchors = (
{
name = bottom;
pos = (428,-503);
},
{
name = top;
pos = (477,1593);
}
);
shapes = (
{
closed = 1;
nodes = (
(625,-19,o),
(792,128,o),
(792,367,cs),
(792,531,o),
(714,639,o),
(615,767,cs),
(424,1013,ls),
(333,1130,o),
(311,1195,o),
(311,1257,cs),
(311,1369,o),
(384,1435,o),
(495,1435,cs),
(561,1435,o),
(615,1411,o),
(663,1383,c),
(745,1538,l),
(658,1588,o),
(565,1611,o),
(475,1611,cs),
(250,1611,o),
(114,1464,o),
(114,1264,cs),
(114,1145,o),
(163,1017,o),
(294,854,cs),
(425,691,ls),
(552,533,o),
(595,440,o),
(595,352,cs),
(595,221,o),
(501,164,o),
(394,164,cs),
(307,164,o),
(236,201,o),
(169,239,c),
(82,73,l),
(160,20,o),
(274,-19,o),
(394,-19,cs)
);
},
{
closed = 1;
nodes = (
(498,-393,o),
(557,-298,o),
(557,-215,c),
(557,-126,o),
(495,-81,o),
(424,-81,cs),
(348,-81,o),
(299,-131,o),
(299,-188,cs),
(299,-240,o),
(343,-287,o),
(411,-293,c),
(399,-335,o),
(350,-393,o),
(299,-436,c),
(378,-503,l)
);
}
);
};
layerId = master01;
shapes = (
{
alignment = -1;
pos = (-5,0);
ref = S;
},
{
alignment = -1;
pos = (205,0);
ref = commaaccentcomb;
}
);
width = 856;
}
);
unicode = 536;
},
{
glyphname = Sdotaccent;
lastChange = "2022-11-10 14:18:30 +0000";
layers = (
{
background = {
anchors = (
{
name = bottom;
pos = (447,0);
},
{
name = top;
pos = (428,1947);
}
);
shapes = (
{
closed = 1;
nodes = (
(625,-19,o),
(792,128,o),
(792,367,cs),
(792,531,o),
(714,639,o),
(615,767,cs),
(424,1013,ls),
(333,1130,o),
(311,1195,o),
(311,1257,cs),
(311,1369,o),
(384,1435,o),
(495,1435,cs),
(561,1435,o),
(615,1411,o),
(663,1383,c),
(745,1538,l),
(658,1588,o),
(565,1611,o),
(475,1611,cs),
(250,1611,o),
(114,1464,o),
(114,1264,cs),
(114,1145,o),
(163,1017,o),
(294,854,cs),
(425,691,ls),
(552,533,o),
(595,440,o),
(595,352,cs),
(595,221,o),
(501,164,o),
(394,164,cs),
(307,164,o),
(236,201,o),
(169,239,c),
(82,73,l),
(160,20,o),
(274,-19,o),
(394,-19,cs)
);
},
{
closed = 1;
nodes = (
(506,1699,o),
(557,1757,o),
(557,1823,cs),
(557,1889,o),
(506,1947,o),
(428,1947,cs),
(350,1947,o),
(299,1889,o),
(299,1823,cs),
(299,1757,o),
(350,1699,o),
(428,1699,cs)
);
}
);
};
layerId = master01;
shapes = (
{
alignment = -1;
pos = (-5,0);
ref = S;
},
{
alignment = -1;
pos = (173,0);
ref = dotaccentcomb.case;
}
);
width = 856;
}
);
unicode = 7776;
},
{
glyphname = Sdotbelow;
lastChange = "2022-11-10 14:34:19 +0000";
layers = (
{
background = {
anchors = (
{
name = bottom;
pos = (452,-382);
},
{
name = top;
pos = (482,1593);
}
);
shapes = (
{
closed = 1;
nodes = (
(630,-19,o),
(797,128,o),
(797,367,cs),
(797,531,o),
(719,639,o),
(620,767,cs),
(429,1013,ls),
(338,1130,o),
(316,1195,o),
(316,1257,cs),
(316,1369,o),
(389,1435,o),
(500,1435,cs),
(566,1435,o),
(620,1411,o),
(668,1383,c),
(750,1538,l),
(663,1588,o),
(570,1611,o),
(480,1611,cs),
(255,1611,o),
(119,1464,o),
(119,1264,cs),
(119,1145,o),
(168,1017,o),
(299,854,cs),
(430,691,ls),
(557,533,o),
(600,440,o),
(600,352,cs),
(600,221,o),
(506,164,o),
(399,164,cs),
(312,164,o),
(241,201,o),
(174,239,c),
(87,73,l),
(165,20,o),
(279,-19,o),
(399,-19,cs)
);
},
{
closed = 1;
nodes = (
(530,-382,o),
(581,-324,o),
(581,-258,cs),
(581,-192,o),
(530,-134,o),
(452,-134,cs),
(374,-134,o),
(323,-192,o),
(323,-258,cs),
(323,-324,o),
(374,-382,o),
(452,-382,cs)
);
}
);
};
layerId = master01;
shapes = (
{
ref = S;
},
{
pos = (128,0);
ref = dotbelowcomb.case;
}
);
width = 883;
}
);
unicode = 7778;
},
{
glyphname = Germandbls;
lastChange = "2022-11-10 14:18:19 +0000";
layers = (
{
background = {
shapes = (
{
closed = 1;
nodes = (
(368,0,l),
(368,1127,ls),
(368,1348,o),
(438,1409,o),
(561,1409,c),
(816,1409,l),
(592,818,l),
(781,818,l),
(1085,1593,l),
(561,1593,l),
(321,1593,o),
(178,1472,o),
(178,1150,cs),
(178,0,l)
);
},
{
closed = 1;
nodes = (
(969,-19,o),
(1136,128,o),
(1136,367,cs),
(1136,531,o),
(1086,688,o),
(887,843,cs),
(781,925,l),
(592,818,l),
(727,721,ls),
(934,572,o),
(939,440,o),
(939,352,cs),
(939,221,o),
(845,164,o),
(758,164,cs),
(681,164,o),
(610,201,o),
(543,239,c),
(456,73,l),
(534,20,o),
(648,-19,o),
(758,-19,cs)
);
}
);
};
layerId = master01;
shapes = (
{
closed = 1;
nodes = (
(368,0,l),
(368,1127,ls),
(368,1348,o),
(438,1409,o),
(561,1409,c),
(816,1409,l),
(592,818,l),
(781,818,l),
(1085,1593,l),
(561,1593,l),
(321,1593,o),
(178,1472,o),
(178,1150,cs),
(178,0,l)
);
},
{
closed = 1;
nodes = (
(969,-19,o),
(1136,128,o),
(1136,367,cs),
(1136,531,o),
(1086,688,o),
(887,843,cs),
(781,925,l),
(592,818,l),
(727,721,ls),
(934,572,o),
(939,440,o),
(939,352,cs),
(939,221,o),
(845,164,o),
(758,164,cs),
(681,164,o),
(610,201,o),
(543,239,c),
(456,73,l),
(534,20,o),
(648,-19,o),
(758,-19,cs)
);
}
);
width = 1235;
}
);
metricLeft = "=|U";
metricRight = B;
unicode = 7838;
},
{
glyphname = T;
lastChange = "2022-11-10 14:31:20 +0000";
layers = (
{
anchors = (
{
name = bottom;
pos = (370,0);
},
{
name = top;
pos = (370,1700);
}
);
background = {
anchors = (
{
name = bottom;
pos = (370,-170);
},
{
name = top;
pos = (370,1700);
}
);
shapes = (
{
closed = 1;
nodes = (
(465,0,l),
(465,1417,l),
(720,1417,l),
(720,1593,l),
(20,1593,l),
(20,1417,l),
(275,1417,l),
(275,0,l)
);
}
);
};
layerId = master01;
shapes = (
{
closed = 1;
nodes = (
(465,0,l),
(465,1417,l),
(720,1417,l),
(720,1593,l),
(20,1593,l),
(20,1417,l),
(275,1417,l),
(275,0,l)
);
}
);
width = 740;
}
);
unicode = 84;
},
{
glyphname = Tbar;
lastChange = "2022-11-10 14:18:30 +0000";
layers = (
{
background = {
anchors = (
{
name = bottom;
pos = (421,-170);
},
{
name = top;
pos = (421,1700);
}
);
shapes = (
{
closed = 1;
nodes = (
(659,854,l),
(659,1022,l),
(172,1022,l),
(172,854,l)
);
},
{
closed = 1;
nodes = (
(516,0,l),
(516,1417,l),
(771,1417,l),
(771,1593,l),
(71,1593,l),
(71,1417,l),
(326,1417,l),
(326,0,l)
);
}
);
};
layerId = master01;
shapes = (
{
closed = 1;
nodes = (
(659,854,l),
(659,1022,l),
(172,1022,l),
(172,854,l)
);
},
{
pos = (51,0);
ref = T;
}
);
width = 825;
}
);
unicode = 358;
},
{
glyphname = Tcaron;
lastChange = "2022-11-10 14:18:30 +0000";
layers = (
{
background = {
anchors = (
{
name = bottom;
pos = (421,-170);
},
{
name = top;
pos = (413,2020);
}
);
shapes = (
{
closed = 1;
nodes = (
(516,0,l),
(516,1417,l),
(771,1417,l),
(771,1593,l),
(71,1593,l),
(71,1417,l),
(326,1417,l),
(326,0,l)
);
},
{
closed = 1;
nodes = (
(729,1882,l),
(653,2020,l),
(413,1899,l),
(173,2020,l),
(97,1882,l),
(413,1719,l)
);
}
);
};
layerId = master01;
shapes = (
{
alignment = -1;
pos = (51,0);
ref = T;
},
{
alignment = -1;
pos = (25,0);
ref = caroncomb.case;
}
);
width = 825;
}
);
unicode = 356;
},
{
glyphname = Tcedilla;
lastChange = "2022-11-10 14:31:24 +0000";
layers = (
{
background = {
anchors = (
{
name = bottom;
pos = (421,-170);
},
{
name = top;
pos = (421,1700);
}
);
shapes = (
{
closed = 1;
nodes = (
(516,0,l),
(516,1417,l),
(771,1417,l),
(771,1593,l),
(71,1593,l),
(71,1417,l),
(326,1417,l),
(326,0,l)
);
},
{
closed = 1;
nodes = (
(480,-510,o),
(607,-399,o),
(607,-269,cs),
(607,-161,o),
(520,-100,o),
(426,-83,c),
(498,63,l),
(361,63,l),
(236,-216,l),
(266,-205,o),
(301,-199,o),
(331,-199,cs),
(401,-199,o),
(439,-231,o),
(439,-274,cs),
(439,-337,o),
(362,-384,o),
(239,-395,c),
(275,-531,l)
);
}
);
};
layerId = master01;
shapes = (
{
alignment = -1;
pos = (51,0);
ref = T;
},
{
alignment = -1;
pos = (110,0);
ref = cedillacomb;
}
);
width = 841;
}
);
unicode = 354;
},
{
glyphname = Tcommaaccent;
lastChange = "2022-11-10 14:18:30 +0000";
layers = (
{
background = {
anchors = (
{
name = bottom;
pos = (412,-503);
},
{
name = top;
pos = (421,1700);
}
);
shapes = (
{
closed = 1;
nodes = (
(516,0,l),
(516,1417,l),
(771,1417,l),
(771,1593,l),
(71,1593,l),
(71,1417,l),
(326,1417,l),
(326,0,l)
);
},
{
closed = 1;
nodes = (
(482,-393,o),
(541,-298,o),
(541,-215,c),
(541,-126,o),
(479,-81,o),
(408,-81,cs),
(332,-81,o),
(283,-131,o),
(283,-188,cs),
(283,-240,o),
(327,-287,o),
(395,-293,c),
(383,-335,o),
(334,-393,o),
(283,-436,c),
(362,-503,l)
);
}
);
};
layerId = master01;
shapes = (
{
alignment = -1;
pos = (51,0);
ref = T;
},
{
alignment = -1;
pos = (189,0);
ref = commaaccentcomb;
}
);
width = 825;
}
);
unicode = 538;
},
{
glyphname = Tdotaccent;
lastChange = "2022-11-10 14:18:30 +0000";
layers = (
{
background = {
anchors = (
{
name = bottom;
pos = (421,-170);
},
{
name = top;
pos = (413,1947);
}
);
shapes = (
{
closed = 1;
nodes = (
(516,0,l),
(516,1417,l),
(771,1417,l),
(771,1593,l),
(71,1593,l),
(71,1417,l),
(326,1417,l),
(326,0,l)
);
},
{
closed = 1;
nodes = (
(491,1699,o),
(542,1757,o),
(542,1823,cs),
(542,1889,o),
(491,1947,o),
(413,1947,cs),
(335,1947,o),
(284,1889,o),
(284,1823,cs),
(284,1757,o),
(335,1699,o),
(413,1699,cs)
);
}
);
};
layerId = master01;
shapes = (
{
alignment = -1;
pos = (51,0);
ref = T;
},
{
alignment = -1;
pos = (158,0);
ref = dotaccentcomb.case;
}
);
width = 825;
}
);
unicode = 7786;
},
{
glyphname = Tdotbelow;
lastChange = "2022-11-10 14:34:29 +0000";
layers = (
{
background = {
anchors = (
{
name = bottom;
pos = (370,-552);
},
{
name = top;
pos = (370,1700);
}
);
shapes = (
{
closed = 1;
nodes = (
(465,0,l),
(465,1417,l),
(720,1417,l),
(720,1593,l),
(20,1593,l),
(20,1417,l),
(275,1417,l),
(275,0,l)
);
},
{
closed = 1;
nodes = (
(448,-552,o),
(499,-494,o),
(499,-428,cs),
(499,-362,o),
(448,-304,o),
(370,-304,cs),
(292,-304,o),
(241,-362,o),
(241,-428,cs),
(241,-494,o),
(292,-552,o),
(370,-552,cs)
);
}
);
};
layerId = master01;
shapes = (
{
ref = T;
},
{
pos = (115,0);
ref = dotbelowcomb.case;
}
);
width = 740;
}
);
unicode = 7788;
},
{
glyphname = U;
lastChange = "2022-11-10 14:18:19 +0000";
layers = (
{
anchors = (
{
name = bottom;
pos = (560,0);
},
{
name = ogonek;
pos = (707,10);
},
{
name = top;
pos = (559,1593);
},
{
name = topright;
pos = (810,1593);
}
);
background = {
anchors = (
{
name = bottom;
pos = (560,0);
},
{
name = ogonek;
pos = (707,10);
},
{
name = top;
pos = (559,1593);
},
{
name = topright;
pos = (810,1593);
}
);
shapes = (
{
closed = 1;
nodes = (
(799,-19,o),
(941,121,o),
(941,443,cs),
(941,1593,l),
(752,1593,l),
(752,466,ls),
(752,245,o),
(681,165,o),
(559,165,cs),
(436,165,o),
(366,245,o),
(366,466,cs),
(366,1593,l),
(176,1593,l),
(176,443,ls),
(176,121,o),
(319,-19,o),
(559,-19,cs)
);
}
);
};
layerId = master01;
shapes = (
{
closed = 1;
nodes = (
(799,-19,o),
(941,121,o),
(941,443,cs),
(941,1593,l),
(752,1593,l),
(752,466,ls),
(752,245,o),
(681,165,o),
(559,165,cs),
(436,165,o),
(366,245,o),
(366,466,cs),
(366,1593,l),
(176,1593,l),
(176,443,ls),
(176,121,o),
(319,-19,o),
(559,-19,cs)
);
}
);
width = 1119;
}
);
unicode = 85;
},
{
glyphname = Uacute;
lastChange = "2022-11-10 14:18:30 +0000";
layers = (
{
background = {
anchors = (
{
name = bottom;
pos = (555,0);
},
{
name = ogonek;
pos = (702,10);
},
{
name = top;
pos = (499,2020);
},
{
name = topright;
pos = (805,1593);
}
);
shapes = (
{
closed = 1;
nodes = (
(794,-19,o),
(936,121,o),
(936,443,cs),
(936,1593,l),
(747,1593,l),
(747,466,ls),
(747,245,o),
(676,165,o),
(554,165,cs),
(431,165,o),
(361,245,o),
(361,466,cs),
(361,1593,l),
(171,1593,l),
(171,443,ls),
(171,121,o),
(314,-19,o),
(554,-19,cs)
);
},
{
closed = 1;
nodes = (
(754,1867,l),
(687,2020,l),
(244,1825,l),
(312,1671,l)
);
}
);
};
layerId = master01;
shapes = (
{
alignment = -1;
pos = (-5,0);
ref = U;
},
{
alignment = -1;
pos = (192,0);
ref = acutecomb.case;
}
);
width = 1087;
}
);
unicode = 218;
},
{
glyphname = Ubreve;
lastChange = "2022-11-10 14:18:30 +0000";
layers = (
{
background = {
anchors = (
{
name = bottom;
pos = (555,0);
},
{
name = ogonek;
pos = (702,10);
},
{
name = top;
pos = (543,1989);
},
{
name = topright;
pos = (805,1593);
}
);
shapes = (
{
closed = 1;
nodes = (
(794,-19,o),
(936,121,o),
(936,443,cs),
(936,1593,l),
(747,1593,l),
(747,466,ls),
(747,245,o),
(676,165,o),
(554,165,cs),
(431,165,o),
(361,245,o),
(361,466,cs),
(361,1593,l),
(171,1593,l),
(171,443,ls),
(171,121,o),
(314,-19,o),
(554,-19,cs)
);
},
{
closed = 1;
nodes = (
(762,1678,o),
(852,1838,o),
(839,1989,c),
(714,1989,l),
(682,1866,o),
(628,1833,o),
(543,1833,cs),
(458,1833,o),
(404,1866,o),
(372,1989,c),
(247,1989,l),
(234,1838,o),
(324,1678,o),
(543,1678,cs)
);
}
);
};
layerId = master01;
shapes = (
{
alignment = -1;
pos = (-5,0);
ref = U;
},
{
alignment = -1;
pos = (156,0);
ref = brevecomb.case;
}
);
width = 1087;
}
);
unicode = 364;
},
{
glyphname = Ucircumflex;
lastChange = "2022-11-10 14:18:30 +0000";
layers = (
{
background = {
anchors = (
{
name = bottom;
pos = (555,0);
},
{
name = ogonek;
pos = (702,10);
},
{
name = top;
pos = (543,2020);
},
{
name = topright;
pos = (805,1593);
}
);
shapes = (
{
closed = 1;
nodes = (
(794,-19,o),
(936,121,o),
(936,443,cs),
(936,1593,l),
(747,1593,l),
(747,466,ls),
(747,245,o),
(676,165,o),
(554,165,cs),
(431,165,o),
(361,245,o),
(361,466,cs),
(361,1593,l),
(171,1593,l),
(171,443,ls),
(171,121,o),
(314,-19,o),
(554,-19,cs)
);
},
{
closed = 1;
nodes = (
(543,1840,l),
(783,1719,l),
(859,1857,l),
(543,2020,l),
(227,1857,l),
(303,1719,l)
);
}
);
};
layerId = master01;
shapes = (
{
alignment = -1;
pos = (-5,0);
ref = U;
},
{
alignment = -1;
pos = (155,0);
ref = circumflexcomb.case;
}
);
width = 1087;
}
);
unicode = 219;
},
{
glyphname = Udblgrave;
lastChange = "2022-11-10 14:18:30 +0000";
layers = (
{
background = {
anchors = (
{
name = bottom;
pos = (560,0);
},
{
name = ogonek;
pos = (707,10);
},
{
name = top;
pos = (489,2132);
},
{
name = topright;
pos = (810,1593);
}
);
shapes = (
{
closed = 1;
nodes = (
(799,-19,o),
(941,121,o),
(941,443,cs),
(941,1593,l),
(752,1593,l),
(752,466,ls),
(752,245,o),
(681,165,o),
(559,165,cs),
(436,165,o),
(366,245,o),
(366,466,cs),
(366,1593,l),
(176,1593,l),
(176,443,ls),
(176,121,o),
(319,-19,o),
(559,-19,cs)
);
},
{
closed = 1;
nodes = (
(494,1810,l),
(195,2132,l),
(96,2029,l),
(415,1727,l)
);
},
{
closed = 1;
nodes = (
(882,1810,l),
(603,2132,l),
(504,2029,l),
(803,1727,l)
);
}
);
};
layerId = master01;
shapes = (
{
ref = U;
},
{
pos = (6,0);
ref = dblgravecomb.case;
}
);
width = 1119;
}
);
unicode = 532;
},
{
glyphname = Udieresis;
lastChange = "2022-11-10 14:18:30 +0000";
layers = (
{
background = {
anchors = (
{
name = bottom;
pos = (555,0);
},
{
name = ogonek;
pos = (702,10);
},
{
name = top;
pos = (554,1962);
},
{
name = topright;
pos = (805,1593);
}
);
shapes = (
{
closed = 1;
nodes = (
(794,-19,o),
(936,121,o),
(936,443,cs),
(936,1593,l),
(747,1593,l),
(747,466,ls),
(747,245,o),
(676,165,o),
(554,165,cs),
(431,165,o),
(361,245,o),
(361,466,cs),
(361,1593,l),
(171,1593,l),
(171,443,ls),
(171,121,o),
(314,-19,o),
(554,-19,cs)
);
},
{
closed = 1;
nodes = (
(820,1714,o),
(871,1772,o),
(871,1838,cs),
(871,1904,o),
(820,1962,o),
(742,1962,cs),
(664,1962,o),
(613,1904,o),
(613,1838,cs),
(613,1772,o),
(664,1714,o),
(742,1714,cs)
);
},
{
closed = 1;
nodes = (
(444,1714,o),
(495,1772,o),
(495,1838,cs),
(495,1904,o),
(444,1962,o),
(366,1962,cs),
(288,1962,o),
(237,1904,o),
(237,1838,cs),
(237,1772,o),
(288,1714,o),
(366,1714,cs)
);
}
);
};
layerId = master01;
shapes = (
{
alignment = -1;
pos = (-5,0);
ref = U;
},
{
pos = (143,0);
ref = dieresiscomb.case;
}
);
width = 1087;
}
);
unicode = 220;
},
{
glyphname = Udotbelow;
lastChange = "2022-11-10 14:18:30 +0000";
layers = (
{
background = {
anchors = (
{
name = bottom;
pos = (560,-382);
},
{
name = ogonek;
pos = (707,10);
},
{
name = top;
pos = (559,1593);
},
{
name = topright;
pos = (810,1593);
}
);
shapes = (
{
closed = 1;
nodes = (
(799,-19,o),
(941,121,o),
(941,443,cs),
(941,1593,l),
(752,1593,l),
(752,466,ls),
(752,245,o),
(681,165,o),
(559,165,cs),
(436,165,o),
(366,245,o),
(366,466,cs),
(366,1593,l),
(176,1593,l),
(176,443,ls),
(176,121,o),
(319,-19,o),
(559,-19,cs)
);
},
{
closed = 1;
nodes = (
(638,-382,o),
(689,-324,o),
(689,-258,cs),
(689,-192,o),
(638,-134,o),
(560,-134,cs),
(482,-134,o),
(431,-192,o),
(431,-258,cs),
(431,-324,o),
(482,-382,o),
(560,-382,cs)
);
}
);
};
layerId = master01;
shapes = (
{
ref = U;
},
{
pos = (305,0);
ref = dotbelowcomb.case;
}
);
width = 1119;
}
);
unicode = 7908;
},
{
glyphname = Ugrave;
lastChange = "2022-11-10 14:18:30 +0000";
layers = (
{
background = {
anchors = (
{
name = bottom;
pos = (555,0);
},
{
name = ogonek;
pos = (702,10);
},
{
name = top;
pos = (503,2020);
},
{
name = topright;
pos = (805,1593);
}
);
shapes = (
{
closed = 1;
nodes = (
(794,-19,o),
(936,121,o),
(936,443,cs),
(936,1593,l),
(747,1593,l),
(747,466,ls),
(747,245,o),
(676,165,o),
(554,165,cs),
(431,165,o),
(361,245,o),
(361,466,cs),
(361,1593,l),
(171,1593,l),
(171,443,ls),
(171,121,o),
(314,-19,o),
(554,-19,cs)
);
},
{
closed = 1;
nodes = (
(758,1825,l),
(315,2020,l),
(248,1867,l),
(690,1671,l)
);
}
);
};
layerId = master01;
shapes = (
{
alignment = -1;
pos = (-5,0);
ref = U;
},
{
alignment = -1;
pos = (196,0);
ref = gravecomb.case;
}
);
width = 1087;
}
);
unicode = 217;
},
{
glyphname = Uhookabove;
lastChange = "2022-11-10 14:18:30 +0000";
layers = (
{
background = {
anchors = (
{
name = bottom;
pos = (560,0);
},
{
name = ogonek;
pos = (707,10);
},
{
name = top;
pos = (559,2144);
},
{
name = topright;
pos = (810,1593);
}
);
shapes = (
{
closed = 1;
nodes = (
(799,-19,o),
(941,121,o),
(941,443,cs),
(941,1593,l),
(752,1593,l),
(752,466,ls),
(752,245,o),
(681,165,o),
(559,165,cs),
(436,165,o),
(366,245,o),
(366,466,cs),
(366,1593,l),
(176,1593,l),
(176,443,ls),
(176,121,o),
(319,-19,o),
(559,-19,cs)
);
},
{
closed = 1;
nodes = (
(467,1812,l),
(537,1812,o),
(575,1844,o),
(575,1887,cs),
(575,1950,o),
(498,1997,o),
(375,2008,c),
(411,2144,l),
(616,2123,o),
(743,2012,o),
(743,1882,cs),
(743,1774,o),
(656,1713,o),
(467,1696,c)
);
}
);
};
layerId = master01;
shapes = (
{
ref = U;
},
{
pos = (225,531);
ref = hookabovecomb.case;
}
);
width = 1119;
}
);
unicode = 7910;
},
{
glyphname = Uhorn;
lastChange = "2022-11-10 14:18:30 +0000";
layers = (
{
background = {
anchors = (
{
name = bottom;
pos = (560,0);
},
{
name = ogonek;
pos = (707,10);
},
{
name = top;
pos = (559,1593);
},
{
name = topright;
pos = (810,1593);
}
);
shapes = (
{
closed = 1;
nodes = (
(799,-19,o),
(941,121,o),
(941,443,cs),
(941,1593,l),
(752,1593,l),
(752,466,ls),
(752,245,o),
(681,165,o),
(559,165,cs),
(436,165,o),
(366,245,o),
(366,466,cs),
(366,1593,l),
(176,1593,l),
(176,443,ls),
(176,121,o),
(319,-19,o),
(559,-19,cs)
);
},
{
closed = 1;
nodes = (
(1074,1474,o),
(1260,1531,o),
(1260,1757,cs),
(1260,1814,o),
(1250,1873,o),
(1230,1932,c),
(1034,1933,l),
(1059,1888,o),
(1079,1837,o),
(1079,1778,cs),
(1079,1664,o),
(1012,1593,o),
(810,1593,c),
(905,1474,l)
);
}
);
};
layerId = master01;
shapes = (
{
ref = U;
},
{
pos = (593,529);
ref = horncomb.case;
}
);
width = 1119;
}
);
unicode = 431;
},
{
glyphname = Uhornacute;
lastChange = "2022-11-10 14:18:30 +0000";
layers = (
{
background = {
anchors = (
{
name = bottom;
pos = (560,0);
},
{
name = ogonek;
pos = (707,10);
},
{
name = top;
pos = (559,2020);
},
{
name = topright;
pos = (810,1593);
}
);
shapes = (
{
closed = 1;
nodes = (
(799,-19,o),
(941,121,o),
(941,443,cs),
(941,1593,l),
(752,1593,l),
(752,466,ls),
(752,245,o),
(681,165,o),
(559,165,cs),
(436,165,o),
(366,245,o),
(366,466,cs),
(366,1593,l),
(176,1593,l),
(176,443,ls),
(176,121,o),
(319,-19,o),
(559,-19,cs)
);
},
{
closed = 1;
nodes = (
(1074,1474,o),
(1260,1531,o),
(1260,1757,cs),
(1260,1814,o),
(1250,1873,o),
(1230,1932,c),
(1034,1933,l),
(1059,1888,o),
(1079,1837,o),
(1079,1778,cs),
(1079,1664,o),
(1012,1593,o),
(810,1593,c),
(905,1474,l)
);
},
{
closed = 1;
nodes = (
(814,1867,l),
(747,2020,l),
(304,1825,l),
(372,1671,l)
);
}
);
};
layerId = master01;
shapes = (
{
ref = Uhorn;
},
{
pos = (252,0);
ref = acutecomb.case;
}
);
width = 1119;
}
);
unicode = 7912;
},
{
glyphname = Uhorndotbelow;
lastChange = "2022-11-10 14:18:30 +0000";
layers = (
{
background = {
anchors = (
{
name = bottom;
pos = (560,-382);
},
{
name = ogonek;
pos = (707,10);
},
{
name = top;
pos = (559,1593);
},
{
name = topright;
pos = (810,1593);
}
);
shapes = (
{
closed = 1;
nodes = (
(799,-19,o),
(941,121,o),
(941,443,cs),
(941,1593,l),
(752,1593,l),
(752,466,ls),
(752,245,o),
(681,165,o),
(559,165,cs),
(436,165,o),
(366,245,o),
(366,466,cs),
(366,1593,l),
(176,1593,l),
(176,443,ls),
(176,121,o),
(319,-19,o),
(559,-19,cs)
);
},
{
closed = 1;
nodes = (
(1074,1474,o),
(1260,1531,o),
(1260,1757,cs),
(1260,1814,o),
(1250,1873,o),
(1230,1932,c),
(1034,1933,l),
(1059,1888,o),
(1079,1837,o),
(1079,1778,cs),
(1079,1664,o),
(1012,1593,o),
(810,1593,c),
(905,1474,l)
);
},
{
closed = 1;
nodes = (
(638,-382,o),
(689,-324,o),
(689,-258,cs),
(689,-192,o),
(638,-134,o),
(560,-134,cs),
(482,-134,o),
(431,-192,o),
(431,-258,cs),
(431,-324,o),
(482,-382,o),
(560,-382,cs)
);
}
);
};
layerId = master01;
shapes = (
{
ref = Uhorn;
},
{
pos = (305,0);
ref = dotbelowcomb.case;
}
);
width = 1119;
}
);
unicode = 7920;
},
{
glyphname = Uhorngrave;
lastChange = "2022-11-10 14:18:30 +0000";
layers = (
{
background = {
anchors = (
{
name = bottom;
pos = (560,0);
},
{
name = ogonek;
pos = (707,10);
},
{
name = top;
pos = (559,2020);
},
{
name = topright;
pos = (810,1593);
}
);
shapes = (
{
closed = 1;
nodes = (
(799,-19,o),
(941,121,o),
(941,443,cs),
(941,1593,l),
(752,1593,l),
(752,466,ls),
(752,245,o),
(681,165,o),
(559,165,cs),
(436,165,o),
(366,245,o),
(366,466,cs),
(366,1593,l),
(176,1593,l),
(176,443,ls),
(176,121,o),
(319,-19,o),
(559,-19,cs)
);
},
{
closed = 1;
nodes = (
(1074,1474,o),
(1260,1531,o),
(1260,1757,cs),
(1260,1814,o),
(1250,1873,o),
(1230,1932,c),
(1034,1933,l),
(1059,1888,o),
(1079,1837,o),
(1079,1778,cs),
(1079,1664,o),
(1012,1593,o),
(810,1593,c),
(905,1474,l)
);
},
{
closed = 1;
nodes = (
(814,1825,l),
(371,2020,l),
(304,1867,l),
(746,1671,l)
);
}
);
};
layerId = master01;
shapes = (
{
ref = Uhorn;
},
{
pos = (252,0);
ref = gravecomb.case;
}
);
width = 1119;
}
);
unicode = 7914;
},
{
glyphname = Uhornhookabove;
lastChange = "2022-11-10 14:18:30 +0000";
layers = (
{
background = {
anchors = (
{
name = bottom;
pos = (560,0);
},
{
name = ogonek;
pos = (707,10);
},
{
name = top;
pos = (559,2144);
},
{
name = topright;
pos = (810,1593);
}
);
shapes = (
{
closed = 1;
nodes = (
(799,-19,o),
(941,121,o),
(941,443,cs),
(941,1593,l),
(752,1593,l),
(752,466,ls),
(752,245,o),
(681,165,o),
(559,165,cs),
(436,165,o),
(366,245,o),
(366,466,cs),
(366,1593,l),
(176,1593,l),
(176,443,ls),
(176,121,o),
(319,-19,o),
(559,-19,cs)
);
},
{
closed = 1;
nodes = (
(1074,1474,o),
(1260,1531,o),
(1260,1757,cs),
(1260,1814,o),
(1250,1873,o),
(1230,1932,c),
(1034,1933,l),
(1059,1888,o),
(1079,1837,o),
(1079,1778,cs),
(1079,1664,o),
(1012,1593,o),
(810,1593,c),
(905,1474,l)
);
},
{
closed = 1;
nodes = (
(467,1812,l),
(537,1812,o),
(575,1844,o),
(575,1887,cs),
(575,1950,o),
(498,1997,o),
(375,2008,c),
(411,2144,l),
(616,2123,o),
(743,2012,o),
(743,1882,cs),
(743,1774,o),
(656,1713,o),
(467,1696,c)
);
}
);
};
layerId = master01;
shapes = (
{
ref = Uhorn;
},
{
pos = (225,531);
ref = hookabovecomb.case;
}
);
width = 1119;
}
);
unicode = 7916;
},
{
glyphname = Uhorntilde;
lastChange = "2022-11-10 14:18:30 +0000";
layers = (
{
background = {
anchors = (
{
name = bottom;
pos = (560,0);
},
{
name = ogonek;
pos = (707,10);
},
{
name = top;
pos = (559,1959);
},
{
name = topright;
pos = (810,1593);
}
);
shapes = (
{
closed = 1;
nodes = (
(799,-19,o),
(941,121,o),
(941,443,cs),
(941,1593,l),
(752,1593,l),
(752,466,ls),
(752,245,o),
(681,165,o),
(559,165,cs),
(436,165,o),
(366,245,o),
(366,466,cs),
(366,1593,l),
(176,1593,l),
(176,443,ls),
(176,121,o),
(319,-19,o),
(559,-19,cs)
);
},
{
closed = 1;
nodes = (
(1074,1474,o),
(1260,1531,o),
(1260,1757,cs),
(1260,1814,o),
(1250,1873,o),
(1230,1932,c),
(1034,1933,l),
(1059,1888,o),
(1079,1837,o),
(1079,1778,cs),
(1079,1664,o),
(1012,1593,o),
(810,1593,c),
(905,1474,l)
);
},
{
closed = 1;
nodes = (
(354,1773,o),
(408,1793,o),
(446,1793,cs),
(520,1793,o),
(582,1717,o),
(685,1717,cs),
(761,1717,o),
(847,1792,o),
(887,1862,c),
(811,1959,l),
(764,1903,o),
(710,1883,o),
(672,1883,cs),
(598,1883,o),
(536,1959,o),
(433,1959,cs),
(357,1959,o),
(271,1884,o),
(231,1814,c),
(307,1717,l)
);
}
);
};
layerId = master01;
shapes = (
{
ref = Uhorn;
},
{
pos = (131,0);
ref = tildecomb.case;
}
);
width = 1119;
}
);
unicode = 7918;
},
{
glyphname = Uhungarumlaut;
lastChange = "2022-11-10 14:18:30 +0000";
layers = (
{
background = {
anchors = (
{
name = bottom;
pos = (555,0);
},
{
name = ogonek;
pos = (702,10);
},
{
name = top;
pos = (640,2020);
},
{
name = topright;
pos = (805,1593);
}
);
shapes = (
{
closed = 1;
nodes = (
(794,-19,o),
(936,121,o),
(936,443,cs),
(936,1593,l),
(747,1593,l),
(747,466,ls),
(747,245,o),
(676,165,o),
(554,165,cs),
(431,165,o),
(361,245,o),
(361,466,cs),
(361,1593,l),
(171,1593,l),
(171,443,ls),
(171,121,o),
(314,-19,o),
(554,-19,cs)
);
},
{
closed = 1;
nodes = (
(1033,1917,l),
(934,2020,l),
(635,1738,l),
(714,1655,l)
);
},
{
closed = 1;
nodes = (
(625,1917,l),
(526,2020,l),
(247,1738,l),
(326,1655,l)
);
}
);
};
layerId = master01;
shapes = (
{
alignment = -1;
pos = (-5,0);
ref = U;
},
{
alignment = -1;
pos = (16,0);
ref = hungarumlautcomb.case;
}
);
width = 1087;
}
);
unicode = 368;
},
{
glyphname = Uinvertedbreve;
lastChange = "2022-11-10 14:18:30 +0000";
layers = (
{
background = {
anchors = (
{
name = bottom;
pos = (560,0);
},
{
name = ogonek;
pos = (707,10);
},
{
name = top;
pos = (559,2038);
},
{
name = topright;
pos = (810,1593);
}
);
shapes = (
{
closed = 1;
nodes = (
(799,-19,o),
(941,121,o),
(941,443,cs),
(941,1593,l),
(752,1593,l),
(752,466,ls),
(752,245,o),
(681,165,o),
(559,165,cs),
(436,165,o),
(366,245,o),
(366,466,cs),
(366,1593,l),
(176,1593,l),
(176,443,ls),
(176,121,o),
(319,-19,o),
(559,-19,cs)
);
},
{
closed = 1;
nodes = (
(388,1717,l),
(420,1840,o),
(474,1883,o),
(559,1883,cs),
(644,1883,o),
(698,1840,o),
(730,1717,c),
(855,1717,l),
(868,1868,o),
(788,2038,o),
(559,2038,cs),
(330,2038,o),
(250,1868,o),
(263,1717,c)
);
}
);
};
layerId = master01;
shapes = (
{
ref = U;
},
{
pos = (172,0);
ref = breveinvertedcomb.case;
}
);
width = 1119;
}
);
unicode = 534;
},
{
glyphname = Umacron;
lastChange = "2022-11-10 14:18:30 +0000";
layers = (
{
background = {
anchors = (
{
name = bottom;
pos = (555,0);
},
{
name = ogonek;
pos = (702,10);
},
{
name = top;
pos = (543,1859);
},
{
name = topright;
pos = (805,1593);
}
);
shapes = (
{
closed = 1;
nodes = (
(794,-19,o),
(936,121,o),
(936,443,cs),
(936,1593,l),
(747,1593,l),
(747,466,ls),
(747,245,o),
(676,165,o),
(554,165,cs),
(431,165,o),
(361,245,o),
(361,466,cs),
(361,1593,l),
(171,1593,l),
(171,443,ls),
(171,121,o),
(314,-19,o),
(554,-19,cs)
);
},
{
closed = 1;
nodes = (
(785,1701,l),
(784,1859,l),
(302,1859,l),
(301,1701,l)
);
}
);
};
layerId = master01;
shapes = (
{
alignment = -1;
pos = (-5,0);
ref = U;
},
{
alignment = -1;
pos = (136,0);
ref = macroncomb.case;
}
);
width = 1087;
}
);
unicode = 362;
},
{
glyphname = Uogonek;
lastChange = "2022-11-10 14:33:01 +0000";
layers = (
{
background = {
shapes = (
{
closed = 1;
nodes = (
(799,-19,o),
(941,121,o),
(941,443,cs),
(941,1593,l),
(752,1593,l),
(752,466,ls),
(752,245,o),
(681,165,o),
(559,165,cs),
(436,165,o),
(366,245,o),
(366,466,cs),
(366,1593,l),
(176,1593,l),
(176,443,ls),
(176,121,o),
(319,-19,o),
(559,-19,cs)
);
},
{
closed = 1;
nodes = (
(787,-365,l),
(663,-376,o),
(602,-316,o),
(591,-255,cs),
(571,-132,o),
(627,-55,o),
(788,53,c),
(658,53,l),
(482,0,o),
(368,-170,o),
(394,-308,cs),
(422,-464,o),
(578,-534,o),
(786,-506,c)
);
}
);
};
guides = (
{
pos = (-2341,-512);
}
);
layerId = master01;
shapes = (
{
closed = 1;
nodes = (
(799,-19,o),
(941,121,o),
(941,443,cs),
(941,1593,l),
(752,1593,l),
(752,466,ls),
(752,245,o),
(681,165,o),
(559,165,cs),
(436,165,o),
(366,245,o),
(366,466,cs),
(366,1593,l),
(176,1593,l),
(176,443,ls),
(176,121,o),
(319,-19,o),
(559,-19,cs)
);
},
{
closed = 1;
nodes = (
(787,-365,l),
(663,-376,o),
(602,-316,o),
(591,-255,cs),
(571,-132,o),
(627,-55,o),
(788,53,c),
(658,53,l),
(482,0,o),
(368,-170,o),
(394,-308,cs),
(422,-464,o),
(578,-534,o),
(786,-506,c)
);
}
);
width = 1119;
}
);
unicode = 370;
},
{
glyphname = Uring;
lastChange = "2022-11-10 14:18:30 +0000";
layers = (
{
background = {
anchors = (
{
name = bottom;
pos = (555,0);
},
{
name = ogonek;
pos = (702,10);
},
{
name = top;
pos = (543,2070);
},
{
name = topright;
pos = (805,1593);
}
);
shapes = (
{
closed = 1;
nodes = (
(794,-19,o),
(936,121,o),
(936,443,cs),
(936,1593,l),
(747,1593,l),
(747,466,ls),
(747,245,o),
(676,165,o),
(554,165,cs),
(431,165,o),
(361,245,o),
(361,466,cs),
(361,1593,l),
(171,1593,l),
(171,443,ls),
(171,121,o),
(314,-19,o),
(554,-19,cs)
);
},
{
closed = 1;
nodes = (
(663,1626,o),
(771,1710,o),
(771,1848,cs),
(771,1986,o),
(663,2070,o),
(543,2070,cs),
(423,2070,o),
(315,1986,o),
(315,1848,cs),
(315,1710,o),
(423,1626,o),
(543,1626,cs)
);
},
{
closed = 1;
nodes = (
(483,1748,o),
(444,1779,o),
(444,1848,cs),
(444,1917,o),
(483,1946,o),
(543,1946,cs),
(603,1946,o),
(642,1917,o),
(642,1848,cs),
(642,1779,o),
(603,1748,o),
(543,1748,cs)
);
}
);
};
layerId = master01;
shapes = (
{
alignment = -1;
pos = (-5,0);
ref = U;
},
{
alignment = -1;
pos = (198,0);
ref = ringcomb.case;
}
);
width = 1087;
}
);
unicode = 366;
},
{
glyphname = Utilde;
lastChange = "2022-11-10 14:18:30 +0000";
layers = (
{
background = {
anchors = (
{
name = bottom;
pos = (555,0);
},
{
name = ogonek;
pos = (702,10);
},
{
name = top;
pos = (543,1959);
},
{
name = topright;
pos = (805,1593);
}
);
shapes = (
{
closed = 1;
nodes = (
(794,-19,o),
(936,121,o),
(936,443,cs),
(936,1593,l),
(747,1593,l),
(747,466,ls),
(747,245,o),
(676,165,o),
(554,165,cs),
(431,165,o),
(361,245,o),
(361,466,cs),
(361,1593,l),
(171,1593,l),
(171,443,ls),
(171,121,o),
(314,-19,o),
(554,-19,cs)
);
},
{
closed = 1;
nodes = (
(338,1773,o),
(392,1793,o),
(430,1793,cs),
(504,1793,o),
(566,1717,o),
(669,1717,cs),
(745,1717,o),
(831,1792,o),
(871,1862,c),
(795,1959,l),
(748,1903,o),
(694,1883,o),
(656,1883,cs),
(582,1883,o),
(520,1959,o),
(417,1959,cs),
(341,1959,o),
(255,1884,o),
(215,1814,c),
(291,1717,l)
);
}
);
};
layerId = master01;
shapes = (
{
alignment = -1;
pos = (-5,0);
ref = U;
},
{
alignment = -1;
pos = (115,0);
ref = tildecomb.case;
}
);
width = 1087;
}
);
unicode = 360;
},
{
glyphname = V;
lastChange = "2022-11-10 14:18:19 +0000";
layers = (
{
anchors = (
{
name = bottom;
pos = (477,-170);
},
{
name = top;
pos = (477,1700);
}
);
background = {
anchors = (
{
name = bottom;
pos = (477,-170);
},
{
name = top;
pos = (477,1700);
}
);
shapes = (
{
closed = 1;
nodes = (
(491,-30,l),
(949,1593,l),
(745,1593,l),
(521,741,l),
(476,500,l),
(433,741,l),
(209,1593,l),
(5,1593,l),
(463,-30,l)
);
}
);
};
layerId = master01;
shapes = (
{
closed = 1;
nodes = (
(491,-30,l),
(949,1593,l),
(745,1593,l),
(521,741,l),
(476,500,l),
(433,741,l),
(209,1593,l),
(5,1593,l),
(463,-30,l)
);
}
);
userData = {
com.typemytype.robofont.guides = (
{
angle = 90;
isGlobal = 0;
magnetic = 5;
x = 476;
y = 0;
}
);
};
width = 954;
}
);
unicode = 86;
},
{
glyphname = W;
lastChange = "2022-11-10 14:18:19 +0000";
layers = (
{
anchors = (
{
name = bottom;
pos = (590,-170);
},
{
name = top;
pos = (610,1593);
}
);
background = {
anchors = (
{
name = bottom;
pos = (590,-170);
},
{
name = top;
pos = (610,1593);
}
);
shapes = (
{
closed = 1;
nodes = (
(500,418,l),
(610,835,l),
(721,418,l),
(887,-49,l),
(1236,1593,l),
(1032,1593,l),
(886,836,l),
(846,531,l),
(725,992,l),
(610,1318,l),
(501,992,l),
(374,531,l),
(335,836,l),
(189,1593,l),
(-15,1593,l),
(334,-49,l)
);
}
);
};
layerId = master01;
shapes = (
{
closed = 1;
nodes = (
(500,418,l),
(610,835,l),
(721,418,l),
(887,-49,l),
(1236,1593,l),
(1032,1593,l),
(886,836,l),
(846,531,l),
(725,992,l),
(610,1318,l),
(501,992,l),
(374,531,l),
(335,836,l),
(189,1593,l),
(-15,1593,l),
(334,-49,l)
);
}
);
userData = {
com.typemytype.robofont.guides = (
{
angle = 0;
isGlobal = 0;
magnetic = 5;
x = 0;
y = 466;
},
{
angle = 0;
isGlobal = 0;
magnetic = 5;
x = 0;
y = 536;
},
{
angle = 0;
isGlobal = 0;
magnetic = 5;
x = 0;
y = 418;
}
);
};
width = 1221;
}
);
unicode = 87;
},
{
glyphname = Wacute;
lastChange = "2022-11-10 14:18:30 +0000";
layers = (
{
background = {
anchors = (
{
name = bottom;
pos = (637,-170);
},
{
name = top;
pos = (581,2020);
}
);
shapes = (
{
closed = 1;
nodes = (
(547,418,l),
(657,835,l),
(768,418,l),
(934,-49,l),
(1283,1593,l),
(1079,1593,l),
(933,836,l),
(893,531,l),
(772,992,l),
(657,1318,l),
(548,992,l),
(421,531,l),
(382,836,l),
(236,1593,l),
(32,1593,l),
(381,-49,l)
);
},
{
closed = 1;
nodes = (
(836,1867,l),
(769,2020,l),
(326,1825,l),
(394,1671,l)
);
}
);
};
layerId = master01;
shapes = (
{
alignment = -1;
pos = (47,0);
ref = W;
},
{
alignment = -1;
pos = (274,0);
ref = acutecomb.case;
}
);
width = 1247;
}
);
unicode = 7810;
},
{
glyphname = Wcircumflex;
lastChange = "2022-11-10 14:18:30 +0000";
layers = (
{
background = {
anchors = (
{
name = bottom;
pos = (637,-170);
},
{
name = top;
pos = (625,2020);
}
);
shapes = (
{
closed = 1;
nodes = (
(547,418,l),
(657,835,l),
(768,418,l),
(934,-49,l),
(1283,1593,l),
(1079,1593,l),
(933,836,l),
(893,531,l),
(772,992,l),
(657,1318,l),
(548,992,l),
(421,531,l),
(382,836,l),
(236,1593,l),
(32,1593,l),
(381,-49,l)
);
},
{
closed = 1;
nodes = (
(625,1840,l),
(865,1719,l),
(941,1857,l),
(625,2020,l),
(309,1857,l),
(385,1719,l)
);
}
);
};
layerId = master01;
shapes = (
{
alignment = -1;
pos = (47,0);
ref = W;
},
{
alignment = -1;
pos = (237,0);
ref = circumflexcomb.case;
}
);
width = 1247;
}
);
unicode = 372;
},
{
glyphname = Wdieresis;
lastChange = "2022-11-10 14:18:30 +0000";
layers = (
{
background = {
anchors = (
{
name = bottom;
pos = (637,-170);
},
{
name = top;
pos = (657,1962);
}
);
shapes = (
{
closed = 1;
nodes = (
(547,418,l),
(657,835,l),
(768,418,l),
(934,-49,l),
(1283,1593,l),
(1079,1593,l),
(933,836,l),
(893,531,l),
(772,992,l),
(657,1318,l),
(548,992,l),
(421,531,l),
(382,836,l),
(236,1593,l),
(32,1593,l),
(381,-49,l)
);
},
{
closed = 1;
nodes = (
(923,1714,o),
(974,1772,o),
(974,1838,cs),
(974,1904,o),
(923,1962,o),
(845,1962,cs),
(767,1962,o),
(716,1904,o),
(716,1838,cs),
(716,1772,o),
(767,1714,o),
(845,1714,cs)
);
},
{
closed = 1;
nodes = (
(547,1714,o),
(598,1772,o),
(598,1838,cs),
(598,1904,o),
(547,1962,o),
(469,1962,cs),
(391,1962,o),
(340,1904,o),
(340,1838,cs),
(340,1772,o),
(391,1714,o),
(469,1714,cs)
);
}
);
};
layerId = master01;
shapes = (
{
alignment = -1;
pos = (47,0);
ref = W;
},
{
pos = (246,0);
ref = dieresiscomb.case;
}
);
width = 1247;
}
);
unicode = 7812;
},
{
glyphname = Wgrave;
lastChange = "2022-11-10 14:18:30 +0000";
layers = (
{
background = {
anchors = (
{
name = bottom;
pos = (637,-170);
},
{
name = top;
pos = (585,2020);
}
);
shapes = (
{
closed = 1;
nodes = (
(547,418,l),
(657,835,l),
(768,418,l),
(934,-49,l),
(1283,1593,l),
(1079,1593,l),
(933,836,l),
(893,531,l),
(772,992,l),
(657,1318,l),
(548,992,l),
(421,531,l),
(382,836,l),
(236,1593,l),
(32,1593,l),
(381,-49,l)
);
},
{
closed = 1;
nodes = (
(840,1825,l),
(397,2020,l),
(330,1867,l),
(772,1671,l)
);
}
);
};
layerId = master01;
shapes = (
{
alignment = -1;
pos = (47,0);
ref = W;
},
{
alignment = -1;
pos = (278,0);
ref = gravecomb.case;
}
);
width = 1247;
}
);
unicode = 7808;
},
{
glyphname = X;
lastChange = "2022-11-10 14:18:19 +0000";
layers = (
{
anchors = (
{
name = bottom;
pos = (424,-170);
},
{
name = top;
pos = (424,1700);
}
);
background = {
anchors = (
{
name = bottom;
pos = (424,-170);
},
{
name = top;
pos = (424,1700);
}
);
shapes = (
{
closed = 1;
nodes = (
(848,0,l),
(487,879,l),
(464,911,l),
(231,1593,l),
(31,1593,l),
(369,726,l),
(391,694,l),
(648,0,l)
);
},
{
closed = 1;
nodes = (
(210,0,l),
(463,758,l),
(519,773,l),
(817,1593,l),
(617,1593,l),
(386,840,l),
(349,862,l),
(10,0,l)
);
}
);
};
layerId = master01;
shapes = (
{
closed = 1;
nodes = (
(848,0,l),
(487,879,l),
(464,911,l),
(231,1593,l),
(31,1593,l),
(369,726,l),
(391,694,l),
(648,0,l)
);
},
{
closed = 1;
nodes = (
(210,0,l),
(463,758,l),
(519,773,l),
(817,1593,l),
(617,1593,l),
(386,840,l),
(349,862,l),
(10,0,l)
);
}
);
width = 858;
}
);
unicode = 88;
},
{
glyphname = Y;
lastChange = "2022-11-10 14:38:37 +0000";
layers = (
{
anchors = (
{
name = bottom;
pos = (437,0);
},
{
name = top;
pos = (437,1593);
},
{
name = topleft;
pos = (20,1593);
}
);
background = {
anchors = (
{
name = bottom;
pos = (437,-170);
},
{
name = top;
pos = (437,1593);
},
{
name = topleft;
pos = (20,1593);
}
);
shapes = (
{
closed = 1;
nodes = (
(531,0,l),
(531,536,l),
(870,1594,l),
(666,1594,l),
(437,808,l),
(209,1594,l),
(5,1594,l),
(341,543,l),
(341,0,l)
);
}
);
};
layerId = master01;
shapes = (
{
closed = 1;
nodes = (
(531,0,l),
(531,536,l),
(870,1594,l),
(666,1594,l),
(437,808,l),
(209,1594,l),
(5,1594,l),
(341,543,l),
(341,0,l)
);
}
);
width = 875;
}
);
unicode = 89;
},
{
glyphname = Yacute;
lastChange = "2022-11-10 14:18:30 +0000";
layers = (
{
background = {
anchors = (
{
name = bottom;
pos = (464,-170);
},
{
name = top;
pos = (411,2020);
},
{
name = topleft;
pos = (47,1593);
}
);
shapes = (
{
closed = 1;
nodes = (
(558,0,l),
(558,536,l),
(897,1594,l),
(693,1594,l),
(464,808,l),
(236,1594,l),
(32,1594,l),
(368,543,l),
(368,0,l)
);
},
{
closed = 1;
nodes = (
(666,1867,l),
(599,2020,l),
(156,1825,l),
(224,1671,l)
);
}
);
};
layerId = master01;
shapes = (
{
alignment = -1;
pos = (27,0);
ref = Y;
},
{
alignment = -1;
pos = (104,0);
ref = acutecomb.case;
}
);
width = 907;
}
);
unicode = 221;
},
{
glyphname = Ycircumflex;
lastChange = "2022-11-10 14:18:30 +0000";
layers = (
{
background = {
anchors = (
{
name = bottom;
pos = (464,-170);
},
{
name = top;
pos = (455,2020);
},
{
name = topleft;
pos = (47,1593);
}
);
shapes = (
{
closed = 1;
nodes = (
(558,0,l),
(558,536,l),
(897,1594,l),
(693,1594,l),
(464,808,l),
(236,1594,l),
(32,1594,l),
(368,543,l),
(368,0,l)
);
},
{
closed = 1;
nodes = (
(455,1840,l),
(695,1719,l),
(771,1857,l),
(455,2020,l),
(139,1857,l),
(215,1719,l)
);
}
);
};
layerId = master01;
shapes = (
{
alignment = -1;
pos = (27,0);
ref = Y;
},
{
alignment = -1;
pos = (67,0);
ref = circumflexcomb.case;
}
);
width = 907;
}
);
unicode = 374;
},
{
glyphname = Ydieresis;
lastChange = "2022-11-10 14:18:30 +0000";
layers = (
{
background = {
anchors = (
{
name = bottom;
pos = (464,-170);
},
{
name = top;
pos = (464,1962);
},
{
name = topleft;
pos = (47,1593);
}
);
shapes = (
{
closed = 1;
nodes = (
(558,0,l),
(558,536,l),
(897,1594,l),
(693,1594,l),
(464,808,l),
(236,1594,l),
(32,1594,l),
(368,543,l),
(368,0,l)
);
},
{
closed = 1;
nodes = (
(730,1714,o),
(781,1772,o),
(781,1838,cs),
(781,1904,o),
(730,1962,o),
(652,1962,cs),
(574,1962,o),
(523,1904,o),
(523,1838,cs),
(523,1772,o),
(574,1714,o),
(652,1714,cs)
);
},
{
closed = 1;
nodes = (
(354,1714,o),
(405,1772,o),
(405,1838,cs),
(405,1904,o),
(354,1962,o),
(276,1962,cs),
(198,1962,o),
(147,1904,o),
(147,1838,cs),
(147,1772,o),
(198,1714,o),
(276,1714,cs)
);
}
);
};
layerId = master01;
shapes = (
{
alignment = -1;
pos = (27,0);
ref = Y;
},
{
pos = (53,0);
ref = dieresiscomb.case;
}
);
width = 907;
}
);
unicode = 376;
},
{
glyphname = Ydotaccent;
lastChange = "2022-11-10 14:18:30 +0000";
layers = (
{
background = {
anchors = (
{
name = bottom;
pos = (437,-170);
},
{
name = top;
pos = (437,1947);
},
{
name = topleft;
pos = (20,1593);
}
);
shapes = (
{
closed = 1;
nodes = (
(531,0,l),
(531,536,l),
(870,1594,l),
(666,1594,l),
(437,808,l),
(209,1594,l),
(5,1594,l),
(341,543,l),
(341,0,l)
);
},
{
closed = 1;
nodes = (
(515,1699,o),
(566,1757,o),
(566,1823,cs),
(566,1889,o),
(515,1947,o),
(437,1947,cs),
(359,1947,o),
(308,1889,o),
(308,1823,cs),
(308,1757,o),
(359,1699,o),
(437,1699,cs)
);
}
);
};
layerId = master01;
shapes = (
{
ref = Y;
},
{
pos = (182,0);
ref = dotaccentcomb.case;
}
);
width = 875;
}
);
unicode = 7822;
},
{
glyphname = Ydotbelow;
lastChange = "2022-11-10 14:38:37 +0000";
layers = (
{
background = {
anchors = (
{
name = bottom;
pos = (437,-552);
},
{
name = top;
pos = (437,1593);
},
{
name = topleft;
pos = (20,1593);
}
);
shapes = (
{
closed = 1;
nodes = (
(531,0,l),
(531,536,l),
(870,1594,l),
(666,1594,l),
(437,808,l),
(209,1594,l),
(5,1594,l),
(341,543,l),
(341,0,l)
);
},
{
closed = 1;
nodes = (
(515,-552,o),
(566,-494,o),
(566,-428,cs),
(566,-362,o),
(515,-304,o),
(437,-304,cs),
(359,-304,o),
(308,-362,o),
(308,-428,cs),
(308,-494,o),
(359,-552,o),
(437,-552,cs)
);
}
);
};
layerId = master01;
shapes = (
{
ref = Y;
},
{
pos = (182,0);
ref = dotbelowcomb.case;
}
);
width = 875;
}
);
unicode = 7924;
},
{
glyphname = Ygrave;
lastChange = "2022-11-10 14:18:30 +0000";
layers = (
{
background = {
anchors = (
{
name = bottom;
pos = (464,-170);
},
{
name = top;
pos = (415,2020);
},
{
name = topleft;
pos = (47,1593);
}
);
shapes = (
{
closed = 1;
nodes = (
(558,0,l),
(558,536,l),
(897,1594,l),
(693,1594,l),
(464,808,l),
(236,1594,l),
(32,1594,l),
(368,543,l),
(368,0,l)
);
},
{
closed = 1;
nodes = (
(670,1825,l),
(227,2020,l),
(160,1867,l),
(602,1671,l)
);
}
);
};
layerId = master01;
shapes = (
{
alignment = -1;
pos = (27,0);
ref = Y;
},
{
alignment = -1;
pos = (108,0);
ref = gravecomb.case;
}
);
width = 907;
}
);
unicode = 7922;
},
{
glyphname = Yhookabove;
lastChange = "2022-11-10 14:18:30 +0000";
layers = (
{
background = {
anchors = (
{
name = bottom;
pos = (437,-170);
},
{
name = top;
pos = (437,2144);
},
{
name = topleft;
pos = (20,1593);
}
);
shapes = (
{
closed = 1;
nodes = (
(531,0,l),
(531,536,l),
(870,1594,l),
(666,1594,l),
(437,808,l),
(209,1594,l),
(5,1594,l),
(341,543,l),
(341,0,l)
);
},
{
closed = 1;
nodes = (
(345,1812,l),
(415,1812,o),
(453,1844,o),
(453,1887,cs),
(453,1950,o),
(376,1997,o),
(253,2008,c),
(289,2144,l),
(494,2123,o),
(621,2012,o),
(621,1882,cs),
(621,1774,o),
(534,1713,o),
(345,1696,c)
);
}
);
};
layerId = master01;
shapes = (
{
ref = Y;
},
{
pos = (103,531);
ref = hookabovecomb.case;
}
);
width = 875;
}
);
unicode = 7926;
},
{
glyphname = Ymacron;
lastChange = "2022-11-10 14:18:30 +0000";
layers = (
{
background = {
anchors = (
{
name = bottom;
pos = (437,-170);
},
{
name = top;
pos = (437,1859);
},
{
name = topleft;
pos = (20,1593);
}
);
shapes = (
{
closed = 1;
nodes = (
(531,0,l),
(531,536,l),
(870,1594,l),
(666,1594,l),
(437,808,l),
(209,1594,l),
(5,1594,l),
(341,543,l),
(341,0,l)
);
},
{
closed = 1;
nodes = (
(679,1701,l),
(678,1859,l),
(196,1859,l),
(195,1701,l)
);
}
);
};
layerId = master01;
shapes = (
{
ref = Y;
},
{
pos = (30,0);
ref = macroncomb.case;
}
);
width = 875;
}
);
unicode = 562;
},
{
glyphname = Ytilde;
lastChange = "2022-11-10 14:18:30 +0000";
layers = (
{
background = {
anchors = (
{
name = bottom;
pos = (437,-170);
},
{
name = top;
pos = (437,1959);
},
{
name = topleft;
pos = (20,1593);
}
);
shapes = (
{
closed = 1;
nodes = (
(531,0,l),
(531,536,l),
(870,1594,l),
(666,1594,l),
(437,808,l),
(209,1594,l),
(5,1594,l),
(341,543,l),
(341,0,l)
);
},
{
closed = 1;
nodes = (
(232,1773,o),
(286,1793,o),
(324,1793,cs),
(398,1793,o),
(460,1717,o),
(563,1717,cs),
(639,1717,o),
(725,1792,o),
(765,1862,c),
(689,1959,l),
(642,1903,o),
(588,1883,o),
(550,1883,cs),
(476,1883,o),
(414,1959,o),
(311,1959,cs),
(235,1959,o),
(149,1884,o),
(109,1814,c),
(185,1717,l)
);
}
);
};
layerId = master01;
shapes = (
{
ref = Y;
},
{
pos = (9,0);
ref = tildecomb.case;
}
);
width = 875;
}
);
unicode = 7928;
},
{
glyphname = Z;
lastChange = "2022-11-10 14:38:41 +0000";
layers = (
{
anchors = (
{
name = bottom;
pos = (473,0);
},
{
name = center;
pos = (440,797);
},
{
name = top;
pos = (473,1700);
}
);
background = {
anchors = (
{
name = bottom;
pos = (473,-170);
},
{
name = center;
pos = (440,797);
},
{
name = top;
pos = (473,1700);
}
);
shapes = (
{
closed = 1;
nodes = (
(829,0,l),
(829,176,l),
(371,176,l),
(829,1593,l),
(154,1593,l),
(154,1417,l),
(576,1417,l),
(118,0,l)
);
}
);
};
layerId = master01;
shapes = (
{
closed = 1;
nodes = (
(829,0,l),
(829,176,l),
(371,176,l),
(829,1593,l),
(154,1593,l),
(154,1417,l),
(576,1417,l),
(118,0,l)
);
}
);
userData = {
com.typemytype.robofont.guides = (
{
angle = 90;
isGlobal = 0;
magnetic = 5;
x = 120;
y = 0;
},
{
angle = 90;
isGlobal = 0;
magnetic = 5;
x = 823;
y = 0;
}
);
};
width = 879;
}
);
unicode = 90;
},
{
glyphname = Zacute;
lastChange = "2022-11-10 14:18:30 +0000";
layers = (
{
background = {
anchors = (
{
name = bottom;
pos = (468,-170);
},
{
name = center;
pos = (435,797);
},
{
name = top;
pos = (415,2020);
}
);
shapes = (
{
closed = 1;
nodes = (
(824,0,l),
(824,176,l),
(366,176,l),
(824,1593,l),
(149,1593,l),
(149,1417,l),
(571,1417,l),
(113,0,l)
);
},
{
closed = 1;
nodes = (
(670,1867,l),
(603,2020,l),
(160,1825,l),
(228,1671,l)
);
}
);
};
layerId = master01;
shapes = (
{
alignment = -1;
pos = (-5,0);
ref = Z;
},
{
alignment = -1;
pos = (108,0);
ref = acutecomb.case;
}
);
width = 852;
}
);
unicode = 377;
},
{
glyphname = Zcaron;
lastChange = "2022-11-10 14:18:30 +0000";
layers = (
{
background = {
anchors = (
{
name = bottom;
pos = (468,-170);
},
{
name = center;
pos = (435,797);
},
{
name = top;
pos = (459,2020);
}
);
shapes = (
{
closed = 1;
nodes = (
(824,0,l),
(824,176,l),
(366,176,l),
(824,1593,l),
(149,1593,l),
(149,1417,l),
(571,1417,l),
(113,0,l)
);
},
{
closed = 1;
nodes = (
(775,1882,l),
(699,2020,l),
(459,1899,l),
(219,2020,l),
(143,1882,l),
(459,1719,l)
);
}
);
};
layerId = master01;
shapes = (
{
alignment = -1;
pos = (-5,0);
ref = Z;
},
{
alignment = -1;
pos = (71,0);
ref = caroncomb.case;
}
);
width = 852;
}
);
unicode = 381;
},
{
glyphname = Zdotaccent;
lastChange = "2022-11-10 14:18:30 +0000";
layers = (
{
background = {
anchors = (
{
name = bottom;
pos = (468,-170);
},
{
name = center;
pos = (435,797);
},
{
name = top;
pos = (459,1947);
}
);
shapes = (
{
closed = 1;
nodes = (
(824,0,l),
(824,176,l),
(366,176,l),
(824,1593,l),
(149,1593,l),
(149,1417,l),
(571,1417,l),
(113,0,l)
);
},
{
closed = 1;
nodes = (
(537,1699,o),
(588,1757,o),
(588,1823,cs),
(588,1889,o),
(537,1947,o),
(459,1947,cs),
(381,1947,o),
(330,1889,o),
(330,1823,cs),
(330,1757,o),
(381,1699,o),
(459,1699,cs)
);
}
);
};
layerId = master01;
shapes = (
{
alignment = -1;
pos = (-5,0);
ref = Z;
},
{
alignment = -1;
pos = (204,0);
ref = dotaccentcomb.case;
}
);
width = 852;
}
);
unicode = 379;
},
{
glyphname = Zdotbelow;
lastChange = "2022-11-10 14:38:41 +0000";
layers = (
{
background = {
anchors = (
{
name = bottom;
pos = (473,-552);
},
{
name = center;
pos = (440,797);
},
{
name = top;
pos = (473,1700);
}
);
shapes = (
{
closed = 1;
nodes = (
(829,0,l),
(829,176,l),
(371,176,l),
(829,1593,l),
(154,1593,l),
(154,1417,l),
(576,1417,l),
(118,0,l)
);
},
{
closed = 1;
nodes = (
(551,-552,o),
(602,-494,o),
(602,-428,cs),
(602,-362,o),
(551,-304,o),
(473,-304,cs),
(395,-304,o),
(344,-362,o),
(344,-428,cs),
(344,-494,o),
(395,-552,o),
(473,-552,cs)
);
}
);
};
layerId = master01;
shapes = (
{
ref = Z;
},
{
pos = (218,0);
ref = dotbelowcomb.case;
}
);
width = 879;
}
);
unicode = 7826;
},
{
glyphname = a;
lastChange = "2022-11-10 14:19:40 +0000";
layers = (
{
anchors = (
{
name = bottom;
pos = (378,0);
},
{
name = ogonek;
pos = (711,10);
},
{
name = top;
pos = (408,1062);
}
);
background = {
anchors = (
{
name = bottom;
pos = (378,0);
},
{
name = ogonek;
pos = (711,10);
},
{
name = top;
pos = (398,1062);
}
);
shapes = (
{
closed = 1;
nodes = (
(711,-19,l),
(711,719,ls),
(711,965,o),
(611,1081,o),
(384,1081,cs),
(260,1081,o),
(140,1051,o),
(67,1007,c),
(136,847,l),
(188,881,o),
(283,912,o),
(362,912,cs),
(496,912,o),
(531,849,o),
(531,712,cs),
(531,130,l),
(595,-19,l)
);
},
{
closed = 1;
nodes = (
(537,-19,o),
(604,179,o),
(604,247,c),
(537,247,l),
(532,201,o),
(462,145,o),
(390,145,cs),
(250,145,o),
(215,223,o),
(215,322,cs),
(215,449,o),
(313,531,o),
(512,531,c),
(661,531,l),
(661,690,l),
(532,691,l),
(187,691,o),
(30,540,o),
(30,325,cs),
(30,129,o),
(142,-19,o),
(335,-19,cs)
);
}
);
};
layerId = master01;
shapes = (
{
closed = 1;
nodes = (
(711,-19,l),
(711,719,ls),
(711,965,o),
(611,1081,o),
(384,1081,cs),
(260,1081,o),
(140,1051,o),
(67,1007,c),
(136,847,l),
(188,881,o),
(283,912,o),
(362,912,cs),
(496,912,o),
(531,849,o),
(531,712,cs),
(531,130,l),
(595,-19,l)
);
},
{
closed = 1;
nodes = (
(537,-19,o),
(604,179,o),
(604,247,c),
(537,247,l),
(532,201,o),
(462,145,o),
(390,145,cs),
(250,145,o),
(215,223,o),
(215,322,cs),
(215,449,o),
(313,531,o),
(512,531,c),
(661,531,l),
(661,690,l),
(532,691,l),
(187,691,o),
(30,540,o),
(30,325,cs),
(30,129,o),
(142,-19,o),
(335,-19,cs)
);
}
);
userData = {
com.typemytype.robofont.guides = (
{
angle = 0;
isGlobal = 0;
magnetic = 5;
x = 0;
y = 303;
},
{
angle = 90;
isGlobal = 0;
magnetic = 5;
x = 649;
y = 0;
},
{
angle = 90;
isGlobal = 0;
magnetic = 5;
x = 413;
y = 0;
},
{
angle = 90;
isGlobal = 0;
magnetic = 5;
x = -694;
y = 0;
}
);
com.typemytype.robofont.mark = (
0.967,
0.6,
1,
1
);
};
width = 796;
}
);
unicode = 97;
},
{
glyphname = aacute;
lastChange = "2022-11-10 14:24:48 +0000";
layers = (
{
background = {
anchors = (
{
name = bottom;
pos = (373,0);
},
{
name = ogonek;
pos = (706,10);
},
{
name = top;
pos = (393,1062);
}
);
shapes = (
{
closed = 1;
nodes = (
(706,-19,l),
(706,719,ls),
(706,965,o),
(606,1081,o),
(379,1081,cs),
(255,1081,o),
(135,1051,o),
(62,1007,c),
(131,847,l),
(183,881,o),
(278,912,o),
(357,912,cs),
(491,912,o),
(526,849,o),
(526,712,cs),
(526,130,l),
(590,-19,l)
);
},
{
closed = 1;
nodes = (
(532,-19,o),
(599,179,o),
(599,247,c),
(532,247,l),
(527,201,o),
(457,145,o),
(385,145,cs),
(245,145,o),
(210,223,o),
(210,322,cs),
(210,449,o),
(308,531,o),
(507,531,c),
(656,531,l),
(656,690,l),
(527,691,l),
(182,691,o),
(25,540,o),
(25,325,cs),
(25,129,o),
(137,-19,o),
(330,-19,cs)
);
},
{
closed = 1;
nodes = (
(667,1508,l),
(568,1631,l),
(189,1329,l),
(288,1206,l)
);
}
);
};
layerId = master01;
shapes = (
{
alignment = -1;
pos = (-5,0);
ref = a;
},
{
pos = (84,0);
ref = acutecomb;
}
);
width = 879;
}
);
unicode = 225;
},
{
glyphname = abreve;
lastChange = "2022-11-10 14:28:42 +0000";
layers = (
{
background = {
anchors = (
{
name = bottom;
pos = (373,0);
},
{
name = ogonek;
pos = (706,10);
},
{
name = top;
pos = (393,1062);
}
);
shapes = (
{
closed = 1;
nodes = (
(706,-19,l),
(706,719,ls),
(706,965,o),
(606,1081,o),
(379,1081,cs),
(255,1081,o),
(135,1051,o),
(62,1007,c),
(131,847,l),
(183,881,o),
(278,912,o),
(357,912,cs),
(491,912,o),
(526,849,o),
(526,712,cs),
(526,130,l),
(590,-19,l)
);
},
{
closed = 1;
nodes = (
(532,-19,o),
(599,179,o),
(599,247,c),
(532,247,l),
(527,201,o),
(457,145,o),
(385,145,cs),
(245,145,o),
(210,223,o),
(210,322,cs),
(210,449,o),
(308,531,o),
(507,531,c),
(656,531,l),
(656,690,l),
(527,691,l),
(182,691,o),
(25,540,o),
(25,325,cs),
(25,129,o),
(137,-19,o),
(330,-19,cs)
);
},
{
closed = 1;
nodes = (
(622,1244,o),
(702,1414,o),
(689,1565,c),
(564,1565,l),
(532,1442,o),
(478,1399,o),
(393,1399,cs),
(308,1399,o),
(254,1442,o),
(222,1565,c),
(97,1565,l),
(84,1414,o),
(164,1244,o),
(393,1244,cs)
);
}
);
};
layerId = master01;
shapes = (
{
alignment = -1;
pos = (-5,0);
ref = a;
},
{
pos = (16,0);
ref = brevecomb;
}
);
width = 879;
}
);
unicode = 259;
},
